<?xml version="1.0" encoding="utf-8"?>
<!-- Generator: Adobe Illustrator 25.3.1, SVG Export Plug-In . SVG Version: 6.00 Build 0)  -->
<svg width="2076.2" height="413.3" version="1.1" id="Layer_1" xmlns="http://www.w3.org/2000/svg" xmlns:xlink="http://www.w3.org/1999/xlink" x="0px" y="0px"
	 viewBox="0 0 2076.2 413.3" style="enable-background:new 0 0 2076.2 413.3;" xml:space="preserve">
<style type="text/css">
	.st0{fill:#711858;}
</style>
<g>
	<path class="st0" d="M1769.8,172.1l139.8-22.1c-0.4-3.3-0.7-6.1-0.9-8.8l167.5-26.5l-5.8-36.8l-125.9,19.9
		c-14.1,2.2-28.2,4.5-42.3,6.7c-13.9,2.2-27.9,4.4-41.8,6.6s-27.7,4.4-41.7,6.6l-2.7-17c1.6-0.3,3.1-0.6,4.7-0.9
		c24.1-3.8,48.2-7.6,72.3-11.4c1.5-0.2,3.1-0.5,4.5-0.7c0-1.1,0-1.8,0.1-2.5l-2.8-18l-140.3,22.2l0,0l140.3-22.2l2.8,18l167.1-26.4
		l-2.9-18L1896.2,67c2-1.2,4.1-2.2,6.3-2.6c12.8-2.4,25.7-4.6,38.5-7c10.6-2.1,21.2-4.4,31.8-6.7c8.8-1.9,17.5-3.8,26.2-5.8
		c9.1-2.2,18.2-4.4,27.2-6.8c8.5-2.3,16.9-4.7,25.2-7.4c4.5-1.4,8.8-3.4,13.1-5.4c2.4-1.1,5-2.3,5.6-5.1c-2.5-2.9-5.9-3.2-9.2-3.3
		c-11.6-0.3-23.2-0.5-34.8-0.3c-8.8,0.2-17.5,0.9-26.3,1.6c-8.1,0.6-16.1,1.3-24.2,2.1c-9.9,1-19.8,2-29.8,3c-6,0.6-12.1,1.3-18.1,2
		c-8.8,1.1-17.6,2.2-26.3,3.3c-11.7,1.5-23.3,3-34.9,4.7c-12.1,1.8-24.2,3.8-36.2,5.7c-1,0.2-1.9,0.9-2.9,1.4l0,0
		c4.2-0.1,8.3-0.2,12.5-0.4c14.7-0.7,29.3-1.4,43.9-0.2c4.1,0.3,8.3,1.1,12.3,2.2c4.2,1.3,5.1,3.9,2.3,6.2c2.8-2.3,1.9-4.9-2.3-6.2
		c-3.9-1.2-8.1-1.9-12.3-2.2c-14.6-1.2-29.3-0.6-43.9,0.2c-4.2,0.2-8.3,0.3-12.5,0.4l0,0c-12.8,1.2-25.7,2.3-38.5,3.6
		c-15,1.6-30,3.5-44.9,5.2c-6.2,0.7-12.4,1.5-18.6,2.4c-13.4,2-26.7,4.1-40.1,6.1l0,0c-7.9,0.7-15.8,1.3-23.7,2
		c-9.2,0.8-18.4,1.7-27.6,2.7c-7.5,0.8-15,1.7-22.4,2.7c-6.5,0.9-13,2-19.4,3.1c-1.2,0.2-2.3,0.9-3.4,1.3l0,0l0,0
		c-0.4,0.1-0.9,0.2-1.3,0.2c-8.9,0.3-17.8,0.6-26.7,1.1c-7.6,0.4-15.2,1.1-22.8,1.6c2.4-1.2,4.9-2.3,7.2-3.6
		c2.2-1.3,4.7-2.3,5.5-4.9c-3-2.7-3-2.9-6.3-3.2c-4.4-0.5-8.8-1.2-13.2-1.1c-13.8,0.3-27.5,0.7-41.2,1.5c-9.2,0.5-18.4,1.7-27.5,2.6
		c-0.7,0.1-1.5,0.1-2.2,0.2c-4.4,0.6-8.8,1.2-13.2,1.8c0.5,0.1,1,0.2,1.5,0.2c-0.5-0.1-1-0.2-1.5-0.2l0,0c-1.3,0.1-2.6,0.2-3.9,0.1
		c-13.9-0.8-27.8-0.2-41.7,0.8c-4.3,0.3-8.6,0.3-12.9,0.6c-4.9,0.4-9.8,1-14.7,1.5c3.8,0.9,7.8,1.7,11.6,2.8c2,0.6,4.1,1.4,5.8,2.6
		c0.9,0.6,1.3,1.4,1.3,2.3c0-0.9-0.4-1.7-1.3-2.3c-1.7-1.2-3.8-2-5.8-2.6c-3.8-1.1-7.7-1.9-11.6-2.8l0,0c-2.2-0.2-4.3-0.4-6.5-0.5
		c-6.4-0.2-12.8-0.7-19.2-0.6c-8.7,0.1-17.4,0.5-26.1,0.8c-0.4,0-0.8,0.6-1.3,0.9l0,0c-10.3-1-20.7-2.3-31.1-3c-7-0.5-14-0.2-21-0.2
		c0.8,0.5,1.5,1.2,2.4,1.6c1.4,0.7,2.9,1.3,4.2,2.1c4,2.4,6,5.2,5.9,8.2c0.1-3-1.9-5.8-5.9-8.2c-1.3-0.8-2.8-1.3-4.2-2.1
		c-0.8-0.5-1.6-1.1-2.4-1.6c-1.4-0.1-2.8-0.1-4.2-0.4c-10.7-2.6-21.6-3.3-32.6-3.9c-0.8,0-1.6,0.8-2.4,1.2l0,0
		c-6.6-2.1-13.2-4.5-20-6c-5.5-1.3-11.3-1.6-17-2.4l0,0c-0.8-0.3-1.6-0.5-2.4-0.8c-5.8-2-11.5-4.2-17.3-5.9c-3.5-1-7.3-1.2-10.9-1.7
		c0.7,0.7,1.3,1.4,2,2.1c8.8,8.9,10.1,20,3.5,30.7c-2,3.2-4.5,6-6.6,8.8l0,0c2.1-2.8,4.7-5.6,6.7-8.8c6.6-10.7,5.3-21.8-3.5-30.7
		c-0.7-0.7-1.3-1.4-2-2.1c-7.3-5.4-16.6-9.1-25.5-11.4c-0.5-0.6-0.7-0.8-1.3-1.3c-3-2.3-5.7-4.9-9-6.8c-3.3-1.9-6.4-4.6-10.8-4.4
		l0,0c-0.5-0.6-1.1-1.2-1.6-1.9C1101,3.1,1077.6-4,1056.5,2.2c-21,6.1-37.2,26.4-37,47.1c0,6.2,1.5,12,3,17.8c1.1,1.9,2,3.8,3.1,5.7
		c-1.1-1.9-2-3.8-3.1-5.7l0,0c-0.2,1-0.6,2.1-0.4,3c0.8,3.7,1.4,6.1,2.3,9.7c0.1,0.1,0.2,0.2,0.3,0.4c-0.1-0.1-0.2-0.3-0.3-0.4
		c1,3.9,2.2,9.1,3.2,13l0,0c0.1,1.9,0,3.9,0.2,5.8c0.1,1.2,0.7,2.3,1,3.4c0.3,0.2,0.8,0.3,1,0.5c4.3,5.9,10.5,9.1,17.5,11.7
		c1.5-1.5,3-3,4.7-4.7l0,0c-1.7,1.7-3.2,3.2-4.7,4.7c-7-2.6-13.2-5.8-17.5-11.7c-0.2-0.3-0.7-0.4-1-0.5c-0.9,3.4,0,6.5,1.7,9.4
		c-0.4,3.6,0.3,7,2.3,10.2c2.4,1,4.7,2.1,7.3,3.2l0,0c-2.5-1.1-4.9-2.2-7.3-3.2c-0.7,2.3-0.4,4.3,1.3,6.1c0.8,0.8,1.6,2.1,1.6,3.1
		c0,3.8-0.4,7.5-0.7,11.3c-0.5,6.2-0.2,12.4,1.8,18.4c0.7,2.1,1.3,3.6,2.2,6.1c1.3,2.9,2.5,5.4,4.2,7.9c3.5,4.3,6.1,7.1,9.4,9.5
		c1.4,1.1,3.5,2.1,5.2,3.1c6.1,3.6,12.5,6.1,19.7,7.2c0.8,0.1,1.5,0.4,3.1,0.8l-39.3,6.2l-7.5-47.1l-52.3,8.3l-7.8-49.2l-50.1,7.9
		l-15.2-96.1L806.1,41.3l3,19.2l0,0c-13.2,2.1-26.4,4-39.8,6.4l2.8,18c3.5,22.6,7.1,45.2,10.6,67.8c0,0.2,0.1,0.3,0.3,0.6
		c-0.1-0.2-0.2-0.4-0.3-0.6c-3.6-22.6-7.1-45.2-10.6-67.8c-0.7,0-1.5,0-2.2,0.1c-14.8,2.3-29.6,4.7-44.4,7c-0.5,0.1-1,0.4-1.8,0.7
		l2.4,15.2c2.1,12.8,4.2,25.6,6.2,38.3c1.3,8,2.5,16,3.9,24.5l72-11.4l5.4,34.4l16.6-2.6l6.9,43.4l0,0l-6.9-43.4l-16.6,2.6
		l-5.4-34.4l-72,11.4c-1.3-8.5-2.6-16.5-3.9-24.5c-2.1-12.8-4.2-25.6-6.2-38.3l0,0l-57.8,9.1l2.1,13.4l-70.1,11.1
		c1.1,4.5,2.1,8.5,3.1,12.6l-82.7,13.1l1.8,11.5c0.4,1.5,0.8,2.9,1,4.4c2,12.4,3.9,24.8,5.9,37.2c0.2,1.3,0.4,2.6,0.7,4.3
		l123.4-19.5l4,25.3l29.1-4.6l5,31.4l0,0l-5-31.4l-29.1,4.6l-4-25.3l-123.4,19.5c-0.3-1.7-0.5-3-0.7-4.3c-2-12.4-3.9-24.8-5.9-37.2
		c-0.2-1.5-0.7-2.9-1-4.4L424,194.3l1.7,10.6l-118.2,18.7l7.4,46.7l176.6-27.9l3.2,20.1l42-6.6l4.1,25.7l81.7-12.9l0,0l-81.7,12.9
		l-4.1-25.7l-42,6.6l-3.2-20.1L315,270.3l-6-37.7c-0.6,0.1-1.2,0.1-1.7,0.2c-45.6,7.2-91.2,14.4-136.7,21.6c-1,0.2-1.9,0.4-3.2,0.7
		l1.3,7.9C112.4,271.9,56.2,280.8,0,289.7l6,37.7l252.6-40l2.6,16.3c5.2-0.7,10.4-1.4,15.5-2.3c13.1-2,26.2-4.1,39.3-6.2
		c1.4-0.2,2.8-0.4,4.7-0.7l2.6,16.2l-2.6-16.2c-1.9,0.3-3.3,0.5-4.7,0.8c-13.1,2.1-26.2,4.2-39.3,6.2c-5.2,0.8-10.4,1.5-15.5,2.3
		c-1.6,0.3-3.1,0.7-4.7,1c-24,3.8-47.9,7.6-71.9,11.4c-1,0.2-2,0.4-3,0.5c-1.7,0.1-1.6,1.3-1.7,2.4c0.3,1.5,0.6,2.9,0.9,4.4
		c0.9,4.8,1.7,9.6,2.6,14.4l0,0c46.9-7.4,93.8-14.8,140.6-22.2l0,0c1.1,0.1,2.2,0.5,3.2,0.3c4.4-0.9,8.7-2.1,13.1-2.8
		c29.8-4.8,59.5-9.4,89.3-14.2c1.4-0.2,2.8-0.4,4.2-0.7c-0.3,0.6-0.6,0.8-1,0.9c-13.1,2.4-26.3,4.7-39.4,7.1
		c-14.1,2.5-28.3,5-42.4,7.6c-10.4,1.9-20.8,3.9-31.2,5.8c-13,2.4-26,4.7-39,7c-0.3,0.1-0.6,0.1-0.9,0.1c-9.5,2-18.9,4.1-28.4,6.1
		c-7.5,1.6-15.1,3-22.6,4.5c-0.3,0.1-0.6,0.1-0.9,0.2c-6.4,1.6-12.9,3.2-19.3,4.6c-6.9,1.5-13.9,2.8-20.9,4.2
		c-4.2,0.9-8.5,1.8-12.7,2.9c-8.7,2.1-17.3,4.4-26,6.6c-9.1,2.3-18.2,4.5-27.2,6.8c-7.7,2-15.3,4-22.9,6.1
		c-8.7,2.4-17.5,4.8-26.1,7.5c-10.9,3.5-21.9,7-32.6,11.2c-5.7,2.2-11.1,5.3-16.3,8.5c-5.7,3.5-5.3,7.4,0.7,9.8c3,1.2,6.2,2,9.5,2.5
		c19.1,2.8,38.3,2.1,57.5,1.7c8.5-0.2,16.9-0.9,25.4-1.4c10-0.5,20.1-0.9,30.1-1.5c6.5-0.4,12.9-0.8,19.4-1.4
		c10.1-0.9,20.1-2,30.2-3.1c0.9-0.1,1.7-0.3,2.6-0.3c5.6-0.4,11.2-0.5,16.8-1.1c8.2-0.8,16.4-2,24.6-3c0.3,0,0.6-0.1,0.9-0.1
		c7.5-0.6,14.9-1.2,22.4-1.9c5.3-0.5,10.6-1,15.9-1.7c9.5-1.2,19-2.4,28.5-3.7c0.9-0.1,1.7-0.8,2.5-1.3l0,0c2.7-0.2,5.5-0.5,8.2-0.6
		c2-0.1,4,0.3,5.9,0.1c5.3-0.5,10.5-1.1,15.8-1.7c0.4,0,0.9-0.1,1.3-0.1c4.4-0.1,8.8-0.1,13.1-0.5c5.7-0.5,11.4-1.3,17-1.9
		c0.6-0.1,1.2-0.2,1.7-0.2c5.4-0.3,10.8-0.4,16.2-0.9c7.3-0.7,14.5-1.8,21.8-2.7c1.7-0.2,3.5,0.2,5.1-0.1c3-0.5,6-1.3,9-2
		c-4-0.2-7.9-0.6-11.9-0.6c-17.1-0.1-34.2-0.4-51.1-2.9c-6.8-1-13.6-2.7-20.2-4.4c-2.8-0.8-5.6-2.3-7.9-4.1
		c-2.6-1.9-3.8-4.1-3.6-6.5c-0.2,2.4,1,4.6,3.6,6.5c2.4,1.7,5.1,3.3,7.9,4.1c6.6,1.8,13.4,3.5,20.2,4.4c16.9,2.5,34,2.8,51.1,2.9
		c4,0,7.9,0.4,11.9,0.6l0,0c4.1-0.1,8.3-0.1,12.4-0.3c6.2-0.3,12.3-0.8,18.5-1.1c6.6-0.3,13.2-0.5,19.7-0.8c4-0.2,8-0.7,12-1
		c8-0.5,16-0.8,24-1.4c5.9-0.4,11.8-1.3,17.6-1.9c1-0.1,2,0.3,3,0.1c2.7-0.4,5.8,0.2,8-2l0,0c0.7-0.1,1.5-0.3,2.2-0.1
		c3.2,0.8,6.4,0.9,9.7,0c0.1,0,0.3,0,0.4,0c4.6,0.1,9.2,0.4,13.8,0.3c5.3-0.1,10.7-0.6,16-0.9c2.7-0.1,5.4-0.3,8.1-0.3
		c3.7-0.1,7.3,0.1,10.9-0.1c4.2-0.2,8.5-1.3,12.7-1.1c4.6,0.3,8.8-1,13.2-1.4c-9-1.1-18.1-2-27-3.2c-10.5-1.5-20.8-3.5-30.6-7.4
		c-4.9-2-9.7-4.4-13.9-7.4c-5.5-3.9-7.9-8.7-7.5-14c-0.4,5.2,2,10,7.5,14c4.2,3,9,5.4,13.9,7.4c9.7,4,20.1,6,30.6,7.4
		c9,1.2,18,2.2,27,3.2l0,0c2.2,0.1,4.4,0.3,6.6,0.4c11.1,0.3,22.2,0.7,33.4,0.8c8,0.1,16-0.2,24-0.5c2-0.1,4.4,0.4,5.9-1.7l0,0
		c20.4,2.6,40.9,4.1,61.6,3.2c-1.3-0.5-2.5-1.1-3.9-1.5c-11.5-3.3-22.9-7-32.7-13.7c-4.3-2.9-8.5-6.2-11.9-10
		c-9.2-10.3-10.9-22.1-5.4-34.7c4.6-10.7,12.7-18.9,21.8-26.3c15.4-12.5,32.9-21.6,51.3-29.2c6.2-2.6,12.5-4.9,18.8-7.2
		c-6.3,2.2-12.6,4.6-18.8,7.2c-18.4,7.6-35.9,16.7-51.3,29.2c-9.1,7.4-17.1,15.6-21.8,26.3c-5.5,12.7-3.8,24.4,5.4,34.7
		c3.4,3.8,7.6,7.1,11.9,10c9.8,6.7,21.2,10.4,32.7,13.7c1.3,0.4,2.6,1,3.9,1.5l0,0c1.8,0.3,3.5,0.7,5.3,1c9.2,1.4,18.3,3,27.5,4.1
		c6.1,0.7,12.3,0.6,18.4,0.9l0,0c14.8,5.2,30.2,8.1,46,9.4l0,0c7.3,2.6,14.6,5.4,22.1,7.7c4.4,1.3,9.2,1.8,13.8,2.6
		c-1-0.9-1.9-1.9-3-2.8c-17.7-13.9-29.3-30.5-34.6-49.9c5.4,19.4,17,36,34.6,49.9c1.1,0.8,2,1.8,3,2.8c1.2,0.6,2.6,1.1,3.7,1.9
		c6.9,5.4,15.2,8.3,23.4,11.3c7.2,2.6,14.8,3.4,22.3,4.6c4.5,0.8,9.2,0.9,13.7,0.5c6.2-0.5,12.3-1.9,18.5-2.8
		c7.6-1,14.8-3.5,21.7-6.6c7.9-3.6,15.6-7.8,22.4-13.3c10.2-8.2,18.7-17.7,25.3-28.8c12.3-20.7,15.8-42.6,11.9-65.7
		c-0.4-2.4-1.3-4.8-1.8-7.2c-1.4-6.5-2.7-12.9-4-19.4c0.2-0.3,0.7-0.7,0.7-1c-0.6-2.3-1.3-4.6-2.1-6.9c-1-0.9-2.1-1.7-2.9-2.8
		c-3.4-4.2-7-8.3-12-10.9c-0.2,0.4-0.4,0.7-0.6,1.1l0,0c0.2-0.4,0.4-0.7,0.6-1.1c-0.2-0.1-0.4-0.2-0.6-0.4l0,0
		c-0.3,0.2-0.6,0.5-0.8,0.7l0,0c-0.2-0.4-0.4-0.7-0.5-1.1c0.2,0.4,0.4,0.7,0.5,1.1l0,0c0.3-0.2,0.6-0.5,0.8-0.7l0,0
		c0.2,0.2,0.4,0.3,0.6,0.4c5,2.7,8.6,6.7,12,10.9c0.8,1,1.9,1.8,2.9,2.8c-0.4-1.1-0.9-2.1-1.3-3.2c-3.4-5.1-8-9.2-13.2-12.7
		c-1.7-1-3.5-2-5.2-2.9l0,0c1.7,1,3.5,2,5.2,2.9c0.3-0.3,0.5-0.6,0.8-0.9l0,0l0,0c-0.3,0.3-0.5,0.6-0.8,0.9
		c5.2,3.5,9.7,7.6,13.2,12.7c-0.6-2-1.2-4-1.8-6l0,0c-0.5-1.5-1.1-3-1.6-4.5c-4.8-4.1-10.4-6.7-16.5-8.5c-0.9-0.3-1.8-0.8-2.6-1.2
		c-0.1,0-0.1,0-0.2,0v-0.2c0.1,0,0.1,0,0.2,0l-0.1,0.1c0.9,0.4,1.7,0.9,2.6,1.2c6.1,1.8,11.7,4.4,16.5,8.5c-0.2-1.2-0.4-2.5-0.7-3.7
		l0,0c-0.4-0.9-0.8-1.7-1.3-2.6c-4.5-3.7-10.1-4.9-15.7-6c-3.1-0.6-6.2-0.8-9.3-1.3c-1.6-0.3-3.2-1-4.7-1.5c-1-0.4-2.1-0.8-3.1-1.4
		c-6.7-4.2-14-7.1-21.7-9.5c-10.2-3.2-20.7-4.4-31.4-4.8c0.8-0.4,1.6-0.9,2.5-1.1c2.6-0.5,5.3-0.9,7.9-1.4c-0.2-0.8-0.3-1.7-0.5-2.5
		c0.2,0.8,0.3,1.7,0.5,2.5l74.9-11.8c0.5,3,1.8,9.9,1.8,9.9l4.8,30.7c0,0,0.7,4.3,1.1,6.8c2-0.3,3.6-0.6,5.1-0.8
		c15.8-2.5,31.6-4.9,47.4-7.3l7.8,49.2l50.1-7.9l15.2,96l102.2-16.2l-3-19.3l39.4-6.2l-2.8-17.4l0,0c0.7,0,1.5,0.1,2.2-0.1
		c14.9-2.3,29.8-4.7,44.7-7.1c0.5-0.1,1-0.4,1.8-0.7l-2.5-15.9c-0.3-1.5-0.7-2.9-0.9-4.4c-2.8-17.6-5.6-35.1-8.3-52.7l-0.8-4.8
		l-71.7,11.3l-5.6-35.2l-16.4,2.6l-6.9-43.6l0,0l6.9,43.6l16.4-2.6l5.6,35.2l71.7-11.3l0.8,4.8c2.8,17.6,5.6,35.1,8.3,52.7
		c0.2,1.5,0.6,3,0.9,4.4l0,0l57.4-9.1l-2.3-14.7c0.4,0,0.9,0,1.3-0.1c21.3-3.4,42.5-6.7,63.8-10.1c0.8-0.1,1.6-0.5,2.8-0.9
		l-1.9-11.9c27.1-4.3,54.2-8.7,81.4-13c-0.5-3.1-1-5.5-1.2-8c-0.1-1,0.4-2,0.7-3l0,0c1.6-0.3,3.1-0.6,4.7-0.9
		c29.2-4.6,58.5-9.3,87.8-13.9l5.1-0.8l-1.6-10.2c-0.3-1.5-0.7-2.9-0.9-4.4c-0.8-4.7-1.5-9.4-2.2-14.1c0.7,4.7,1.5,9.4,2.2,14.1
		c0.2,1.5,0.6,3,0.9,4.4c9.8-1.5,19.5-3.1,29.3-4.6s19.5-3.1,29.3-4.6s19.5-3.1,29.2-4.6c9.7-1.6,19.4-2.9,29.3-4.7L1769.8,172.1
		c-0.6-2.8-1.2-5.6-1.7-8.5C1768.6,166.5,1769.3,169.3,1769.8,172.1L1769.8,172.1z M1894.1,50.8c-1.8,1-3.7,2-5.6,3
		C1890.4,52.9,1892.2,51.9,1894.1,50.8z M1041.5,122.4c0.5-0.9,1-1.6,1.3-2.2l0,0C1042.4,120.8,1042,121.5,1041.5,122.4z
		 M1065.2,101.5c-5.2,3.7-9.9,2.3-14.9,0.3c-2.8-1.1-5.4-2.4-7.9-3.8c2.5,1.4,5.1,2.7,7.9,3.8C1055.3,103.8,1060,105.2,1065.2,101.5
		c2.3-1.6,5.4-2.2,8.5-3.5l0,0C1070.6,99.2,1067.5,99.8,1065.2,101.5z M490,314.5c-8.8,4.2-17.4,9.1-25.7,14.2
		c-0.6,0.3-1.1,0.7-1.6,1.1c0.5-0.4,1.1-0.7,1.6-1.1C472.6,323.6,481.2,318.7,490,314.5c7.6-3.6,15.3-6.8,23.1-9.8
		C505.3,307.7,497.6,310.9,490,314.5z M527.6,284.2c-31.3,5.9-62.7,11.6-94,17.8c-19.4,3.8-38.8,8-58.1,12.4
		c-22,5.1-43.9,10.3-65.7,16c-20.5,5.4-40.9,11.2-61.2,17.4c-15.5,4.7-30.9,10.2-45.2,17.9c-3.9,2.1-7.7,4.6-11,7.5
		c-1.8,1.5-2.8,3.1-3.1,4.6c0.3-1.5,1.3-3.1,3.1-4.6c3.3-2.9,7.1-5.4,11-7.5c14.3-7.7,29.7-13.1,45.2-17.9
		c20.3-6.2,40.7-12,61.2-17.4c21.8-5.7,43.7-10.9,65.7-16c19.3-4.4,38.6-8.6,58.1-12.4C464.9,295.9,496.3,290.1,527.6,284.2
		c1.6-0.3,3.3-0.5,4.9-0.8l0,0C530.9,283.7,529.2,283.9,527.6,284.2z M746,249c1.1-0.2,2.1-0.5,3.2-0.8l0,0
		C748.1,248.5,747.1,248.8,746,249c-4.5,0.8-9,1.5-13.4,2.3C737.1,250.5,741.5,249.8,746,249z M714.4,188.5L714.4,188.5l-16.4,2.6
		L714.4,188.5z M682.9,259.8c-6.2,1.1-12.3,2.4-18.4,3.7C670.6,262.2,676.7,260.9,682.9,259.8z M658.7,264.7
		c-0.6,0.1-1.2,0.3-1.9,0.4C657.4,265.1,658,264.9,658.7,264.7z M617.1,274.1c-6.7,1.7-13.4,3.3-20.1,5
		C603.7,277.4,610.4,275.8,617.1,274.1c2-0.5,3.9-1.5,5.9-2C621,272.5,619.1,273.6,617.1,274.1z M625.7,271.6
		c5.5-1,11.2-1.8,16.5-3.4C636.8,269.8,631.2,270.5,625.7,271.6z M761.9,249.8c-32.3,8.9-63.8,19.6-92.7,36.5
		c-10.1,5.9-19.8,12.5-27.3,21.4c-3.2,3.7-5.9,8-7.8,12.4c-1.3,2.9-1.9,5.8-1.8,8.6c-0.1-2.8,0.5-5.6,1.8-8.6
		c1.9-4.4,4.6-8.7,7.8-12.4c7.5-8.9,17.2-15.5,27.3-21.4C698.1,269.4,729.6,258.6,761.9,249.8c6.4-1.8,12.9-3.4,19.3-5l0,0
		C774.8,246.4,768.4,248,761.9,249.8z M1050.8,278.4L1050.8,278.4c-2.7-5.3-5.4-10.7-8.2-16l0,0C1045.3,267.7,1048,273,1050.8,278.4
		z M1042.8,262.1L1042.8,262.1c-0.9-1.1-1.8-2.2-2.7-3.3l0,0C1041,259.9,1041.9,261,1042.8,262.1z M1039.2,257.6L1039.2,257.6
		c0-0.1-0.1-0.1-0.1-0.1S1039.1,257.6,1039.2,257.6z M1038.8,256.9c0.1,0.3,0.2,0.4,0.3,0.6c-0.2-0.4-0.6-0.8-0.8-0.7l0,0
		C1038.5,256.6,1038.6,257,1038.8,256.9z M1030.8,246.2c-0.2,0.2-0.4,0.4-0.6,0.6C1030.4,246.6,1030.6,246.4,1030.8,246.2
		c-1.2-1-2.4-2-3.8-3.3l0,0C1028.5,244.2,1029.7,245.2,1030.8,246.2z M1029.3,242.2c-0.1,0.2-0.2,0.3-0.3,0.5
		C1029.1,242.5,1029.2,242.4,1029.3,242.2c-2-0.8-3.9-2.4-6.6-1.6l0,0C1025.4,239.8,1027.2,241.3,1029.3,242.2z M1022.6,237.8
		c0.1,0,0.3,0.1,0.4,0.1C1022.8,237.8,1022.7,237.8,1022.6,237.8L1022.6,237.8z M1022.5,238.4L1022.5,238.4L1022.5,238.4
		C1022.4,238.4,1022.5,238.4,1022.5,238.4z M821.6,138.1L821.6,138.1l50.2-8l0,0L821.6,138.1z M849.5,183.4L849.5,183.4l-6.1-38.7
		l0,0L849.5,183.4z M924.4,221.9c-8.6,1-17.1,1.5-25.3,4.2c-10.3,3.3-20.4,6.8-29.9,11.8c-20,10.4-37,24-48.2,43.2
		c-12.3,21-14.5,42.4-4.6,63.7c-9.9-21.4-7.7-42.8,4.6-63.7c11.3-19.1,28.2-32.8,48.2-43.2c9.5-4.9,19.6-8.5,29.9-11.8
		C907.4,223.4,915.9,223,924.4,221.9L924.4,221.9z M945.2,217.9c0-0.1-0.1-0.2-0.1-0.3C945.1,217.7,945.1,217.8,945.2,217.9
		L945.2,217.9z M945.8,181.3c0.2,1.1,0.3,2.2,0.5,3.3l5,31.4c-2.4,0.6-4.3,1-6.3,1.5l0,0c1.9-0.5,3.9-0.9,6.3-1.5l-5-31.4l-11.9,1.9
		l-0.5-3.3c-0.2-0.9-0.4-2.1-0.7-3.1l0,0c0.2,1,0.5,2.2,0.7,3.1C937.9,182.6,941.8,181.9,945.8,181.3c-0.2-1-0.3-2.1-0.5-3.1l0,0
		c4.8-0.8,9.7-1.6,14.5-2.4c0.2,1.1,0.3,2.1,0.5,3.2l0,0C955.6,179.7,950.7,180.5,945.8,181.3z M933.3,180.1c3.9-1,8-1.4,12-1.9
		C941.3,178.7,937.3,179.2,933.3,180.1z M988.7,209.3c-2.2-14-4.5-28-6.8-42c-3.5,0.5-7.1,1.1-10.6,1.6c0.3,1.6,0.5,3.3,0.8,4.9
		c0.3,1.3,0.7,2.6,0.9,4c1.6,10.1,3.2,20.1,4.8,30.2l0.7,4.2l0,0l-0.7-4.2c-1.6-10.1-3.2-20.1-4.8-30.2c-0.2-1.3-0.6-2.7-0.9-4
		c-4,0.6-8,1.2-12.1,1.8c-0.3-1.6-0.7-3.2-1-4.8l0,0l0,0c4.1-0.7,8.2-1.3,12.3-2c-0.2-1.4-0.5-2.8-0.7-4.2
		c-11.8,1.8-23.5,3.6-35.3,5.3c-1.1,0.2-2.2,0.3-3.4,0.5l0.7,4.5l0,0l-0.7-4.5c1.2-0.2,2.3-0.4,3.4-0.5c11.8-1.8,23.5-3.6,35.3-5.3
		l10.6-1.7l0.7,4.3C984.2,181.3,986.4,195.3,988.7,209.3c0,0.1,0,0.2,0,0.3C988.7,209.4,988.7,209.3,988.7,209.3z M1243.3,168.8
		c0.3,0.3,0.5,0.6,1,1.2l0,0C1243.8,169.5,1243.6,169.2,1243.3,168.8L1243.3,168.8z M1229,85.1c3,0.3,4.9-0.6,6.3-2.4
		C1233.9,84.6,1232,85.4,1229,85.1c-4.6-0.4-9.4-0.4-14.7,1.1l0,0C1219.6,84.8,1224.3,84.7,1229,85.1z M1240.4,131
		c0-0.6,0-1.2,0.1-1.8C1240.4,129.8,1240.4,130.4,1240.4,131c-0.9,19.7-11.8,33.7-30.7,43.6l0,0
		C1228.6,164.7,1239.5,150.7,1240.4,131z M1173.5,177L1173.5,177c-5.3,1.9-10.1,3.6-14.9,5.3l0,0
		C1163.4,180.6,1168.2,178.9,1173.5,177z M1150.7,96.5L1150.7,96.5c-1.2,0.1-2,0.5-2.8,0.9C1148.6,96.9,1149.5,96.6,1150.7,96.5z
		 M1150.4,96.9c-0.4,0.6-0.7,1.1-1.1,1.7c-1.9,2.9-3.8,5.8-5.8,8.6c1.9-2.9,3.8-5.7,5.8-8.6C1149.7,98,1150,97.5,1150.4,96.9z
		 M1138.3,37.1c0.8,1.1,1.6,2.2,2.3,3.4C1139.8,39.4,1139.1,38.2,1138.3,37.1C1138.2,37.1,1138.2,37.1,1138.3,37.1
		C1138.2,37.1,1138.2,37.1,1138.3,37.1z M1133.4,104.6c3.6-1.8,7.3-3.6,10.9-5.5C1140.6,100.9,1137,102.8,1133.4,104.6
		c-4.4,2.2-8.9,3.2-13.7,1.3c-0.4-0.2-1-0.1-2.3-0.2l0,0c1.4,0.1,1.9,0,2.3,0.2C1124.4,107.8,1129,106.7,1133.4,104.6z
		 M1136.5,223.2c0.2,1.3,0.4,2.6,0.6,3.9l0,0c-4.9,0.8-9.7,1.6-14.6,2.4c-0.1-1.3-0.3-2.7-0.4-4
		C1126.9,224.7,1131.7,223.9,1136.5,223.2z M1135.8,218.7l12.6-2l0.7,4.3c0.3,1.2,0.5,2.4,0.9,4l0,0c-0.4-1.6-0.6-2.8-0.9-3.9
		c-4.2,0.7-8.4,1.4-12.6,2.1C1136.3,221.7,1136,220.2,1135.8,218.7L1135.8,218.7z M1131,188c-4.9,1.1-9.5,2.1-14.3,3.2l0,0
		C1121.5,190.1,1126.1,189.1,1131,188l0.2,1L1131,188z M1106.8,190.6c-1,0.5-1.4,0.6-1.8,0.7
		C1105.6,191.1,1106.2,190.9,1106.8,190.6c20.2-9.3,30.7-24.5,31.4-45.7c0-0.4,0.1-0.8,0.2-1.7c1.4,3.5,2.9,6.8,4.7,10
		c-1.8-3.2-3.3-6.5-4.7-10c-0.1,0.9-0.1,1.3-0.2,1.7C1137.5,166.1,1127,181.3,1106.8,190.6z M1136.6,130c1-4.7,1.9-9.4,2.8-14.1
		C1138.6,120.5,1137.6,125.2,1136.6,130z M1085.5,95.9c14.5-4.5,25.3-13,31.9-25.7c7.8-15,7.5-30.1-0.3-44.9
		c-0.2-0.3-0.3-0.6-0.5-0.9c0.2,0.3,0.3,0.6,0.5,0.9c7.8,14.8,8.1,29.8,0.3,44.9C1110.8,83,1100,91.4,1085.5,95.9L1085.5,95.9z
		 M1101.9,192.2c-1.2,0.4-1.9,0.6-2.6,0.9c0.3-0.2,0.7-0.3,1.3-0.5C1101.1,192.4,1101.5,192.3,1101.9,192.2z M1095.9,194.1
		c-0.4,0.2-0.7,0.2-0.9,0.3C1095.3,194.2,1095.6,194.1,1095.9,194.1z M1094.2,194.8L1094.2,194.8c0.1-0.1,0.1-0.1,0.2-0.2
		C1094.4,194.7,1094.3,194.7,1094.2,194.8z M1151,233.7l-0.7-4.4l-27,4.3c-4.1,0.7-8.2,1.3-12.3,2c0.2,1.5,0.4,3,0.6,4.6
		c-3.4,0.6-6.8,1.3-10.2,1.9c-0.2-1.6-0.4-3.2-0.5-4.8l-6-37.7l6,37.7l0,0c3.4-0.6,6.7-1.1,10.1-1.7c-0.2-1.4-0.4-2.7-0.6-4.1
		l-6.1-38.6l0,0l6.1,38.6c4-0.6,8-1.2,12-1.8c0.3,1.3,0.6,2.6,0.9,3.9l27-4.3L1151,233.7L1151,233.7z M1186.4,179L1186.4,179
		l-52.9,8.4l0,0L1186.4,179L1186.4,179z M1199.6,80.3c-7.1,0.4-13.8,0.1-20.3,1.4c-3.4,0.6-6.7,1.7-9.9,2.8c3.2-1.1,6.5-2.2,9.9-2.8
		C1185.7,80.5,1192.5,80.7,1199.6,80.3c2.1-2.4,3.1-5.7,3.1-9C1202.7,74.7,1201.6,77.9,1199.6,80.3z M1298.9,250.3
		c0.3,1,0.7,1.8,0.8,2.5c3.5,22.1,7,44.1,10.5,66.2c0,0.2,0,0.4,0,0.6c0-0.2,0-0.4,0-0.6c-3.5-22.1-7-44.1-10.5-66.2
		C1299.6,252.1,1299.3,251.4,1298.9,250.3l-59.5,9.4l-6.1-38.3l-29.8,4.7l0,0l29.8-4.7l6.1,38.3L1298.9,250.3z M1279.5,114.7
		c-3.2-9.6-10.1-16.4-19-21.5c-2.4-1.4-5-2.5-7.9-3.9l0,0c2.9,1.4,5.4,2.5,7.9,3.9C1269.4,98.3,1276.3,105.1,1279.5,114.7
		c1.2,3.6,1.8,7.1,1.8,10.5C1281.2,121.8,1280.7,118.3,1279.5,114.7z M1666.2,101c-7.4,1.7-14.7,3.4-22.1,5.1l0,0
		C1651.4,104.4,1658.8,102.7,1666.2,101z M1489.3,79c3.5,0.2,6.8,0.3,10.1,0.5c9.7,0.7,19.4,1.5,28.5,4.6c3.5,1.2,6.9,2.9,9.8,5.1
		c2.1,1.5,3.1,3.4,3.2,5.4c-0.1-2-1.1-3.8-3.2-5.4c-2.9-2.1-6.3-3.9-9.8-5.1c-9.2-3.2-18.9-4-28.5-4.6
		C1496.1,79.3,1492.8,79.2,1489.3,79L1489.3,79z M1459.1,67.6c2.2,0.5,4.8,1,5.3,3.5C1463.9,68.6,1461.3,68,1459.1,67.6
		c-1.5-0.3-3-0.6-4.6-0.9C1456.1,67,1457.6,67.2,1459.1,67.6z M1445.4,81.1c5.5-0.5,10.6-1.5,15.1-4.8c1.7-1.2,4-2.4,3.9-4.6
		c0.1,2.2-2.2,3.4-3.9,4.6C1456.1,79.5,1450.9,80.6,1445.4,81.1c-10.1,0.8-20.1,2.2-30.1,3.9l0,0
		C1425.3,83.2,1435.4,81.9,1445.4,81.1z M1447,92.4c-0.4-0.2-0.8-0.4-1.2-0.5c-2-0.6-4-1.2-6-1.7c2,0.6,4,1.2,6,1.7
		C1446.2,92,1446.6,92.2,1447,92.4z M1428.7,131.6c8.7-4,17-8.6,23.6-15.6c8-8.6,6.8-16.9-3.4-22.6c-0.4-0.2-0.8-0.5-1.3-0.7
		c0.4,0.2,0.9,0.5,1.3,0.7c10.2,5.7,11.4,14.1,3.4,22.6C1445.7,123,1437.3,127.6,1428.7,131.6c-13.6,6.3-27.7,10.9-42.3,14.4
		c-0.7,0.2-1.4,0.3-2,1l0,0c0.6-0.7,1.3-0.8,2-1C1400.9,142.6,1415.1,137.9,1428.7,131.6z M1385.5,106.1L1385.5,106.1L1385.5,106.1
		L1385.5,106.1z M1349.8,88.4c4,0.9,7.8,1.6,11.5,2.5c1.5,0.4,3.6,0.2,4.3,2.2c0.1,0.2,0.7,0.5,1,0.5c6.7,0,11.4,3.8,16.1,7.5
		c1.2,0.9,3,1.8,3.1,3.6c-0.1-1.8-1.9-2.7-3.1-3.6c-4.7-3.6-9.4-7.5-16.1-7.5c-0.3,0-0.9-0.2-1-0.5c-0.7-2.1-2.7-1.8-4.3-2.2
		C1357.6,90,1353.8,89.3,1349.8,88.4L1349.8,88.4z M1312.7,88.6c-4.1-0.4-7.8-0.2-12.1,0.7l0,0C1304.9,88.4,1308.6,88.1,1312.7,88.6
		z M1308.2,94.1c-1.8-0.8-3.8-1.3-5.5-2.2c-0.8-0.4-1.2-1.4-2-2.6c0.9,1.2,1.3,2.2,2.1,2.6C1304.4,92.8,1306.4,93.4,1308.2,94.1z
		 M1327.2,132.4c-3,5.8-7.8,10.4-12.7,14.7c-2.1,1.8-4.1,3.9-6.6,5.1c-7.1,3.6-14.4,6.8-22.6,10.5l0,0c8.2-3.8,15.5-7,22.6-10.5
		c2.5-1.2,4.5-3.3,6.6-5.1C1319.5,142.8,1324.2,138.3,1327.2,132.4c2.1-4,3.1-7.9,3.2-11.7C1330.4,124.5,1329.3,128.5,1327.2,132.4z
		 M1328.9,84c-1.5,1.5-3.3,2.7-4.8,4c-3.7-0.8-7.2-1.2-9.6,0.8l0,0c2.4-2,5.9-1.6,9.6-0.8C1325.6,86.7,1327.4,85.5,1328.9,84
		c5.2-5,4.5-9.2-2.1-12.4c-0.7-0.4-1.5-0.7-2.3-1c0.8,0.3,1.5,0.6,2.3,1C1333.4,74.8,1334.1,78.9,1328.9,84z M1476.4,245.3
		c-0.5-3.4-1.1-6.8-1.6-10.3C1475.3,238.5,1475.9,241.9,1476.4,245.3c0.2,1.5,0.7,2.9,1,4.3C1477.1,248.2,1476.6,246.8,1476.4,245.3
		z M1427,199.1l-4.1-25.6l-27.6,4.4l-4.9-31.1c-9.8,1.6-19.3,3.1-28.8,4.5c-9.4,1.4-18.7,3.3-29.2,3.9l0,0
		c10.5-0.6,19.8-2.4,29.2-3.9c9.5-1.4,19-3,28.8-4.5l4.9,31.1l27.6-4.4L1427,199.1l123.1-19.5l0,0L1427,199.1z M1557,221.5
		c-0.5-3.1-1-6.2-1.5-9.3C1556,215.3,1556.5,218.4,1557,221.5c0,0.2,0.1,0.4,0.1,0.6C1557.1,221.8,1557,221.6,1557,221.5z
		 M1583.9,142.5l-39.6,6.3L1583.9,142.5l3.3,21L1583.9,142.5z M1638.2,86.3c-2.5,2.6-5.5,5-8.7,6.9c-9.8,5.9-20.6,9.8-31.5,13.4
		c-18.2,6-36.8,10.7-55.5,14.9c-25.3,5.7-50.9,9.3-76.5,13.1c-2.3,0.3-4.6,0.5-6.9,0.3l0,0c2.3,0.1,4.6,0,6.9-0.3
		c25.6-3.7,51.2-7.4,76.5-13.1c18.7-4.2,37.3-8.9,55.5-14.9c10.9-3.6,21.7-7.5,31.5-13.4C1632.6,91.3,1635.7,88.9,1638.2,86.3
		c1.8-1.9,2.4-3.9,1.9-5.7C1640.6,82.4,1640,84.4,1638.2,86.3z M1648.1,162.8c-0.1-1-0.3-1.9-0.5-3.1
		C1647.8,160.9,1648,161.8,1648.1,162.8c0.8,4.7,1.5,9.4,2.2,14.1C1649.6,172.2,1648.9,167.5,1648.1,162.8z M1641.3,130.9
		L1641.3,130.9l47.9-7.6L1641.3,130.9z M1737.3,80.3c-21.2,8.5-43.4,14.1-65.6,19.4C1693.9,94.4,1716,88.8,1737.3,80.3
		c2.1-0.8,4.1-1.8,6.1-2.7C1741.4,78.5,1739.4,79.5,1737.3,80.3z M1775.2,85.1c0.5-0.2,1-0.3,1.5-0.5
		C1776.2,84.7,1775.7,84.9,1775.2,85.1c-0.2,0.1-0.5,0.2-0.7,0.3C1774.7,85.2,1775,85.1,1775.2,85.1z M1750.9,73.5
		c0.7-0.4,1.4-0.8,2.2-1.2c0.9-0.5,1.9-1.1,2.8-1.8c-0.8,0.7-1.8,1.3-2.8,1.9C1752.4,72.7,1751.7,73.1,1750.9,73.5z M1764.4,140
		c-0.2-1-0.3-2-0.5-3.2C1764.1,138,1764.2,139,1764.4,140c0.5,3.2,1,6.4,1.5,9.6C1765.4,146.3,1764.9,143.1,1764.4,140z"/>
	<path class="st0" d="M183.3,337.9c-0.9-4.8-1.7-9.6-2.6-14.4c-0.3-1.5-0.6-2.9-0.9-4.4L11.4,345.8l3,18.8L183.3,337.9L183.3,337.9z
		"/>
	<path class="st0" d="M1038.2,236.8c-5.3-2.5-11-3.1-16.7-3.7c-3.1-0.3-6.3-0.1-9.4-0.1c1.6,0.5,3.1,1.2,4.7,1.5
		c3.1,0.6,6.3,0.7,9.3,1.3c5.6,1.1,11.2,2.3,15.7,6C1041.9,239.2,1040.6,237.8,1038.2,236.8z"/>
	<path class="st0" d="M1047.2,258.5L1047.2,258.5L1047.2,258.5z"/>
	<path class="st0" d="M971.3,168.9L971.3,168.9L971.3,168.9L971.3,168.9z"/>
	<path class="st0" d="M1111,235.6L1111,235.6L1111,235.6L1111,235.6L1111,235.6L1111,235.6L1111,235.6z"/>
	<path class="st0" d="M971.3,168.9L971.3,168.9L971.3,168.9L971.3,168.9z"/>
	<path class="st0" d="M945.8,181.3L945.8,181.3L945.8,181.3L945.8,181.3L945.8,181.3L945.8,181.3L945.8,181.3z"/>
</g>
</svg>
