<svg width="1101" height="362" viewBox="0 0 1101 362" fill="none" xmlns="http://www.w3.org/2000/svg">
<g clip-path="url(#clip0_3131_127619)">
<path d="M900.689 -215.51C900.722 -213.77 900.755 -212.029 900.782 -210.287C900.83 -207.41 900.877 -204.539 900.96 -201.662C901.007 -199.682 901.101 -197.712 901.202 -195.633C901.239 -194.832 901.281 -194.012 901.319 -193.17L901.33 -192.841L942.607 -193.857L942.601 -194.195C942.569 -195.514 942.539 -196.793 942.508 -198.044C942.455 -200.022 942.406 -201.939 942.371 -203.859C942.338 -205.427 942.319 -206.998 942.294 -208.561C942.258 -211.033 942.215 -213.504 942.153 -215.971C942.123 -217.215 942.065 -218.46 942.008 -219.706C941.942 -221.129 941.873 -222.6 941.852 -224.039C941.811 -226.469 941.816 -228.943 941.824 -231.334L941.832 -233.49C942.688 -233.559 943.552 -233.623 944.408 -233.692C946.531 -233.851 948.729 -234.018 950.883 -234.259C954.024 -234.609 957.209 -235.017 960.287 -235.403C962.429 -235.676 964.571 -235.942 966.708 -236.2C968.044 -236.359 969.384 -236.498 970.723 -236.637C972.056 -236.774 973.389 -236.912 974.718 -237.069C975.405 -237.153 976.073 -237.301 976.774 -237.456C977.099 -237.522 977.428 -237.602 977.767 -237.67L978.072 -237.732L978.037 -238.043C977.165 -245.754 976.305 -253.378 975.443 -260.975L973.893 -274.724L978.585 -275.67C982.328 -276.425 986.078 -277.181 989.824 -277.923C994.457 -278.85 999.087 -279.763 1003.72 -280.684L1010.16 -281.961L1001 -327.363L1000.62 -327.189C1000.49 -327.135 1000.36 -327.069 1000.24 -327.002C999.988 -326.875 999.757 -326.753 999.531 -326.707C985.816 -323.928 972.104 -321.163 958.39 -318.411C958.045 -318.341 957.693 -318.305 957.254 -318.258C957.105 -318.242 956.95 -318.224 956.78 -318.21L956.219 -320.991C956.824 -321.072 957.429 -321.159 958.026 -321.245C959.677 -321.481 961.39 -321.723 963.076 -321.891C964.661 -322.044 966.513 -322.28 968.275 -322.822L968.542 -322.903L968.515 -323.174C968.46 -323.757 968.414 -324.328 968.365 -324.877C968.253 -326.153 968.147 -327.361 968.008 -328.563C967.325 -334.62 966.614 -340.886 965.873 -347.063C965.532 -349.95 965.172 -352.834 964.81 -355.724C964.502 -358.176 964.201 -360.629 963.906 -363.083C963.854 -363.48 963.874 -363.892 963.896 -364.332C963.904 -364.533 963.918 -364.737 963.919 -364.937L963.918 -365.013C972.439 -366.731 980.952 -368.462 989.471 -370.193C990.287 -370.358 991.09 -370.589 991.906 -370.788L983.057 -414.67L938.803 -405.746C938.87 -405.242 938.877 -404.932 938.937 -404.634C941.69 -391.016 944.45 -377.4 947.203 -363.783L947.183 -363.779C947.103 -363.763 947.02 -363.732 946.942 -363.71C946.785 -363.664 946.628 -363.619 946.486 -363.604L944.629 -363.395C941.01 -362.983 937.383 -362.576 933.752 -362.19C932.69 -362.079 931.632 -361.983 930.573 -361.894C929.541 -361.803 928.502 -361.718 927.468 -361.606C926 -361.455 924.53 -361.276 923.001 -361.085L920.581 -360.79L920.613 -360.458C920.706 -359.586 920.787 -358.808 920.858 -358.077L921.035 -356.379L921.039 -356.359C920.333 -356.23 919.624 -356.115 918.921 -355.973C913.831 -354.975 908.737 -353.968 903.649 -352.963L903.621 -353.275C903.601 -353.547 903.579 -353.826 903.523 -354.104C900.728 -367.962 897.934 -381.819 895.139 -395.677C895.091 -395.916 895.024 -396.144 894.955 -396.386C894.915 -396.516 894.881 -396.647 894.847 -396.785L894.764 -397.093L850.118 -388.09L857.027 -353.831L854.206 -353.469C851.782 -353.16 849.358 -352.851 846.938 -352.556C845.394 -352.369 843.854 -352.197 842.309 -352.016C840.871 -351.851 839.432 -351.692 837.989 -351.518C837.523 -351.466 837.068 -351.36 836.585 -351.256C836.352 -351.209 836.101 -351.151 835.843 -351.099L835.537 -351.038L835.885 -348.013C836.103 -346.11 836.312 -344.287 836.512 -342.47C836.7 -340.753 836.882 -339.029 837.062 -337.311C837.301 -335.031 837.546 -332.753 837.805 -330.478C837.925 -329.438 838.059 -328.395 838.2 -327.353C838.357 -326.197 838.516 -324.999 838.644 -323.816C838.908 -321.411 839.134 -318.956 839.357 -316.584C839.435 -315.75 839.512 -314.923 839.59 -314.089C838.48 -314.045 837.365 -313.993 836.255 -313.949C833.448 -313.825 830.545 -313.702 827.689 -313.616C825.74 -313.555 823.76 -313.542 821.836 -313.527C820.65 -313.516 819.465 -313.505 818.28 -313.487C818.06 -313.484 817.869 -313.404 817.679 -313.317C817.604 -313.281 817.527 -313.252 817.443 -313.221L817.236 -313.152L817.218 -312.934C817.206 -312.787 817.188 -312.638 817.175 -312.497C817.138 -312.165 817.105 -311.848 817.11 -311.517L817.157 -308.785C817.23 -304.448 817.311 -300.107 817.412 -295.769C817.525 -290.86 817.658 -285.956 817.784 -281.05L817.972 -273.85C817.74 -273.837 817.506 -273.832 817.274 -273.819C816.555 -273.785 815.81 -273.745 815.096 -273.795C813.864 -273.878 812.605 -273.99 811.394 -274.105C810.212 -274.212 809.029 -274.325 807.845 -274.404C804.946 -274.6 801.845 -274.776 798.085 -274.957C797.485 -274.988 796.873 -274.941 796.28 -274.904C796.001 -274.882 795.729 -274.862 795.447 -274.853L795.139 -274.84L795.125 -274.533C794.826 -268.892 794.45 -263.222 794.09 -257.748C793.619 -250.664 793.134 -243.342 792.819 -236.137L792.803 -235.802L793.133 -235.779C805.935 -234.969 818.423 -234.179 831.045 -233.375C830.99 -232.997 830.95 -232.713 830.916 -232.437C829.57 -232.366 828.201 -232.373 826.874 -232.375C824.381 -232.376 821.797 -232.38 819.299 -231.925L819.013 -231.867L819.251 -220.519L808.299 -219.036L810.755 -196.684L802.566 -197.36C802.691 -198.311 802.817 -199.261 802.935 -200.218C803.236 -202.53 803.547 -204.927 803.895 -207.276C804.441 -210.971 805.016 -214.665 805.583 -218.357C805.912 -220.495 806.247 -222.635 806.569 -224.771C806.763 -226.033 806.937 -227.297 807.119 -228.653C807.214 -229.315 807.303 -230.003 807.407 -230.721L807.45 -231.055L791.206 -233.518L790.225 -238.383L787.842 -237.902C786.946 -237.722 786.05 -237.541 785.149 -237.352C782.875 -236.88 780.522 -236.392 778.199 -235.992C777.185 -235.815 776.076 -235.903 775.01 -235.985L774.869 -235.998C773.999 -236.064 773.144 -236.195 772.245 -236.339C771.859 -236.399 771.474 -236.46 771.084 -236.512L770.813 -236.554L769.988 -234.24L702.28 -220.586L704.93 -207.445C704.93 -207.445 704.903 -207.44 704.89 -207.437C704.638 -207.386 704.402 -207.325 704.164 -207.304C702.39 -207.126 700.621 -206.963 698.846 -206.791C697.193 -206.631 695.532 -206.475 693.881 -206.308C691.721 -206.094 689.562 -205.872 687.399 -205.637C686.182 -205.508 684.961 -205.366 683.672 -205.216L681.619 -204.982L683.624 -188.396C683.531 -188.377 683.432 -188.357 683.338 -188.345C682.903 -188.271 682.496 -188.203 682.091 -188.19C680.95 -188.161 679.813 -188.152 678.675 -188.144C677.275 -188.131 675.82 -188.121 674.393 -188.074C672.251 -188.009 670.107 -187.922 667.963 -187.835C666.449 -187.771 664.936 -187.708 663.426 -187.659C663.227 -187.653 663.01 -187.699 662.737 -187.754C662.65 -187.772 662.556 -187.794 662.456 -187.808L657.646 -211.661L614.547 -202.97L605.674 -246.971L561.599 -238.083L559.06 -250.673C560.573 -250.674 562.085 -250.675 563.599 -250.67C563.994 -255.936 564.381 -261.139 564.77 -266.335C565.139 -266.251 565.51 -266.091 565.874 -266.102C568.937 -266.188 571.995 -266.3 575.056 -266.427C575.488 -266.445 575.907 -266.592 576.398 -266.691C576.382 -270.742 576.375 -274.753 576.36 -278.763C576.262 -279.904 576.107 -281.047 576.076 -282.194C575.969 -286.288 575.923 -290.382 575.831 -294.473C575.923 -290.382 575.977 -286.283 576.076 -282.194C576.107 -281.047 576.26 -279.91 576.36 -278.763C580.01 -279.23 583.658 -279.703 587.502 -280.195C587.176 -283.251 586.865 -286.096 586.56 -288.942L596.435 -290.934L587.587 -334.809L543.46 -325.911L544.96 -318.471C545.716 -318.492 546.475 -318.459 547.224 -318.547C549.893 -318.872 552.56 -319.278 555.234 -319.583C560.77 -320.216 566.315 -320.802 571.848 -321.414C574.842 -321.741 577.829 -322.102 580.82 -322.408C581.375 -322.464 581.947 -322.366 582.365 -322.347C581.947 -322.366 581.373 -322.471 580.82 -322.408C577.83 -322.095 574.835 -321.74 571.848 -321.414C566.308 -320.801 560.77 -320.216 555.234 -319.583C552.56 -319.278 549.9 -318.873 547.224 -318.547C546.475 -318.459 545.716 -318.492 544.96 -318.471C543.428 -318.259 541.898 -318.04 540.177 -317.803C540.657 -313.811 541.107 -310.11 541.55 -306.408C539.356 -306.325 537.17 -306.243 534.859 -306.157C534.963 -301.053 535.06 -296.155 535.165 -291.252C534.145 -291.239 533.127 -291.186 532.111 -291.223C530.721 -291.267 529.325 -291.372 527.885 -291.455C527.696 -290.989 527.46 -290.651 527.435 -290.301C527.26 -287.945 527.114 -285.588 526.982 -283.227C526.869 -281.187 526.776 -279.145 526.67 -277.107L526.597 -277.092C522.601 -276.39 518.562 -275.561 514.654 -274.766C512.544 -274.341 510.436 -273.902 508.323 -273.49L499.463 -317.425L454.997 -308.458L455.301 -304.652L453.231 -304.234L453.422 -296.744L450.109 -296.525L450.031 -295.1C449.986 -294.194 449.937 -293.306 449.881 -292.418L449.457 -285.205L445.768 -285.621L443.576 -271.249L440.356 -271.532L440.123 -270.766C440.023 -270.442 439.936 -270.155 439.868 -269.872C439.595 -268.726 439.33 -267.574 439.065 -266.423C438.494 -263.98 437.913 -261.453 437.293 -258.979C437.043 -257.99 436.697 -257.001 436.359 -256.042C436.236 -255.693 436.111 -255.35 435.995 -255.002L434.188 -255.501L434.055 -255.274C433.982 -255.155 433.914 -255.045 433.84 -254.933C433.676 -254.686 433.524 -254.448 433.434 -254.174C433.127 -253.263 432.829 -252.346 432.53 -251.43C432.219 -250.469 431.909 -249.509 431.584 -248.552C430.652 -245.809 429.706 -243.07 428.759 -240.33L427.644 -237.094C427.521 -237.021 427.383 -236.951 427.251 -236.884C426.814 -236.657 426.362 -236.428 426.164 -236.008C425.422 -234.449 424.739 -232.834 424.08 -231.271C423.763 -230.517 423.439 -229.761 423.113 -229.011C422.732 -228.126 422.335 -227.252 421.946 -226.372C421.29 -224.9 420.603 -223.373 419.978 -221.852C419.477 -220.639 419.026 -219.381 418.594 -218.168C418.412 -217.662 418.237 -217.164 418.049 -216.656L417.744 -216.077L417.479 -215.201L404.206 -190.361L405.827 -189.687C405.611 -189.319 405.402 -188.952 405.186 -188.584C404.598 -187.56 403.996 -186.506 403.348 -185.506C402.066 -183.541 400.767 -181.594 399.462 -179.639C398.576 -178.313 397.696 -176.989 396.817 -175.666C396.347 -174.949 395.904 -174.231 395.437 -173.467C395.224 -173.12 395.012 -172.767 394.786 -172.411L394.625 -172.15L397.302 -170.072L397.003 -168.645L396.683 -168.076C395.8 -166.599 394.695 -164.919 393.214 -163.564L390.239 -164.925L381.085 -148.189L378.953 -148.622L378.063 -147.351C377.499 -146.554 376.946 -145.766 376.41 -144.967L375.81 -144.072C373.847 -141.135 371.814 -138.1 369.851 -135.094C369.37 -134.361 368.954 -133.58 368.548 -132.821C368.372 -132.495 368.197 -132.163 368.013 -131.843L367.976 -131.822C367.891 -131.763 367.781 -131.692 367.692 -131.585C363.35 -126.095 359.009 -120.599 354.669 -115.097C353.899 -114.12 353.144 -113.139 352.361 -112.124L351.024 -110.397L352.339 -109.254C352.288 -109.161 352.231 -109.066 352.181 -108.973C351.973 -108.6 351.775 -108.249 351.515 -107.962C350.301 -106.619 349.023 -105.284 347.798 -103.994L346.932 -103.08C345.333 -101.39 343.725 -99.7051 342.134 -98.0375L339.529 -95.3021L342.555 -91.9755L328.563 -79.5398L332.816 -74.4785C332.816 -74.4785 332.775 -74.408 332.755 -74.3695C332.649 -74.1755 332.55 -73.9828 332.423 -73.8949C330.644 -72.5763 328.856 -71.2695 327.069 -69.9628C325.31 -68.6827 323.559 -67.3972 321.81 -66.1052C321.034 -65.5343 320.288 -64.9211 319.572 -64.3277C319.257 -64.0709 318.95 -63.8155 318.641 -63.5667L318.397 -63.3725L323.324 -56.2369L308.73 -47.1608L314.038 -38.2028L299.905 -30.9187L300.594 -29.4207C300.991 -28.5477 301.399 -27.656 301.826 -26.7684C302.609 -25.1445 303.405 -23.5298 304.2 -21.9152L305.03 -20.2316L291.755 -14.8196L296.475 -2.89043L284.592 0.928624L284.652 1.22727C284.729 1.60558 284.797 1.97858 284.856 2.33962C284.993 3.12015 285.125 3.84624 285.34 4.56952C286.042 6.92122 286.791 9.29808 287.512 11.6046L288.228 13.8912L277.643 16.0259L278.993 22.7224L272.083 18.3903C271.45 17.9929 270.816 17.589 270.16 17.1758L269.225 16.5837L263.197 25.5625C263.197 25.5625 263.161 25.5559 263.141 25.5599C263.043 25.5521 262.874 25.5378 262.833 25.5046C261.76 24.6367 260.699 23.7594 259.63 22.8768C258.322 21.8007 257.02 20.7233 255.702 19.6632C254.581 18.7634 253.455 17.9061 252.265 17.0065C251.736 16.609 251.204 16.1982 250.666 15.7888L250.404 15.5861L243.302 24.3116C243.302 24.3116 243.265 24.2984 243.244 24.2958C243.072 24.2336 242.91 24.1834 242.817 24.0986C241.904 23.233 240.995 22.3595 240.094 21.4846C239.219 20.6389 238.345 19.7998 237.465 18.962C236.721 18.2555 235.956 17.5742 235.171 16.8691C234.817 16.5537 234.462 16.2316 234.099 15.9042L233.861 15.6828L225.925 23.7272L219.415 16.6553L211.22 23.7573L207.004 18.6057L199.149 24.4511L199.092 24.1724L198.912 24.4435L196.611 21.2194L189.168 25.6833L187.804 24.5011L181.028 28.3333L180.486 28.4563L178.919 29.1107C178.637 29.2506 178.362 29.3957 178.081 29.5422C177.493 29.8472 176.882 30.1709 176.267 30.4122C174.5 31.1001 172.724 31.7828 170.947 32.4588C168.563 33.3748 166.177 34.2841 163.804 35.2253C163.453 35.3653 163.275 35.7188 163.097 36.0656C163.046 36.1587 163.003 36.2503 162.951 36.3367L158.104 38.3985L158.448 40.1042L155 41.0896L155.583 43.9832L153.959 44.5249L153.989 47.3782L153.429 47.6154L150.96 43.3546L150.7 43.4346C150.552 43.4853 150.389 43.5321 150.219 43.5801C149.809 43.7043 149.339 43.8405 148.892 44.0204C148.091 44.3337 147.297 44.6736 146.502 45.0134L145.841 45.2986L144.463 42.7794L140.905 44.3532L140.033 43.3136L137.618 44.2841L134.663 44.9075C132.397 45.3852 130.138 45.8615 127.875 46.3178C126.163 46.6631 124.424 46.9793 122.738 47.2847C122.039 47.4119 121.346 47.5379 120.64 47.6665L120.409 47.6854L119.87 49.6381C119.814 49.7391 119.751 49.8348 119.689 49.9371C119.501 50.2375 119.299 50.5406 119.256 50.9084C119.192 51.3772 119.239 51.8512 119.282 52.3052C119.291 52.3862 119.3 52.4606 119.302 52.5429C118.546 52.6954 117.775 53.1893 117.747 54.6247C117.732 55.339 117.744 56.048 117.756 56.757L117.763 57.4116L116.19 57.7288L114.033 72.205L128.488 74.394L127.238 81.6563L120.256 82.0007L120.142 83.419L116.185 83.6298L115.841 86.4758L111.887 86.1541L109.637 101.126L124.625 103.325L125.311 100.009L130.479 100.19L131.087 101.324L137.366 100.058L139.063 105.531L152.751 107.612L150.696 121.639L165.035 123.9L163.734 132.278L159.276 132.231L158.38 137.067L148.533 135.675L144.255 164.461L144.205 164.796L158.665 166.977L158.685 166.973L156.33 180.709L142.128 178.641L139.844 192.356L139.78 192.445L138.232 192.239C136.863 192.059 135.501 191.878 134.135 191.684C132.257 191.413 130.377 191.129 128.483 190.848L125.756 190.445L125.205 192.538L124.834 190.7L123.561 190.653C122.822 190.622 122.085 190.598 121.351 190.553C119.002 190.412 116.644 190.259 114.293 190.111L111.761 189.952L111.676 188.298L96.6976 186.083L94.3278 201.217L108.685 203.432C108.457 204.908 108.271 206.382 108.082 207.808C107.674 210.957 107.289 213.943 106.553 216.971L92.2955 214.874L90.0599 230.091L90.3999 230.133C92.5965 230.408 94.752 230.754 96.8292 231.088C99.5545 231.519 102.124 231.933 104.768 232.201L105.065 232.231L105.13 231.942C105.667 229.637 105.984 227.335 106.289 225.119C106.628 222.654 106.951 220.317 107.549 217.972L121.277 219.949L120.751 221.243L119.236 221.161C117.979 221.097 116.717 221.034 115.462 220.942C113.703 220.82 111.956 220.682 110.117 220.535L107.295 220.309L106.378 236.449L122.565 237.432L122.385 235.134L123.6 235.2L123.953 243.251L140.596 242.864L140.598 238.872L141.196 238.924C141.403 240.257 141.543 241.568 141.676 242.847C141.939 245.349 142.194 247.708 142.895 250.019L142.976 250.285L159.45 248.476L159.506 248.244C159.934 246.389 159.538 244.736 159.153 243.135C159.102 242.917 159.046 242.707 159.002 242.488L159.213 242.474L162.343 257.997L180.429 254.35L180.362 254.018C180.269 253.56 180.18 253.115 180.099 252.683C179.911 251.712 179.74 250.8 179.516 249.893C179.283 248.945 178.996 248.001 178.723 247.09C178.639 246.81 178.556 246.536 178.472 246.256L182.477 245.946L180.26 246.835L185.767 264.966L203.989 259.738L201.405 250.417L201.154 250.405L201.46 250.344C205.702 249.46 209.944 248.577 214.183 247.681C214.469 247.623 214.714 247.47 214.956 247.332C215.06 247.269 215.165 247.207 215.271 247.151L215.497 247.036L215.446 246.784C215.376 246.439 215.308 246.1 215.243 245.775C215.098 245.058 214.948 244.384 214.838 243.702C214.577 242.132 214.335 240.557 214.087 238.984L213.838 237.37L216.55 236.333L219.335 246.753C218.117 247.219 216.888 247.667 215.661 248.122C212.216 249.397 208.654 250.709 205.138 252.316L204.847 252.451L212.377 271.466L231.478 263.953L227.215 253.224L232.783 251.652C232.945 251.633 233.144 251.662 233.351 251.696C233.921 251.782 234.868 251.922 235.124 250.593L235.143 250.444C236.698 249.971 238.252 249.492 239.841 249.013C239.635 247.991 239.505 247.174 239.309 246.378C238.802 244.339 238.273 242.298 237.745 240.264L238.513 239.964L239.098 239.68L241.979 238.657L243.969 243.387L244.537 245.041L244.531 245.042L246.577 250.666C243.687 251.884 240.867 253.35 238.135 254.765C236.634 255.544 235.083 256.347 233.531 257.109L233.223 257.261L242.802 276.574L262.099 267.019L261.196 265.143C260.639 263.992 260.126 262.921 259.613 261.85C258.762 260.06 257.909 258.264 257.065 256.473L256.525 255.338L263.622 256.18L264.631 251.01L268.007 249.597L265.965 241.804L269.712 239.867L271.267 239.872C271.468 240.287 271.67 240.709 271.878 241.123C272.383 242.153 272.909 243.222 273.366 244.29C273.862 245.447 274.475 246.566 275.059 247.65C276.059 249.493 277.091 251.391 277.575 253.483L265.219 261.189L277.07 280.466L296.428 268.709L287.766 254.391L289.779 253.377C292.13 252.192 294.479 251 296.822 249.809C297.311 249.559 297.789 249.296 298.324 249.002L299.437 248.391L298.828 247.118C298.507 246.451 298.218 245.839 297.934 245.22C297.647 244.58 297.385 243.935 297.117 243.292L296.875 242.705C297.594 242.298 298.297 241.845 298.975 241.405C300.312 240.534 301.686 239.642 303.244 239.114L304.33 240.87C305.211 242.295 306.062 243.671 306.894 245.057C308.341 247.472 309.775 249.891 311.21 252.315L312.885 255.141L311.332 256.241C308.003 258.605 304.56 261.053 301.265 263.755L301.015 263.958L301.206 264.216C302.213 265.581 303.212 266.94 304.202 268.288C307.868 273.281 311.327 277.998 315.026 282.743L315.231 283.006L315.493 282.801C318.163 280.764 320.876 278.808 323.498 276.911C326.976 274.394 330.574 271.79 334.016 269.065L334.272 268.861L333.255 267.45C332.706 266.677 332.206 265.977 331.688 265.294C331.037 264.43 330.381 263.575 329.727 262.726C328.697 261.387 327.63 260 326.617 258.608C325.598 257.219 324.601 255.769 323.641 254.367C323.281 253.846 322.927 253.323 322.566 252.802L333.784 245.822L331.783 242.199L338.466 237.157C338.538 237.204 338.603 237.253 338.667 237.296C338.892 237.451 339.075 237.572 339.182 237.724C340.41 239.396 341.633 241.076 342.848 242.751C344.281 244.721 345.714 246.69 347.161 248.657C348.293 250.197 349.473 251.734 350.615 253.217C351.13 253.886 351.637 254.551 352.151 255.22L352.169 255.238C348.432 258.56 344.703 261.882 340.877 265.278C346.289 271.39 351.583 277.367 357.02 283.509C363.165 278.119 369.191 272.829 375.335 267.439C370.185 261.626 365.213 256.012 360.242 250.405L360.262 250.401L360.307 250.316C361.602 248.072 363.703 247.02 365.644 247.637L365.843 247.701L365.992 247.546C366.795 246.7 367.597 245.848 368.394 245.004C370.26 243.025 372.182 240.98 374.126 239.006C375.158 237.962 376.276 236.963 377.361 236.006C377.777 235.639 378.192 235.265 378.602 234.899L393.473 251.826L394.197 251.203C394.391 251.033 394.538 250.906 394.68 250.788L400.524 245.963L401.01 246.832L383.592 265.09L383.826 265.326C387.877 269.42 392.018 273.309 396.023 277.073C398.153 279.075 400.276 281.071 402.374 283.086L402.621 283.319L420.531 264.589L420.375 264.365C420.258 264.195 420.168 264.054 420.086 263.926C419.935 263.687 419.814 263.497 419.649 263.33C417.969 261.68 416.058 259.807 414.159 257.993C413.091 256.979 412.024 255.965 410.95 254.959C408.724 252.86 406.422 250.692 404.219 248.498C404.027 248.302 403.793 248.135 403.569 247.98C402.948 247.539 402.407 247.151 402.485 246.237L405.394 243.744L409.658 246.939L409.863 246.759C409.998 246.642 410.124 246.548 410.237 246.456C410.481 246.262 410.696 246.094 410.872 245.872C413.472 242.633 416.069 239.382 418.661 236.138L422.252 231.649C422.605 231.958 422.964 232.266 423.323 232.573C424.3 233.412 425.304 234.28 426.269 235.163C428.066 236.81 429.86 238.514 431.595 240.167L432.398 240.93C433.62 242.093 434.837 243.263 436.044 244.422L437.809 246.117L444.243 240.04L446.98 242.548L430.32 263.506L451.941 280.75L469.196 259.147L448.14 242.238L450.312 239.825L457.553 244.429L457.737 244.177C457.851 244.023 457.973 243.874 458.094 243.719C458.351 243.384 458.62 243.039 458.865 242.679C459.665 241.475 460.465 240.271 461.257 239.061C462.602 237.029 463.987 234.926 465.377 232.878C466.475 231.268 467.627 229.654 468.749 228.095C469.187 227.489 469.624 226.883 470.053 226.271L485.508 238.556L486.16 237.817C486.436 237.506 486.655 237.255 486.879 236.995C487.838 235.863 488.791 234.731 489.744 233.6L490.507 232.693L496.565 236.465L498.498 235.122L508.616 240.568L520.638 218.501C520.699 218.496 520.796 218.497 520.81 218.494C523.669 220.377 525.854 221.828 527.909 223.217C528.717 223.765 529.52 224.321 530.323 224.878C531.191 225.483 532.057 226.082 532.929 226.673C533.569 227.103 534.228 227.495 534.92 227.915C535.25 228.111 535.581 228.314 535.928 228.527L536.196 228.694L539.111 224.618L542.341 225.465C542.713 225.632 543.085 225.799 543.464 225.964C545.124 226.693 546.836 227.446 548.364 228.512L534.198 254.541L561.056 269.154L575.69 242.333L573.839 241.305C572.789 240.722 571.823 240.178 570.845 239.643L556.205 231.607C557.568 232.168 558.941 232.775 560.383 233.417C561.042 233.705 561.718 234.011 562.429 234.316L562.74 234.454L563.064 233.698C563.182 233.425 563.294 233.161 563.413 232.895C563.731 232.175 564.041 231.456 564.352 230.737C565.09 229.021 565.859 227.25 566.65 225.522C567.237 224.251 567.877 222.975 568.499 221.744C568.755 221.23 569.018 220.721 569.277 220.192C570.832 219.886 572.387 219.586 573.943 219.286C578.057 218.484 582.311 217.661 586.485 216.784L586.552 216.771C588.012 216.476 589.423 216.592 590.982 217.128C593.676 218.055 596.437 218.97 599.095 219.857C600.102 220.192 601.109 220.528 602.116 220.863C602.055 221.041 601.988 221.221 601.927 221.399C601.722 221.993 601.508 222.609 601.259 223.191C599.166 228.123 597.05 233.039 594.935 237.962C594.484 239.013 594.024 240.059 593.567 241.111C592.999 242.407 592.432 243.702 591.88 245.008C591.744 245.326 591.665 245.653 591.56 246.06C591.505 246.265 591.448 246.497 591.376 246.754L591.294 247.033L591.559 247.152C601.53 251.626 610.892 255.72 620.184 259.668L620.493 259.799L627.665 243.372L633.338 230.37L630.493 229.141C628.087 228.1 625.698 227.076 623.322 226.049C623.125 225.965 622.923 225.888 622.728 225.81C621.942 225.506 621.2 225.22 620.782 224.482L621.5 222.286C622.07 220.528 622.643 218.775 623.235 217.019C623.829 215.242 624.439 213.468 625.049 211.701C625.431 210.581 625.814 209.468 626.196 208.348C627.172 205.478 628.147 202.609 629.122 199.739L630.409 195.95C630.553 195.977 630.69 196.004 630.833 196.031C631.342 196.122 631.823 196.211 632.26 196.392L632.932 196.678C636.384 198.144 639.949 199.656 643.397 201.274C644.61 201.844 645.553 201.758 646.506 200.972L646.723 201.087L645.119 208.545L647.627 209.199C649.18 209.604 650.719 210.012 652.264 210.412C653.867 210.828 655.476 211.236 657.079 211.651L658.943 212.125L650.734 236.869L650.626 237.188L682.345 247.858L682.664 247.966L693.447 215.955L691.741 215.339C690.795 214.998 689.879 214.665 688.957 214.34C686.994 213.651 685.034 212.969 683.073 212.287L680.918 211.534L681.535 208.978C682.177 206.307 682.826 203.634 683.49 200.966C683.725 200.007 684.005 199.032 684.272 198.094C684.376 197.721 684.482 197.354 684.586 196.981L694.78 194.925L692.664 184.432L695.002 184.962C698.374 185.726 701.753 186.488 705.122 187.266C705.405 187.333 705.677 187.485 705.972 187.647C706.042 187.688 706.12 187.728 706.19 187.769L704.529 199.223L704.845 199.284C705.226 199.359 705.594 199.437 705.954 199.509C706.71 199.661 707.423 199.807 708.151 199.923C710.613 200.317 713.079 200.697 715.539 201.078L718.119 201.476C718.116 201.594 718.12 201.718 718.123 201.835C718.129 202.31 718.129 202.759 718.042 203.184C717.813 204.273 717.524 205.374 717.248 206.438C717.132 206.89 717.009 207.343 716.895 207.801C716.624 208.891 716.346 209.977 716.069 211.069C715.384 213.769 714.677 216.564 714.018 219.328C713.738 220.503 713.54 221.683 713.336 222.933C713.244 223.504 713.147 224.083 713.038 224.671L712.984 224.986L747.287 233.297L755.759 198.762L755.425 198.684C754.642 198.497 753.873 198.313 753.118 198.134C751.37 197.72 749.718 197.335 748.067 196.887C746.803 196.548 745.531 196.128 744.302 195.72C743.85 195.569 743.4 195.425 742.948 195.274C743.001 195.056 743.06 194.837 743.092 194.617L744.253 186.778C744.934 182.173 745.614 177.567 746.302 172.966C746.457 171.954 746.643 170.957 746.851 169.899C746.925 169.512 746.999 169.124 747.078 168.728L766.95 171.717L765.979 187.86L766.255 187.929C766.393 187.963 766.51 187.995 766.604 188.017C766.794 188.069 766.926 188.104 767.08 188.115C770.759 188.381 774.444 188.64 778.129 188.898L780.099 189.039L779.78 191.397C779.51 193.413 779.238 195.422 778.946 197.435C778.523 200.339 778.086 203.238 777.635 206.209L777.022 210.29L814.016 215.883L814.066 215.549C816.119 202.371 817.915 190.489 819.561 179.231L819.612 178.903L806.169 176.765L806.258 175.393C806.336 174.238 806.406 173.077 806.477 171.923L806.681 168.519C806.926 164.56 807.172 160.47 807.388 156.441C807.442 155.408 807.422 154.349 807.402 153.324C807.389 152.85 807.382 152.368 807.382 151.891L807.531 151.909C808.134 151.988 808.703 152.067 809.248 152.136C810.349 152.287 811.395 152.436 812.422 152.498C814.604 152.631 816.794 152.735 818.977 152.841C821.111 152.942 823.253 153.049 825.384 153.172C826.139 153.22 826.907 153.362 827.654 153.501C827.919 153.551 828.185 153.601 828.449 153.645L828.827 174.834L830.403 174.841C831.219 174.849 831.952 174.853 832.681 174.837C835.358 174.788 838.039 174.724 840.719 174.66L843.889 174.587C844.216 176.552 844.02 178.559 843.83 180.497C843.739 181.448 843.64 182.428 843.601 183.403C843.526 185.566 843.401 187.684 843.272 189.92C843.223 190.807 843.168 191.702 843.121 192.596L843.105 192.93L882.303 195.372L884.757 156.137L880.61 155.882C877.547 155.692 874.61 155.511 871.67 155.316C871.18 155.284 870.671 155.193 870.185 155.112C870.041 155.085 869.891 155.06 869.749 155.041C869.652 150.212 869.557 145.389 869.455 140.534L869.311 133.276L873.03 133.19C877.634 133.076 882.191 132.965 886.752 132.874C887.433 132.861 888.138 132.899 888.815 132.935C889.046 132.95 889.276 132.959 889.506 132.968C889.649 133.92 889.794 134.878 889.938 135.83C890.284 138.095 890.645 140.432 890.932 142.744C891.128 144.368 891.255 146.028 891.387 147.638C891.502 149.031 891.612 150.466 891.773 151.884C891.951 153.485 892.198 155.051 892.458 156.719C892.582 157.536 892.713 158.359 892.835 159.205L892.88 159.528L894.612 159.351C895.695 159.243 896.759 159.139 897.81 159.01C898.309 158.951 898.803 158.865 899.292 158.787C899.86 158.693 900.454 158.594 901.029 158.533C903.148 158.32 905.272 158.134 907.395 157.94L909.62 157.74C909.738 160.859 909.864 163.983 909.991 167.114L910.222 172.848L951.202 171.87L951.24 171.58C951.689 168.084 950.639 132.195 950.048 130.732L949.962 130.515L948.28 130.564C947.381 130.593 946.468 130.619 945.552 130.631C942.316 130.682 939.084 130.719 935.854 130.763L933.339 130.794C933.236 130.075 933.132 129.357 933.029 128.639C932.721 126.532 932.414 124.357 932.167 122.21C931.886 119.787 931.65 117.314 931.423 114.922C931.332 113.994 931.25 113.071 931.159 112.143L932.549 111.98C933.885 111.821 935.22 111.663 936.552 111.518C940.565 111.075 944.573 110.64 948.583 110.218C949.084 110.165 949.607 110.157 950.11 110.152C950.262 110.149 950.406 110.147 950.544 110.147L956.986 142.09L976.306 138.194C976.643 140.723 976.98 143.252 977.328 145.834L977.887 150.01L1020.96 145.206L1020.91 144.869C1019.56 132.71 1018.23 120.748 1016.88 108.717L1016.14 102.064L995.844 104.251C994.803 99.1913 993.762 94.1315 992.708 89.0744L1036.78 80.1876L1045.59 123.877L1047.4 123.512C1060.9 120.788 1074.4 118.066 1087.91 115.343C1088.54 115.215 1089.15 115.023 1089.77 114.863L1080.92 70.9674C1080.54 71.0172 1080.16 71.0457 1079.77 71.1233C1065.83 73.9352 1051.88 76.7471 1037.94 79.5657C1037.57 79.6406 1037.22 79.8284 1036.86 79.9777L1027.89 35.4849L1071.63 26.6637C1071.62 24.0958 1063.38 -15.9727 1062.65 -17.1572C1058.4 -16.7428 1020.18 -8.82134 1018.91 -8.07577L1027.67 35.322L1009.11 39.064C1009.04 38.4573 1008.96 37.8573 1008.89 37.2506C1008.8 36.5232 1008.71 35.7877 1008.62 35.0602L1006.57 17.3032L1006.34 17.2451C1006.22 17.2148 1006.1 17.1751 1006.01 17.1394C1005.79 17.0654 1005.58 16.9967 1005.36 17.0209C1003.99 17.1864 1002.63 17.3652 1001.27 17.5426C1000.47 17.6475 999.672 17.747 998.878 17.8518C996.845 18.11 994.81 18.3616 992.773 18.6065L978.816 20.2884L974.762 0.18574L930.362 9.13943L921.538 -34.6167L878.631 -25.9641L887.474 17.8849L930.128 9.2832L938.275 49.6811L924.084 49.7595L924.062 49.5843C923.219 42.1846 922.367 34.7729 921.498 27.1781L921.466 26.8807L921.169 26.8786C920.94 26.8763 920.711 26.8674 920.489 26.8637C919.995 26.8459 919.529 26.8294 919.048 26.878C915.804 27.2284 912.539 27.6173 909.505 27.9807C908.648 28.0843 907.801 28.1998 906.946 28.3101C905.83 28.4592 904.714 28.6084 903.598 28.7297C899.113 29.2268 895.407 29.6217 891.947 29.9605C890.707 30.0794 889.471 30.1836 888.233 30.2811C886.568 30.4166 884.849 30.5561 883.16 30.7447C882.154 30.8578 881.156 31.0798 880.186 31.3031C879.743 31.3994 879.294 31.5037 878.836 31.596L878.531 31.6576L878.564 31.9616C880.069 46.0655 881.569 60.0459 883.096 74.2627L883.13 74.6012L907.6 71.7247C907.79 77.9437 907.974 84.1641 908.142 90.3738C908.141 90.5052 908.083 90.662 908.01 90.8493C907.992 90.8945 907.98 90.9383 907.961 90.9835L888.872 91.3659C888.915 90.6873 888.957 90.0021 888.999 89.3235C889.108 87.6025 889.221 85.8325 889.288 84.0783C889.332 83.0267 889.318 81.9658 889.311 80.9381C889.303 80.484 889.302 80.0352 889.301 79.5865L889.302 79.2824L888.999 79.2537C888.329 79.1817 887.686 79.111 887.064 79.043C885.722 78.8924 884.456 78.747 883.192 78.6773C880.941 78.5442 878.689 78.4389 876.436 78.327C874.28 78.2229 872.132 78.1174 869.979 77.9921C869.455 77.9597 868.937 77.8225 868.39 77.6773C868.229 77.6337 868.055 77.5928 867.873 77.5467L867.39 59.3277C867.352 57.8711 867.305 56.4093 867.263 54.9675L867.166 51.6787L866.901 51.6287C864.527 51.1611 830.912 52.1177 826.562 52.7393L826.409 45.8842C826.295 40.8309 826.183 35.8254 826.065 30.7521L836 28.7486L836.939 36.6261L837.271 36.5937C838.031 36.5235 838.783 36.4545 839.522 36.3817C841.217 36.2263 842.817 36.0763 844.438 35.8945C845.586 35.7665 846.734 35.604 847.877 35.4495C849.06 35.287 850.282 35.1164 851.485 34.9844C855.038 34.5857 858.647 34.2307 862.14 33.8785L862.743 33.8192C863.813 33.7139 864.892 33.6206 865.965 33.5286C867.98 33.3501 870.065 33.1715 872.104 32.9053C873.624 32.7024 875.1 32.384 876.654 32.043C877.348 31.8892 878.044 31.742 878.76 31.5975L879.066 31.5359L874.222 -10.9439L873.89 -10.9115C873.03 -10.8278 872.196 -10.7495 871.39 -10.6699C869.567 -10.4957 867.852 -10.3363 866.137 -10.1423C865.144 -10.0319 864.155 -9.90147 863.173 -9.77242C862.083 -9.62863 860.96 -9.47812 859.85 -9.36482C858.273 -9.20562 856.692 -9.06633 855.112 -8.92043C853.511 -8.77712 851.902 -8.63912 850.304 -8.47588C847.112 -8.14286 843.915 -7.79518 840.72 -7.44088L836.686 -6.99363L834.643 -17.1279C839.604 -17.7347 877.194 -25.4533 878.403 -26.139L878.614 -26.2575L869.783 -70.0468L913.114 -78.785L898.762 -149.958C898.675 -150.389 898.601 -150.823 898.526 -151.264C898.502 -151.383 898.486 -151.497 898.468 -151.618L904.156 -151.294L904.178 -151.63C904.976 -164.589 905.762 -177.304 906.564 -190.243L906.586 -190.579L875.982 -192.398C876.455 -197.211 877.235 -201.871 878.062 -206.81C878.21 -207.69 878.357 -208.569 878.503 -209.455L886.467 -211.061L883.327 -226.631L892.556 -227.787L892.831 -228.651C892.914 -228.923 893 -229.182 893.093 -229.477L900.358 -228.725L900.477 -223.818C900.548 -221 900.613 -218.182 900.676 -215.37L900.689 -215.51ZM383.381 -145.848C383.381 -145.848 383.357 -145.863 383.341 -145.874C383.341 -145.874 383.365 -145.858 383.381 -145.848ZM934.637 -235.465C934.635 -235.375 934.639 -235.286 934.638 -235.189C934.265 -235.155 933.885 -235.12 933.512 -235.086C932.488 -234.99 931.432 -234.888 930.401 -234.86C928.064 -234.803 925.73 -234.767 923.389 -234.73C921.454 -234.706 919.519 -234.675 917.581 -234.629C915.649 -234.585 913.714 -234.52 911.781 -234.448C911.027 -234.42 910.273 -234.392 909.519 -234.364C909.715 -238.05 909.917 -241.738 910.1 -245.422C910.146 -246.287 910.178 -247.157 910.217 -248.028C910.283 -249.616 910.347 -251.252 910.465 -252.858C910.626 -255.107 910.834 -257.401 911.037 -259.61C911.117 -260.448 911.19 -261.285 911.264 -262.115L921.671 -264.213L919.772 -273.631C920.03 -273.683 920.297 -273.73 920.557 -273.776C921.376 -273.927 922.229 -274.085 923.061 -274.205C924.007 -274.34 924.953 -274.448 925.904 -274.557C926.303 -274.603 926.694 -274.647 927.112 -274.697L930.164 -274.636L930.599 -270.386C930.976 -266.705 931.352 -263.023 931.756 -259.341C931.896 -258.064 932.075 -256.767 932.252 -255.511C932.387 -254.571 932.514 -253.63 932.629 -252.686C933.293 -247.371 933.944 -242.053 934.582 -236.732C934.638 -236.315 934.633 -235.899 934.633 -235.451L934.637 -235.465ZM826.542 -54.6964C827.048 -53.4518 827.226 -52.0234 827.401 -50.6428C827.465 -50.1171 827.533 -49.5781 827.618 -49.0498L824.342 -48.7206C824.312 -49.1428 824.281 -49.5716 824.243 -49.999C824.143 -51.2842 824.041 -52.6105 823.991 -53.9196C823.933 -55.4757 823.904 -57.0238 823.872 -58.6542C823.862 -59.2876 823.85 -59.9276 823.836 -60.5808L825.782 -61.512L825.402 -63.3968C825.153 -64.6658 824.903 -65.9414 824.627 -67.205C823.953 -70.3428 823.347 -73.7223 823.476 -77.2292C823.478 -77.3195 823.488 -77.4111 823.495 -77.5094C823.54 -78.1123 823.597 -78.925 822.872 -79.435L822.966 -79.7233C823.126 -80.1976 823.278 -80.6771 823.415 -81.1607L823.492 -81.4317C823.592 -81.7903 823.682 -82.133 823.806 -82.4758L824.014 -80.2454C824.22 -77.9594 824.432 -75.6746 824.652 -73.3845L824.69 -72.9916C824.87 -71.2392 825.055 -69.4324 825.33 -67.6576C825.757 -64.8912 825.953 -62.3754 825.927 -59.9734L825.918 -59.3984C825.894 -57.8741 825.874 -56.2954 826.523 -54.6858L826.542 -54.6964ZM831.354 -19.2896C831.238 -20.1432 831.115 -20.9888 831.005 -21.8437L830.739 -23.7447C830.505 -25.4173 830.26 -27.1497 830.069 -28.8516C829.822 -31.0327 829.596 -33.2179 829.368 -35.4097C829.19 -37.1488 829.005 -38.8865 828.814 -40.623C828.707 -41.5961 828.573 -42.5704 828.445 -43.5461C828.32 -44.474 828.194 -45.4086 828.089 -46.3405C828.128 -46.1481 828.181 -45.9517 828.22 -45.7592C829.764 -38.1694 831.302 -30.5783 832.838 -22.9938L833.934 -17.5583L831.665 -17.1006C831.565 -17.8334 831.466 -18.5662 831.36 -19.2976L831.354 -19.2896ZM770.887 110.856L771.223 110.878C772.238 110.949 773.22 111.021 774.18 111.09C776.241 111.241 778.196 111.378 780.153 111.495C782.915 111.663 785.68 111.81 788.444 111.957L791.671 112.135C791.67 112.335 791.668 112.529 791.667 112.73C791.669 113.392 791.666 114.028 791.577 114.647C790.818 119.787 790.015 124.949 789.187 130.227C788.945 131.768 788.683 133.312 788.407 134.922L788.075 136.874L771.445 134.309L771.679 130.815L767.301 129.757C763.969 128.951 760.716 128.164 757.467 127.362C756.456 127.11 755.437 126.818 754.454 126.533C754.087 126.427 753.727 126.32 753.362 126.221L758.003 95.635L757.742 95.5425C755.124 94.5787 726.024 90.3564 721.695 90.2624L727.025 55.3864L736.459 55.0036L736.384 56.8626C736.313 58.6658 736.242 60.4691 736.157 62.275C736.073 63.984 735.976 65.6956 735.874 67.4152L735.722 70.0153L736.058 70.0373C738.043 70.155 740.007 70.27 741.964 70.3864C746.415 70.6422 750.615 70.8864 754.915 71.1796C756.008 71.2562 757.108 71.3315 758.201 71.4081C763.139 71.7521 768.246 72.1104 773.308 72.243L770.869 110.873L770.887 110.856ZM641.549 162.52L641.646 162.998L640.254 164.453C638.615 164.342 638.072 164.078 637.642 162.977L640.855 163.669L641.556 162.519L641.549 162.52ZM651.671 132.431L651.523 132.282C650.518 131.269 649.281 130.959 648.09 130.667C647.574 130.543 647.087 130.421 646.63 130.243C644.356 129.383 642.006 128.62 639.729 127.878C638.45 127.459 637.164 127.041 635.889 126.608C635.696 126.543 635.507 126.36 635.309 126.165C635.24 126.096 635.172 126.034 635.104 125.972C635.102 125.889 635.105 125.806 635.109 125.722C635.115 125.41 635.127 125.09 635.061 124.765C634.587 122.381 634.099 119.993 633.612 117.612L633.201 115.574C633.241 115.566 633.278 115.545 633.323 115.529C633.606 115.424 633.868 115.322 634.134 115.269C645.581 112.953 657.024 110.653 668.473 108.344C668.632 108.312 668.8 108.292 668.962 108.273C668.905 108.706 668.854 109.137 668.802 109.569C668.654 110.787 668.501 112.047 668.225 113.249C667.408 116.764 666.511 120.329 665.644 123.771C665.309 125.088 664.981 126.411 664.653 127.728L663.352 132.921C662.814 135.081 662.269 137.242 661.73 139.402C661.688 139.57 661.667 139.74 661.642 139.959C661.631 140.072 661.616 140.206 661.593 140.362L661.553 140.647L661.827 140.736C662.004 140.791 662.175 140.853 662.338 140.91C662.694 141.031 663.058 141.158 663.436 141.248C665.566 141.744 667.697 142.239 669.827 142.735C673.167 143.505 676.501 144.283 679.836 145.068C680.22 145.156 680.586 145.331 680.981 145.507C681.079 145.549 681.171 145.593 681.269 145.635C681.154 146.025 681.033 146.415 680.911 146.806C680.563 147.954 680.201 149.138 679.88 150.322C679.67 151.096 679.247 151.465 678.403 151.594C678.054 151.643 677.709 151.713 677.364 151.783C677.092 151.838 676.813 151.894 676.547 151.947C676.275 152.002 676.003 152.057 675.738 152.111L642.859 158.741L651.676 132.424L651.671 132.431ZM617.978 190.439C617.784 190.367 617.59 190.296 617.396 190.225C618.192 189.96 618.972 190.266 619.803 190.582C619.967 190.645 620.139 190.708 620.303 190.771C621.315 191.127 622.303 191.645 623.26 192.143C623.345 192.188 623.43 192.233 623.515 192.278C622.616 191.997 621.71 191.717 620.816 191.427C619.863 191.122 618.908 190.769 617.977 190.432L617.978 190.439ZM495.479 200.597C493.619 199.798 492.039 198.61 490.376 197.35C490.116 197.154 489.854 196.951 489.587 196.757C489.622 196.66 489.658 196.563 489.689 196.474C489.78 196.207 489.855 195.998 489.961 195.839C493.111 191.08 495.532 187.436 497.817 184.039C498.041 183.711 498.321 183.42 498.626 183.117C498.734 183.005 498.843 182.893 498.952 182.782L506.477 182.666L506.161 171.783L508.656 171.722L512.108 202.057L519.19 201.354C518.493 203.104 515.748 207.332 514.358 208.765L496.152 198.831L495.47 200.585L495.479 200.597ZM438.431 209.953L436.761 209.412L436.619 209.531C436.524 209.605 436.43 209.686 436.328 209.762C436.082 209.95 435.83 210.139 435.61 210.383C434.566 211.506 433.531 212.64 432.501 213.766C430.701 215.732 428.837 217.758 426.976 219.729C426.242 220.506 425.421 221.23 424.631 221.935C424.331 222.196 424.033 222.463 423.741 222.73L405.542 208.242L402.87 211.26L400.835 210.345L400.898 210.284C405.761 205.801 410.342 200.947 414.775 196.248C416.028 194.925 417.279 193.595 418.543 192.263L418.687 192.116L418.27 190.909L423.123 188.735L442.889 204.419L438.431 209.953ZM172.922 229.901C173.08 229.863 173.23 229.853 173.4 229.84C173.867 229.794 174.416 229.738 174.811 229.334L174.868 229.481L174.95 230.915C175.018 232.11 175.093 233.304 175.155 234.5C175.186 235.067 175.197 235.631 175.205 236.189L175.218 236.663L172.975 237.115C172.742 234.317 172.73 232.067 172.922 229.901ZM136.262 222.777L138.476 222.696L138.989 216.335L139.242 216.457L139.684 222.453L138.15 222.859L137.868 226.12L135.81 226.086C135.661 224.832 135.813 223.772 136.262 222.777ZM153.988 226.254L155.902 226.054L155.992 225.953C156.474 225.4 156.412 224.715 156.365 224.172C156.311 223.561 156.297 223.219 156.651 222.988L157.115 225.526L156.084 226.031L155.804 231.392L153.8 231.796C153.276 230.258 153.534 228.832 153.811 227.332C153.877 226.974 153.942 226.608 153.994 226.252L153.988 226.254ZM151.959 81.8028L152.438 81.644L152.098 82.1132L151.959 81.8028ZM202.101 51.5583L204.529 49.8323C206.36 48.5308 208.105 47.2879 209.864 46.0768C210.222 45.8319 210.627 45.6467 211.058 45.4561C211.178 45.4042 211.305 45.3442 211.425 45.2922L216.875 51.4245L216.071 52.0976C215.256 52.7801 214.435 53.4705 213.622 54.1662C212.291 55.3049 210.96 56.4437 209.63 57.589L208.382 58.6625C208.143 58.4 207.902 58.1308 207.662 57.8683C206.971 57.1099 206.261 56.3277 205.607 55.5201C204.918 54.6714 204.259 53.7682 203.622 52.9022C203.344 52.5163 203.067 52.137 202.785 51.7657L202.691 51.6397L202.537 51.6293C202.446 51.6268 202.368 51.615 202.296 51.6018C202.147 51.5835 201.997 51.5585 201.851 51.5879C201.818 51.5946 201.778 51.6026 201.747 51.616C198.848 52.7253 196.277 54.5976 193.431 57.6786L189.765 51.967L191.341 51.0138C193.409 49.7611 195.427 48.5323 197.455 47.3221C197.726 47.157 198.025 47.0344 198.345 46.9078C198.409 46.8811 198.479 46.8531 198.543 46.8265L202.112 51.5769L202.101 51.5583ZM234.379 52.2251L232.737 53.9446C230.861 55.9113 229.06 57.801 227.235 59.6814C226.966 59.9566 226.639 60.1816 226.286 60.4185C226.201 60.477 226.123 60.5342 226.037 60.5862L224.661 59.0747C223.134 57.3935 221.609 55.719 220.088 54.0364C219.572 53.4636 219.068 52.8816 218.507 52.2212L217.803 51.4031L219.426 49.9639C220.985 48.5858 222.509 47.2357 224.049 45.9028C224.525 45.4891 225.056 45.1058 225.568 44.7333C225.73 44.6108 225.899 44.4937 226.061 44.3713L234.379 52.2251ZM244.715 46.2522C246.887 48.0107 249.058 49.7692 251.222 51.529C251.899 52.0763 252.564 52.6329 253.278 53.228L254.058 53.8787L253.482 54.8582L251.575 53.2466L249.594 54.9653C248.101 56.2609 246.622 57.5539 245.123 58.8229C244.704 59.1768 244.24 59.5122 243.793 59.8302C243.66 59.926 243.521 60.0231 243.389 60.119L235.259 52.1719L236.915 50.4498C238.598 48.6945 240.254 46.9723 241.923 45.2475C242.118 45.0494 242.338 44.8738 242.57 44.6889C242.606 44.6609 242.642 44.633 242.683 44.5971L244.722 46.2509L244.715 46.2522ZM351.242 -58.6622L351.678 -56.4986L343.188 -52.2932L351.205 -58.2956L350.638 -59.1897C350.275 -59.7587 349.913 -60.3211 349.554 -60.8981C349.158 -61.5295 348.773 -62.1702 348.388 -62.8109L348.037 -63.3893L349.588 -64.6345L352.381 -59.5204L351.247 -58.6702L351.242 -58.6622ZM534.478 -213.966C534.799 -215.115 535.053 -216.251 535.301 -217.35C535.64 -218.855 535.963 -220.302 536.435 -221.695L536.689 -214.066L534.471 -213.965L534.478 -213.966ZM596.88 -186.291C596.561 -186.261 596.243 -186.232 595.925 -186.195C594.984 -186.102 594.016 -186.004 593.07 -185.972C589.19 -185.859 585.248 -185.783 581.429 -185.71L579.442 -185.668C579.325 -185.666 579.187 -185.7 578.978 -185.741C578.913 -185.755 578.842 -185.768 578.762 -185.787L578.679 -192.601L595.658 -194.678L596.881 -186.284L596.88 -186.291ZM545.667 150.41C545.71 151.755 545.747 153.101 545.784 154.448C545.788 154.502 545.757 154.591 545.726 154.673L541.175 155.26L538.328 153.679L538.496 151.117C538.654 148.682 538.816 146.163 539.007 143.686C539.056 143.075 539.193 142.454 539.327 141.847C539.37 141.652 539.412 141.45 539.458 141.233L545.566 140.899C545.56 141.246 545.545 141.587 545.539 141.934C545.518 142.753 545.489 143.602 545.506 144.441C545.549 146.435 545.612 148.425 545.675 150.415L545.667 150.41ZM194.228 234.791C194.411 235.666 194.601 236.573 194.752 237.462C194.939 238.591 195.096 239.747 195.245 240.864C195.293 241.241 195.348 241.617 195.397 241.994L193.764 242.323C192.917 239.524 192.83 236.765 192.741 234.096L192.727 233.754L193.961 233.505L193.98 233.598C194.06 233.996 194.141 234.394 194.228 234.791ZM191.792 218.775L193.71 223.251C193.746 223.602 193.776 223.956 193.801 224.317C193.867 225.16 193.933 226.037 194.123 226.876C194.43 228.258 194.826 229.642 195.2 230.983C195.34 231.472 195.482 231.969 195.615 232.46L194.318 233.15L191.793 218.782L191.792 218.775ZM411.949 -58.5346C412.009 -58.3396 411.879 -58.0924 411.755 -57.9222C411.46 -57.5035 411.122 -57.1246 410.768 -56.7217C410.705 -56.6539 410.65 -56.5874 410.587 -56.5196L410.144 -57.1416L411.654 -58.8343C411.785 -58.7641 411.902 -58.6634 411.943 -58.5333L411.949 -58.5346ZM786.686 -27.2859L788.803 -8.46407L785.624 -7.82298C785.311 -11.2269 785.263 -14.6498 785.224 -17.9573C785.187 -21.1545 785.148 -24.4686 784.857 -27.7597L786.686 -27.2859ZM784.336 -29.5885L784.39 -28.1214L780.318 -27.9702L780.378 -28.8732L780.351 -28.8333L781.094 -43.2661L783.715 -43.4216L783.814 -41.2177C783.948 -38.2955 784.081 -35.3732 784.207 -32.4563C784.252 -31.5123 784.284 -30.5657 784.323 -29.5858L784.336 -29.5885ZM284.845 190.21L276.229 190.158L277.5 189.474C279.431 188.435 281.364 187.403 283.307 186.383C284.375 185.822 285.482 185.288 286.553 184.775L287.774 184.183C288.051 184.052 288.33 183.926 288.697 183.762L289.058 183.6L290.32 194.513L285.104 197.485L284.844 190.203L284.845 190.21ZM186.21 109.104C186.925 109.085 187.341 109.332 187.65 109.94C187.951 110.542 188.334 111.107 188.707 111.654C188.737 111.703 188.775 111.75 188.805 111.8L186.008 111.562L186.217 109.103L186.21 109.104ZM485.511 -242.762L477.1 -243.718L479.128 -255.578L486.26 -255.144L485.511 -242.762ZM470.246 -243.592C470.336 -243.832 470.431 -244.079 470.521 -244.318L476.545 -243.281L476.279 -241.659C476.077 -240.431 475.876 -239.237 475.695 -238.047C475.331 -235.639 474.973 -233.233 474.616 -230.826L474.214 -228.127C474.105 -228.119 473.99 -228.11 473.881 -228.102C473.459 -228.072 473.058 -228.039 472.703 -228.12C471.355 -228.435 470.016 -228.807 468.599 -229.191C468.029 -229.346 467.443 -229.511 466.837 -229.672L466.566 -229.748L466.445 -229.496C466.381 -229.366 466.312 -229.228 466.238 -229.081C466.059 -228.735 465.849 -228.34 465.713 -227.919C465.336 -226.772 464.991 -225.605 464.653 -224.473L464.339 -223.429L458.77 -223.335L459.257 -224.793C459.732 -226.236 460.175 -227.569 460.64 -228.892C460.766 -229.262 460.945 -229.609 461.125 -229.984C461.168 -230.076 461.219 -230.169 461.262 -230.26L461.589 -230.181C462.069 -230.064 462.555 -229.948 463.033 -229.837L463.308 -229.775C464.381 -229.522 465.484 -229.261 466.672 -229.942L466.802 -230.017L467.572 -233.287C468.2 -235.962 468.852 -238.725 469.527 -241.438C469.705 -242.164 469.982 -242.883 470.247 -243.586L470.246 -243.592ZM389.447 -11.8526C388.162 -12.8158 386.64 -14.4705 385.615 -16.025L385.838 -16.1183C386.042 -15.8969 386.247 -15.6688 386.45 -15.4474C387.039 -14.7858 387.646 -14.1069 388.364 -13.561C389.026 -13.0522 389.375 -12.5217 389.454 -11.8539L389.447 -11.8526ZM392.621 30.4254L393.139 31.0805L394.362 32.3121L391.779 35.4643L388.188 30.0899L389.91 28.9692C390.118 29.1136 390.316 29.3084 390.519 29.5232C391.007 30.0257 391.608 30.6435 392.61 30.4414L392.617 30.44L392.621 30.4254ZM417.496 165.8C417.19 165.959 416.89 166.116 416.582 166.268C414.438 167.28 412.299 168.285 410.155 169.298L407.922 170.349L406.836 167.294L409.439 164.58C411.264 162.671 413.097 160.769 414.922 158.86C415.294 158.475 415.662 158.076 416.048 157.659L416.44 157.242C417.319 158.246 417.856 159.436 418.427 160.688C419.04 162.05 419.674 163.448 420.779 164.613C419.527 164.742 418.503 165.28 417.509 165.798L417.496 165.8ZM557.46 -172.678C557.473 -172.135 557.479 -171.625 557.455 -171.13C557.183 -166.482 556.95 -162.671 556.713 -159.122C556.688 -158.765 556.594 -158.407 556.498 -158.029C556.48 -157.949 556.456 -157.861 556.438 -157.782C555.963 -157.838 555.491 -157.888 555.018 -157.937C553.775 -158.073 552.488 -158.221 551.236 -158.404C547.777 -158.908 544.262 -159.456 540.86 -159.986L539.855 -160.142C539.648 -160.177 539.427 -160.243 539.133 -160.335C539.037 -160.364 538.927 -160.397 538.808 -160.436C539.136 -162.339 539.41 -164.266 539.677 -166.129C540.063 -168.838 540.46 -171.633 541.033 -174.373L557.447 -173.221C557.45 -173.035 557.453 -172.849 557.46 -172.678ZM619.376 -154.264L621.949 -154.52C624.427 -154.764 626.899 -155.007 629.372 -155.278C630.096 -155.355 630.823 -155.481 631.526 -155.595C631.953 -155.667 632.374 -155.738 632.804 -155.798C633.213 -155.859 633.619 -155.9 634.118 -155.959L634.564 -156.008C634.572 -155.83 634.586 -155.66 634.598 -155.496C634.637 -154.959 634.67 -154.489 634.646 -154.028C634.549 -152.109 634.425 -150.192 634.3 -148.274L634.184 -146.386L619.552 -147.98C619.191 -150.455 619.134 -152.413 619.39 -154.26L619.376 -154.264ZM435.227 -42.9027L441.508 -38.713L441.995 -39.0736C441.351 -38.329 440.698 -37.5897 440.048 -36.8438L439.435 -36.1471L432.91 -39.7004C433.445 -40.9201 434.175 -41.9238 435.229 -42.8961L435.227 -42.9027ZM431.329 -74.5985L428.846 -77.0469L430.456 -79.2363C431.648 -79.5941 432.512 -79.0086 433.465 -78.151L431.329 -74.5985ZM525.762 -85.1191L517.163 -87.9641L517.616 -89.3125C517.992 -90.4311 518.359 -91.5205 518.728 -92.6032C520.409 -97.5558 522.09 -102.508 523.777 -107.462C523.821 -107.589 523.886 -107.712 523.963 -107.845C524.171 -107.77 524.387 -107.696 524.595 -107.62C525.251 -107.38 525.929 -107.137 526.625 -106.973C529.209 -106.354 531.795 -105.757 534.387 -105.161C536.22 -104.736 538.06 -104.313 539.888 -103.881C540.359 -103.768 540.832 -103.615 541.388 -103.43C541.632 -103.348 541.891 -103.262 542.178 -103.175L538.057 -86.3138C537.876 -86.3534 537.704 -86.3876 537.539 -86.4166C536.985 -86.5259 536.46 -86.6273 535.989 -86.8084C535.083 -87.1575 534.116 -87.4667 533.08 -87.2579C532.888 -87.2191 532.686 -87.1577 532.487 -87.083L526.444 -87.971L525.756 -85.1178L525.762 -85.1191ZM534.406 -141.887C533.848 -141.982 533.284 -142.076 532.727 -142.164C531.234 -142.408 529.699 -142.658 528.205 -142.978C525.85 -143.491 523.472 -144.082 521.166 -144.66L519.486 -145.081C519.144 -145.164 518.807 -145.296 518.411 -145.444C518.291 -145.489 518.179 -145.535 518.052 -145.579C518.117 -145.875 518.175 -146.17 518.234 -146.458C518.402 -147.273 518.568 -148.059 518.755 -148.843C519.938 -153.798 520.915 -157.822 521.828 -161.514C521.873 -161.703 522 -161.895 522.131 -162.101C522.158 -162.14 522.184 -162.18 522.211 -162.22L537.192 -159.82L534.407 -141.881L534.406 -141.887ZM496.548 -83.13C496.962 -84.0906 497.367 -85.0632 497.779 -86.0305C498.447 -87.6156 499.134 -89.2459 499.848 -90.8403C500.059 -91.3041 500.374 -91.7268 500.713 -92.1682C500.816 -92.3064 500.925 -92.4527 501.029 -92.5909L516.289 -87.4701L512.023 -75.435L509.853 -75.9228C507.661 -76.4132 505.397 -76.9235 503.161 -77.3913C502.52 -77.5243 501.87 -77.5591 501.234 -77.5966C500.954 -77.6161 500.669 -77.6276 500.394 -77.655L500.106 -77.6798L497.951 -68.9781L491.346 -71.8316C491.435 -71.9738 491.526 -72.1027 491.61 -72.237C491.891 -72.6597 492.157 -73.0518 492.351 -73.4916C493.821 -76.7855 495.238 -80.0687 496.557 -83.118L496.548 -83.13ZM462.621 -50.0845L462.025 -50.3372C461.39 -50.6097 460.748 -50.8809 460.118 -51.1614C458.299 -51.9618 456.479 -52.7688 454.599 -53.5983L452.823 -54.3868C453.687 -56.3361 454.852 -58.0972 456.56 -60.0372L465.856 -55.0397L462.616 -50.0766L462.621 -50.0845ZM566.135 -106.439L559.233 -108.645L556.315 -100.611C555.745 -100.731 555.183 -100.846 554.614 -100.966C553.093 -101.281 551.58 -101.59 550.067 -101.934C548.395 -102.315 546.725 -102.718 544.997 -103.136L542.869 -103.653L545.603 -115.096C546.032 -116.909 546.459 -118.729 546.916 -120.541C546.958 -120.708 547.101 -120.889 547.249 -121.078C547.288 -121.127 547.321 -121.168 547.359 -121.217L567.941 -118.171L566.142 -106.44L566.135 -106.439ZM516.006 -143.502C515.66 -141.961 515.344 -140.516 514.998 -139.079C514.575 -137.274 514.137 -135.472 513.699 -133.671C513.281 -131.943 512.863 -130.215 512.451 -128.488C512.241 -127.61 512.061 -126.724 511.872 -125.844C511.809 -125.541 511.746 -125.238 511.683 -124.935C511.413 -125.005 511.142 -125.082 510.866 -125.15C510.042 -125.364 509.189 -125.586 508.363 -125.847C504.798 -126.986 501.18 -128.177 497.798 -129.297C497.657 -129.345 497.512 -129.447 497.305 -129.585C497.233 -129.632 497.16 -129.687 497.074 -129.738L503.452 -148.284L516.398 -145.322L515.992 -143.499L516.006 -143.502ZM484.461 -131.899C484.57 -132.148 484.779 -132.377 484.993 -132.62C485.048 -132.687 485.105 -132.747 485.161 -132.813L495.369 -129.457C495.196 -128.876 495.027 -128.31 494.863 -127.753C494.453 -126.364 494.062 -125.049 493.627 -123.746C492.535 -120.459 491.411 -117.235 490.455 -114.508C489.902 -112.932 489.322 -111.358 488.748 -109.785L488.09 -107.98C487.737 -108.089 487.385 -108.19 487.025 -108.297C486.042 -108.583 485.028 -108.882 484.085 -109.279C482.151 -110.098 480.27 -110.969 478.282 -111.887C477.566 -112.219 476.835 -112.555 476.098 -112.89L476.656 -114.197C477.103 -115.234 477.524 -116.23 477.967 -117.218C480.08 -122.016 482.264 -126.973 484.463 -131.892L484.461 -131.899ZM490.064 -69.7635C489.339 -68.1186 488.639 -66.5201 487.908 -64.9429C487.7 -64.5004 487.432 -64.0804 487.148 -63.6431C487.064 -63.5089 486.979 -63.3813 486.896 -63.247C485.112 -63.7023 483.333 -64.3381 481.621 -64.9528C479.41 -65.7433 477.125 -66.5602 474.758 -67.0291L474.463 -67.087L469.919 -53.5936L466.517 -55.3939L468.1 -58.2272C469.37 -60.4931 470.614 -62.7125 471.842 -64.9491C472.837 -66.7591 473.825 -68.5745 474.811 -70.3964C475.84 -72.2822 476.867 -74.1746 477.904 -76.055C478.02 -76.265 478.211 -76.4485 478.413 -76.648C478.459 -76.6919 478.505 -76.7358 478.551 -76.7864L490.772 -71.4947L490.809 -71.4815L490.055 -69.7754L490.064 -69.7635ZM418.868 -60.9038C421.39 -63.1943 423.795 -65.3783 426.32 -67.4139C426.159 -67.0843 425.995 -66.768 425.8 -66.4663C424.7 -64.7597 423.585 -63.0637 422.47 -61.3676C421.782 -60.3242 421.09 -59.2729 420.409 -58.2308C420.151 -57.8334 419.911 -57.4121 419.682 -57.0068C419.636 -56.9283 419.591 -56.8433 419.544 -56.7649L416.567 -58.8235C417.344 -59.5258 418.109 -60.2188 418.867 -60.9105L418.868 -60.9038ZM441.746 -73.6671L440.973 -74.1053C440.123 -74.59 439.267 -75.0666 438.426 -75.5738C437.437 -76.1617 436.705 -76.6425 436.052 -77.1394C435.742 -77.3739 435.467 -77.6776 435.25 -77.9308C435.231 -77.9547 435.206 -77.9772 435.187 -78.0011C436.07 -79.3462 436.926 -80.6794 437.786 -81.9992C439.987 -85.3992 442.076 -88.6038 444.235 -91.8364C444.994 -92.9702 445.857 -94.0696 446.686 -95.1279C447.175 -95.7514 447.67 -96.3828 448.143 -97.0169C448.388 -97.3426 448.577 -97.7054 448.77 -98.0483C448.801 -98.1028 448.83 -98.1639 448.86 -98.2184L453.773 -95.6039L441.751 -73.675L441.746 -73.6671ZM679.003 -111.235L680.145 -118.075L681.989 -118.316C681.202 -115.982 680.289 -113.56 679.003 -111.235ZM712.482 -125.404C711.823 -125.417 711.166 -125.388 710.53 -125.356C710.25 -125.341 709.962 -125.331 709.688 -125.318L709.394 -125.307L709.003 -121.864C708.678 -121.833 708.351 -121.809 708.038 -121.787C707.189 -121.719 706.38 -121.653 705.579 -121.547C702.674 -121.161 700.061 -120.793 697.588 -120.419C695.424 -120.086 693.34 -120.522 691.393 -121.718C691.038 -121.937 690.717 -122.535 690.485 -123.414C690.367 -123.859 690.372 -124.351 690.382 -124.919C690.384 -125.113 690.385 -125.313 690.386 -125.514C690.617 -125.567 690.847 -125.628 691.076 -125.688C691.745 -125.864 692.439 -126.052 693.101 -126.027C695.294 -125.937 697.528 -125.787 699.684 -125.642C701.308 -125.534 702.926 -125.425 704.552 -125.339C705.635 -125.281 706.701 -125.302 707.828 -125.329C708.337 -125.342 708.86 -125.351 709.384 -125.353L709.702 -125.355L709.779 -126.993L711.053 -126.601C712.481 -126.164 713.907 -125.733 715.331 -125.282C714.383 -125.325 713.435 -125.369 712.484 -125.391L712.482 -125.404ZM740.721 1.95738C741.126 1.91025 741.528 1.81533 741.922 1.71513C742.727 1.52528 743.485 1.34484 744.324 1.5347L744.286 3.2622L740.449 3.65605L740.728 1.95604L740.721 1.95738ZM430.839 -115.249L426.297 -117.054L424.376 -114.249C422.994 -112.23 421.603 -110.189 420.202 -108.166L419.896 -107.731C417.895 -104.841 415.833 -101.849 413.753 -98.9431C413.628 -98.773 413.496 -98.6081 413.355 -98.4486C413.004 -98.0324 412.613 -97.5737 412.487 -96.968L411.367 -98.614L413.465 -101.192C415.296 -103.447 417.129 -105.695 418.951 -107.962C420.923 -110.411 422.88 -112.864 424.872 -115.351L427.304 -118.397C427.589 -118.178 427.867 -117.965 428.144 -117.758C429.04 -117.082 429.88 -116.444 430.653 -115.764C430.744 -115.686 430.787 -115.473 430.831 -115.254L430.839 -115.249ZM323.75 189.181C323.721 189.38 323.672 189.756 323.588 189.814C321.9 191.004 320.139 192.167 318.439 193.291L317.33 194.026L317.158 190.503L323.748 189.174L323.75 189.181ZM301.538 132.225C301.538 132.225 301.535 132.212 301.534 132.205C301.534 132.205 301.537 132.219 301.538 132.225ZM226.071 117.303L225.907 116.487C226.032 116.455 226.162 116.415 226.285 116.376C226.962 116.171 227.351 116.079 227.671 116.539L226.071 117.303ZM302.547 213.396C304.144 212.411 305.759 211.45 307.375 210.489L308.849 209.611L309.615 213.787L301.573 215.043C301.307 214.337 301.707 213.925 302.555 213.401L302.547 213.396ZM311.205 182.49L312.63 189.558L307.527 189.427L307.022 184.798L311.212 182.489L311.205 182.49ZM314.09 171.314C315.067 170.371 316.334 170.012 317.665 169.626L317.887 169.56L318.885 171.086C318.629 171.151 318.366 171.218 318.11 171.283C317.144 171.527 316.146 171.783 315.16 171.996C314.692 172.111 314.376 171.912 314.088 171.307L314.09 171.314ZM254.458 198.886C253.523 198.736 252.568 198.728 251.643 198.728C251.11 198.725 250.571 198.723 250.04 198.692C249.635 198.671 249.217 198.582 248.814 198.505C248.684 198.476 248.562 198.452 248.433 198.429C247.665 196.913 247.901 195.449 248.158 193.913C248.183 193.763 248.206 193.606 248.231 193.456C248.664 193.307 249.094 193.144 249.517 192.983C250.558 192.593 251.628 192.184 252.722 191.991C256.237 191.372 259.887 191.251 263.883 191.612C264.868 191.703 265.881 191.589 266.861 191.481C267.28 191.438 267.705 191.387 268.134 191.355L267.936 193.523C267.075 193.945 266.219 194.359 265.356 194.775C263.097 195.866 260.762 196.993 258.484 198.164C257.07 198.891 255.823 199.115 254.459 198.893L254.458 198.886ZM268.739 187.539L270.099 190.414L268.562 190.841L268.739 187.539ZM289.142 178.23C289.103 177.934 289.058 177.639 289.012 177.345L291.036 176.936L293.762 181.512C293.609 181.542 293.456 181.573 293.298 181.612C292.631 181.76 291.942 181.906 291.266 182.015C290.159 182.176 289.811 181.956 289.592 180.937C289.399 180.05 289.267 179.123 289.136 178.231L289.142 178.23ZM429.072 166.864C431.606 166.995 434.139 167.127 436.677 167.244C437.144 167.267 437.612 167.255 438.066 167.247L431.469 175.67C430.459 174.292 428.543 169.789 427.711 166.793L429.079 166.863L429.072 166.864ZM500.234 138.452L496.593 132.452L499.646 132.555C499.901 133.035 500.157 133.515 500.412 133.989L500.234 138.452ZM613.981 -197.351L611.62 -197.075C609.123 -196.785 606.624 -196.503 604.123 -196.199C603.482 -196.125 602.845 -196.031 602.201 -195.935C601.456 -195.827 600.711 -195.718 599.961 -195.636C599.353 -195.568 598.737 -195.541 598.018 -195.513C597.771 -195.505 597.511 -195.494 597.23 -195.479L597.114 -198.729L613.042 -201.941L613.968 -197.348L613.981 -197.351ZM607.919 -132.235L605.65 -132.323C603.325 -132.414 601.001 -132.497 598.678 -132.609C597.696 -132.653 596.705 -132.736 595.651 -132.828C595.181 -132.864 594.696 -132.904 594.19 -132.947L595.276 -144.652L610.003 -145.053L607.904 -132.239L607.919 -132.235ZM593.255 -127.344L585.288 -129.211L585.197 -128.91C585.102 -128.594 585.001 -128.304 584.913 -128.024C584.724 -127.454 584.549 -126.914 584.41 -126.375C584.018 -124.79 583.632 -123.207 583.254 -121.625C582.869 -120.042 582.49 -118.46 582.116 -116.927C582.1 -116.903 582.027 -116.854 581.978 -116.823C581.959 -116.813 581.942 -116.795 581.923 -116.785L568.656 -118.771L571.145 -133.584C571.702 -133.565 572.257 -133.552 572.819 -133.541C574.242 -133.504 575.713 -133.469 577.153 -133.386C579.843 -133.231 582.531 -133.055 585.218 -132.879C587.437 -132.732 589.662 -132.594 591.879 -132.454C592.32 -132.425 592.754 -132.464 593.216 -132.502C593.386 -132.516 593.556 -132.529 593.733 -132.544L593.262 -127.345L593.255 -127.344ZM577.506 -172.936C577.254 -172.92 577.002 -172.903 576.751 -172.88C575.989 -172.823 575.207 -172.762 574.453 -172.804C570.721 -173.018 566.926 -173.275 563.257 -173.523L559.449 -173.777C559.132 -175.246 559.42 -181.797 560.038 -184.518L563.33 -184.602C566.037 -184.671 568.744 -184.74 571.449 -184.789C572.804 -184.813 574.147 -184.801 575.557 -184.795C576.069 -184.788 576.587 -184.789 577.113 -184.784L577.506 -172.936ZM466.53 -116.085C468.252 -115.763 469.785 -115.015 471.415 -114.225C472.388 -113.751 473.391 -113.263 474.469 -112.852C474.228 -112.264 473.998 -111.693 473.771 -111.136C473.191 -109.7 472.643 -108.34 472.059 -106.992C470.648 -103.745 469.122 -100.288 467.103 -95.7779C466.551 -94.5408 465.975 -93.3197 465.393 -92.0972C465.176 -91.6321 464.958 -91.1737 464.741 -90.7086C464.406 -90.8621 464.079 -91.0103 463.745 -91.1572C462.811 -91.5766 461.845 -92.0172 460.917 -92.4791C459.318 -93.2825 457.731 -94.1643 456.384 -94.9216C456.126 -95.0699 455.892 -95.2713 455.616 -95.5059C455.542 -95.5669 455.473 -95.6358 455.392 -95.6954L456.41 -97.5652C457.266 -99.14 458.115 -100.686 458.949 -102.235L462.064 -108.023C463.411 -110.525 464.757 -113.027 466.105 -115.523C466.189 -115.685 466.317 -115.842 466.45 -116C466.473 -116.025 466.495 -116.051 466.517 -116.083L466.53 -116.085ZM439.35 -134.591C437.945 -132.823 436.484 -130.995 435.03 -129.23C434.981 -129.165 434.924 -129.106 434.874 -129.047C436.509 -131.76 438.216 -134.528 440.333 -136.944L440.888 -136.517C440.369 -135.874 439.857 -135.225 439.345 -134.583L439.35 -134.591ZM415.01 -24.8605L414.423 -23.3883L413.142 -24.09L413.533 -25.3016L410.991 -27.973L415.012 -24.8538L415.01 -24.8605ZM320.743 4.94455L320.992 5.56424C320.236 5.99299 319.46 6.39121 318.753 6.8929C318.227 7.26155 317.757 7.70846 317.287 8.14869L314.665 8.67735L313.525 8.98321L313.448 9.11613L312.98 7.54612L313.005 9.8617L312.978 9.90159L312.997 9.99451L313.024 12.0817L308.166 13.7107C308.162 13.6563 308.164 13.6005 308.167 13.5447C308.162 13.2486 308.165 12.9167 308.072 12.5968C307.704 11.3174 307.327 10.0327 306.952 8.75472C306.549 7.40634 306.153 6.05663 305.769 4.70421C305.572 3.99817 305.41 3.26416 305.259 2.54872C305.211 2.30979 305.161 2.06424 305.106 1.82665L317.815 -3.00151L320.752 4.9565L320.743 4.94455ZM308.147 14.1635L310.007 20.7158L306.332 22.0853L308.127 26.8757L306.201 27.3607L304.308 26.3267C302.569 25.3788 300.838 24.4296 299.09 23.5043C298.293 23.078 297.928 22.6059 297.822 21.8745C297.668 20.766 297.469 19.6457 297.278 18.5585C297.211 18.1921 297.151 17.8245 297.081 17.4448L308.139 14.1582L308.147 14.1635ZM176.471 113.14L181.373 113.063C181.393 114.565 181.071 115.984 180.754 117.36L180.667 117.75L175.848 117.486L176.47 113.134L176.471 113.14ZM206.798 196.673C208.58 196.707 210.424 196.743 212.218 196.837C212.299 196.862 212.476 197.089 212.58 197.227C212.637 197.305 212.701 197.382 212.757 197.453L212.653 197.965L206.221 199.704L205.522 196.647L206.798 196.673ZM272.691 215.321C273.586 214.45 274.63 214.115 275.733 213.762C276.18 213.616 276.635 213.476 277.094 213.287L276.912 216.079L272.696 215.313L272.691 215.321ZM310.376 214.891C310.46 214.86 310.537 214.831 310.613 214.795C310.894 214.683 311.143 214.584 311.36 214.561C312.999 214.403 314.636 214.266 316.28 214.128L317.679 214.012L318.746 219.301C316.627 222.187 313.86 222.062 311.185 221.607L310.376 214.891ZM348.834 184.247L357.422 182.515L358.169 184.712L350.423 191.544L350.216 190.654C349.977 189.638 349.764 188.756 349.573 187.876C349.38 186.989 349.201 186.1 349.018 185.156L348.836 184.253L348.834 184.247ZM340.706 180.347L346.96 178.65L348.361 183.576L341.306 184.998L340.706 180.347ZM395.26 178.593L391.335 182.658L390.17 180.304L395.26 178.593ZM501.519 127.529C501.581 125.644 501.637 123.761 501.728 121.885C501.795 120.401 501.917 118.919 502.087 117.158C502.104 116.968 502.169 116.775 502.221 116.626L504.004 116.937C504.032 117.422 504.061 117.906 504.09 118.391C504.178 119.823 504.268 121.297 504.292 122.749C504.298 123.363 504.127 124.054 503.835 124.596C503.164 125.822 502.417 127.05 501.696 128.232C501.628 128.342 501.566 128.445 501.498 128.555L501.532 127.526L501.519 127.529ZM587.657 107.174L585.175 107.095L583.672 99.6416L585.701 98.9838L585.431 87.5733C585.669 89.6456 585.893 91.7139 586.118 93.7889C586.267 95.1815 586.417 96.5741 586.573 97.9653C586.802 99.9911 587.039 102.022 587.289 104.12L587.649 107.169L587.657 107.174ZM591.368 168.869C592.124 167.17 592.948 165.366 593.91 163.563C593.954 163.782 593.991 163.996 594.028 164.216C594.305 165.694 594.56 167.093 594.452 168.544L591.372 169.096C591.354 169.003 591.348 168.908 591.368 168.869ZM590.105 123.492L589.78 120.718C589.445 117.857 589.111 115.003 588.763 112.145C588.63 111.074 588.459 109.989 588.297 108.945C588.219 108.456 588.14 107.961 588.068 107.465L588.047 107.365L590.205 107.172L590.128 107.546C590.005 108.131 589.881 108.715 589.75 109.301C589.658 109.699 589.551 110.094 589.427 110.54L589.156 111.562L611.613 119.147L590.103 123.485L590.105 123.492ZM749.464 -149.12L746.75 -149.222C746.163 -150.831 744.773 -151.179 743.543 -151.49C742.707 -151.702 741.907 -151.899 741.302 -152.434L740.947 -162.48C741.241 -162.429 741.526 -162.383 741.819 -162.338C742.74 -162.186 743.696 -162.033 744.616 -161.825C745.94 -161.526 747.244 -161.188 748.63 -160.825C749.155 -160.689 749.694 -160.549 750.248 -160.405L749.457 -149.119L749.464 -149.12ZM495.106 -255.291L486.744 -255.553C486.776 -255.808 486.809 -256.056 486.836 -256.296C486.916 -256.927 486.996 -257.524 487.04 -258.126C487.157 -259.67 487.268 -261.211 487.372 -262.752L487.473 -264.202C489.525 -263.821 491.555 -264.03 493.524 -264.234C493.976 -264.284 494.437 -264.328 494.891 -264.372L495.115 -255.279L495.106 -255.291ZM362.605 -81.2591L363.203 -80.5856C362.701 -80.0975 362.242 -79.7011 361.98 -79.7312C361.81 -79.7522 361.601 -80.0002 361.386 -80.3158L362.605 -81.2591ZM339.342 -40.1632L335.635 -46.7988L337.917 -48.3294L341.249 -41.2245L339.342 -40.1632ZM341.984 -34.5628L328.925 -29.3531L330.976 -22.9153L328.44 -21.9619C328.134 -22.5562 327.821 -23.1492 327.509 -23.7356C326.397 -25.8251 325.249 -27.9902 324.534 -30.3047L339.406 -39.4025L341.99 -34.5708L341.984 -34.5628ZM320.928 -9.652L321.79 -5.37793L318.011 -3.70423L317.362 -5.55543C316.822 -7.10408 316.299 -8.60097 315.757 -10.0872C315.399 -11.0785 315.007 -12.0631 314.621 -13.049C314.491 -13.3887 314.352 -13.7337 314.221 -14.0734L328.126 -20.8487L331.931 -13.2107L320.922 -9.65067L320.928 -9.652ZM264.556 55.9332L260.266 57.9171L255.318 53.7904C255.692 53.3144 256.055 52.8544 256.412 52.4024C257.374 51.1793 258.282 50.0293 259.208 48.9032C259.814 48.1733 260.47 47.4539 261.097 46.7612C261.324 46.5152 261.544 46.2705 261.77 46.0245L264.401 47.9044L264.557 55.9399L264.556 55.9332ZM186.636 52.9918L184.601 50.5705L187.347 49.0843L188.855 51.7016L186.636 52.9918ZM153.105 79.2649L153.099 79.1002C153.587 78.9467 154.067 78.7946 154.554 78.6412L154.5 78.6798L157.584 78.7L157.747 80.2626L152.723 81.2757L153.104 79.2582L153.105 79.2649ZM226.836 205.927C226.99 205.634 227.143 205.327 227.191 204.985C227.37 203.851 227.541 202.712 227.713 201.579L229.309 206.036L226.829 205.929L226.836 205.927ZM228.107 198.978C228.366 197.248 228.625 195.517 228.891 193.792C228.91 193.678 229.017 193.525 229.119 193.38C229.151 193.332 229.184 193.291 229.216 193.243L232.173 192.806L231.893 197.821L234.232 198.289L227.822 200.887C227.922 200.252 228.014 199.612 228.107 198.978ZM242.706 216.747C243.858 216.432 244.984 215.95 246.065 215.49C246.529 215.293 246.987 215.097 247.454 214.913L254.358 214.964L254.342 216.259C253.415 216.832 252.495 217.405 251.574 217.977C249.223 219.439 246.793 220.951 244.39 222.389C243.082 223.164 241.699 222.952 240.043 222.375L239.6 221.172C239.364 218.803 240.357 217.394 242.712 216.739L242.706 216.747ZM284.639 218.506L279.639 222.277L277.168 222.624L276.993 216.139L278.971 216.292C280.479 216.403 281.902 216.51 283.34 216.655C283.721 216.695 284.104 216.811 284.503 216.938C284.598 216.967 284.694 216.996 284.796 217.024L284.634 218.514L284.639 218.506ZM345.908 227.306L344.015 210.214L335.962 210.898L335.972 209.992C338.649 208.229 341.463 206.294 344.042 203.806C344.887 205.804 345.445 207.922 345.982 209.969C346.602 212.323 347.239 214.764 348.324 217.059L348.445 217.318L354.346 215.617C354.375 215.729 354.411 215.839 354.44 215.95C354.583 216.453 354.738 216.982 354.922 217.483C355.078 217.914 355.258 218.327 355.473 218.809C355.539 218.968 355.614 219.132 355.69 219.304C354.103 220.646 352.55 222.023 350.916 223.478C348.381 225.736 345.756 228.062 342.947 230.299L341.663 228.486L345.913 227.298L345.908 227.306ZM354.966 155.846L351.48 158.973L351.188 157.934L354.966 155.846ZM377.167 180.66C376.489 178.324 375.86 176.027 375.196 173.592C374.956 172.708 374.714 171.817 374.464 170.921C377.878 169.183 381.302 168.251 384.545 167.514L389.528 179.963L378.481 184.229C378.364 183.921 378.241 183.621 378.124 183.313C377.784 182.449 377.424 181.555 377.166 180.654L377.167 180.66ZM373.474 215.365L371.623 206.186L376.711 201.755L378.518 206.129L383.443 204.383C383.469 204.509 383.501 204.634 383.527 204.766C383.672 205.449 383.851 206.304 384.866 206.541L384.952 206.558L385.039 206.541C385.776 206.33 386.502 206.128 387.222 205.928C388.988 205.44 390.656 204.979 392.335 204.468C393.343 204.155 394.097 204.369 394.954 205.19C396.194 206.377 397.452 207.546 398.761 208.76L400.545 210.417L400.528 210.434C400.48 210.471 400.414 210.519 400.342 210.575C400.126 210.736 399.824 210.949 399.567 211.215C397.949 212.854 396.366 214.457 394.809 216.118C394.555 216.397 394.41 216.744 394.278 217.082C394.241 217.172 394.204 217.262 394.172 217.345L393.434 218.205L392.698 218.768L382.43 227.925L380.819 226.337C379.18 224.719 377.535 223.103 375.886 221.502C375.32 220.953 374.74 220.407 374.168 219.866C373.333 219.082 372.471 218.268 371.648 217.439C371.353 217.14 371.124 216.758 370.889 216.349C370.85 216.288 370.816 216.226 370.783 216.163L373.476 215.372L373.474 215.365ZM460.656 183.301L450.117 174.845L452.568 173.404C454.015 172.567 455.468 171.721 456.922 170.883C458.754 169.829 460.587 168.783 462.427 167.735L464.495 166.551L464.612 169.256C464.735 172.194 464.858 175.132 464.994 178.068C465.019 178.601 465.085 179.134 465.147 179.646C465.172 179.876 465.206 180.111 465.232 180.34L465.221 182.58L465.464 182.656C468.764 183.641 471.506 185.561 474.154 187.423C475.087 188.078 476.053 188.76 477.03 189.392C479.371 190.895 481.738 192.462 484.024 193.969L485.737 195.102C486.368 195.52 486.986 195.948 487.66 196.413L488.373 196.905C487.896 197.553 487.494 198.229 487.102 198.888C486.351 200.165 485.635 201.373 484.452 202.219L481.349 199.848L481.141 200.048C480.979 200.205 480.815 200.349 480.662 200.483C480.345 200.761 480.047 201.029 479.799 201.341C477.692 203.976 475.6 206.615 473.501 209.256C472.03 211.106 470.566 212.955 469.093 214.799C468.779 215.194 468.428 215.576 468.095 215.947C468 216.056 467.898 216.166 467.801 216.269L465.821 214.976C462.861 213.038 459.895 211.108 456.935 209.17C455.432 208.189 453.935 207.206 452.431 206.218L449.565 204.337L447.374 206.968L443.889 204.377L460.661 183.293L460.656 183.301ZM553.371 181.794C553.49 181.839 553.611 181.891 553.639 181.927C553.801 182.253 553.86 182.649 553.93 183.063C553.961 183.216 553.978 183.371 554.009 183.524L556.633 196.842L555.074 196.542L553.371 181.794ZM545.884 133.196L547.26 132.76L548.134 140.243L546.018 140.47L545.883 133.19L545.884 133.196ZM622.115 116.428L622.487 115.601L626.754 103.296L629.595 103.068L630.111 105.561C630.644 108.134 631.178 110.713 631.677 113.292C631.764 113.723 631.765 114.172 631.764 114.648C631.767 114.765 631.763 114.883 631.766 115L622.109 116.844C622.109 116.844 622.088 116.841 622.08 116.836L622.121 116.42L622.115 116.428ZM696.912 145.423C697.175 144.23 697.438 143.031 697.723 141.841C698.64 138.002 699.573 134.167 700.514 130.338C700.925 128.68 701.337 127.022 701.755 125.363C702.251 123.371 702.755 121.384 703.243 119.386C703.485 118.391 703.698 117.395 703.92 116.335C704.022 115.852 704.123 115.355 704.24 114.841L704.312 114.515L703.987 114.443C703.161 114.25 702.365 114.072 701.583 113.892C700.026 113.536 698.542 113.199 697.068 112.841C689.559 111.019 682.784 109.374 675.874 107.646C675.524 107.557 675.184 107.343 674.832 107.103L676.886 106.502L674.066 92.5186C675.09 88.0025 676.111 83.4798 677.135 78.9637C677.433 77.6328 677.73 76.3019 678.044 74.9126L678.582 72.5111L669.595 70.3107L668.822 65.8944L670.079 65.9654C671.414 66.0416 672.75 66.1245 674.087 66.1794C675.194 66.2255 676.307 66.2635 677.413 66.3029C678.833 66.3551 680.251 66.4006 681.674 66.4727C683.272 66.5512 684.89 66.6668 686.46 66.7784C687.035 66.8213 687.61 66.8642 688.184 66.9005C688.185 66.9762 688.188 67.0585 688.189 67.1342C688.199 67.5259 688.21 67.8896 688.158 68.2456C687.727 71.178 687.29 74.1117 686.845 77.0468C686.524 79.1837 686.202 81.3206 685.886 83.4562C685.838 83.763 685.844 84.0657 685.852 84.3817C685.854 84.5265 685.855 84.6712 685.857 84.8159L685.855 85.1133L720.999 90.4029L715.506 126.665L735.587 129.73C735.589 129.805 735.595 129.873 735.604 129.947C735.629 130.281 735.646 130.602 735.585 130.883C734.839 134.17 734.079 137.32 733.177 141.101C732.229 145.063 731.274 149.026 730.296 152.981C730.094 153.795 729.849 154.597 729.591 155.444C729.5 155.745 729.409 156.047 729.312 156.356L714.04 152.75L714.033 152.752L710.877 151.724C706.345 150.248 701.815 148.779 697.288 147.288C697.11 147.227 696.937 147.09 696.748 146.941C696.707 146.908 696.666 146.875 696.618 146.843L696.932 145.419L696.912 145.423ZM785.345 -190.827L789.582 -191.668L789.548 -190.881L788.183 -190.868C787.239 -190.857 786.295 -190.846 785.352 -190.829L785.345 -190.827ZM841.826 -156.247L851.549 -158.207L853.227 -149.885L840.735 -151.793L841.827 -156.24L841.826 -156.247ZM847.877 -179.803L854.912 -180.711L854.941 -180.979C854.958 -181.134 854.985 -181.306 855.013 -181.477C855.085 -181.906 855.159 -182.397 855.109 -182.884C855.029 -183.725 854.869 -184.556 854.719 -185.368C854.684 -185.541 854.649 -185.713 854.614 -185.886L856.789 -185.613C859.581 -185.264 862.374 -184.909 865.171 -184.534C865.604 -184.476 866.025 -184.34 866.477 -184.189C866.603 -184.146 866.728 -184.109 866.86 -184.066L866.619 -180.364C866.317 -175.731 866.022 -171.099 865.699 -166.469C865.616 -165.34 865.502 -164.191 865.394 -163.085C865.345 -162.606 865.297 -162.126 865.251 -161.634L852.077 -158.977L847.877 -179.803ZM811.386 -132.662L812.403 -132.791C813.466 -132.929 814.523 -133.067 815.583 -133.218C816.1 -133.295 816.616 -133.406 817.165 -133.524C817.398 -133.57 817.643 -133.62 817.902 -133.672L817.929 -133.436C818.819 -125.597 819.692 -117.982 820.558 -110.366L815.937 -110.056L811.383 -132.641L811.386 -132.662ZM818.284 -134.074C817.952 -137.432 817.621 -140.681 817.26 -144.255C817.576 -144.194 817.877 -144.138 818.172 -144.08C819.049 -143.911 819.802 -143.773 820.544 -143.584C823.577 -142.828 826.036 -142.178 828.277 -141.545C828.716 -141.42 829.142 -141.195 829.584 -140.952C829.724 -140.877 829.863 -140.801 830.002 -140.733L829.185 -135.43L818.312 -133.831L818.285 -134.067L818.284 -134.074ZM780.407 -187.642C780.471 -185.031 780.532 -182.57 780.557 -180.082C780.577 -178.442 780.568 -176.776 780.561 -175.165C780.558 -174.426 780.556 -173.686 780.553 -172.947C778.389 -172.579 776.164 -172.207 773.754 -172.411C775.135 -178.167 776.48 -183.756 777.813 -189.343L780.348 -189.854L780.406 -187.649L780.407 -187.642ZM832.469 -243.4C832.658 -246.574 832.846 -249.754 833.054 -252.932C833.254 -255.949 833.462 -258.961 833.668 -261.979L834.014 -267.043C834.047 -267.463 834.065 -267.888 834.083 -268.313C834.112 -269.024 834.144 -269.755 834.236 -270.465C834.328 -271.243 834.187 -271.836 833.79 -272.267C834.193 -272.286 834.602 -272.313 835.006 -272.333C836.762 -272.424 838.578 -272.528 840.356 -272.583C844.989 -272.73 849.62 -272.849 854.251 -272.968L857.295 -273.043C857.583 -273.052 857.872 -273.028 858.186 -273.008C858.263 -273.003 858.347 -272.999 858.424 -272.994C858.768 -271.392 858.822 -269.752 858.594 -267.869L855.753 -267.503C852.993 -267.147 850.233 -266.791 847.482 -266.429C847.01 -266.369 846.548 -266.262 846.052 -266.155C845.82 -266.108 845.582 -266.053 845.33 -266.002L845.025 -265.941L845.06 -265.63C845.161 -264.787 845.272 -263.96 845.374 -263.145C845.598 -261.422 845.809 -259.793 845.971 -258.134C846.165 -256.142 846.331 -254.118 846.486 -252.153C846.551 -251.351 846.617 -250.542 846.684 -249.734L833.589 -247.093L836.249 -233.906L831.941 -234.032C832.118 -237.3 832.288 -240.359 832.473 -243.415L832.469 -243.4ZM550.304 -225.701L537.52 -225.354L538.538 -231.029L539.987 -231.239C541.202 -231.414 542.37 -231.581 543.534 -231.767C544.27 -231.888 545.014 -232.031 545.731 -232.176C546.182 -232.267 546.647 -232.36 547.025 -232.437L549.559 -232.478L550.305 -225.694L550.304 -225.701ZM502.641 -265.223L495.319 -264.714L495.506 -269.199L502.195 -270.279L502.641 -265.223ZM154.186 103.565L156.548 102.813L158.74 107.24L153.656 106.725L154.18 103.567L154.186 103.565ZM166.827 117.717L168.42 117.775C170.458 117.848 172.497 117.92 174.535 117.992C174.709 117.999 174.88 117.992 175.106 117.981L175.331 117.97L175.042 124.41C174.718 124.379 174.387 124.349 174.064 124.324C173.072 124.234 172.047 124.151 171.046 124.014C169.845 123.849 168.645 123.649 167.371 123.429C166.899 123.352 166.42 123.269 165.919 123.183L166.828 117.723L166.827 117.717ZM214.85 217.489C216.073 216.98 217.34 216.448 218.611 216.04C220.168 215.539 221.791 215.129 223.356 214.737C223.862 214.608 224.368 214.478 224.873 214.349L224.681 215.175C224.212 215.387 223.743 215.592 223.266 215.798C222.062 216.332 220.817 216.873 219.607 217.448C218.661 217.894 217.743 218.377 216.761 218.885C216.311 219.121 215.848 219.359 215.373 219.607L215.16 219.712L215.187 219.949C215.376 221.471 216.109 222.74 216.818 223.964C217.15 224.546 217.497 225.139 217.773 225.754L216.725 226.345L213.479 218.055C213.933 217.874 214.385 217.686 214.836 217.492L214.85 217.489ZM882.746 -312.874C883.08 -309.847 883.388 -307.022 883.688 -304.231L883.797 -303.21L867.889 -300.002L873.103 -274.145L859.371 -273.848L859.288 -275.834C859.194 -278.012 859.112 -280.06 859.06 -282.136C858.842 -290.407 858.664 -297.969 858.507 -305.258C858.484 -306.4 858.511 -307.566 858.54 -308.69C858.548 -309.162 858.565 -309.628 858.569 -310.119L882.746 -312.874ZM560.684 -234.231C559.267 -234.063 557.85 -233.901 556.432 -233.74C554.887 -233.559 553.34 -233.386 551.796 -233.199C551.56 -233.172 551.326 -233.131 551.087 -233.083C550.895 -233.044 550.696 -233.004 550.491 -232.956C550.279 -232.913 550.061 -232.863 549.829 -232.816L549.67 -232.784L550.252 -235.339L561.011 -237.509L561.628 -234.449C561.594 -234.442 561.555 -234.434 561.521 -234.428C561.227 -234.348 560.957 -234.279 560.681 -234.244L560.684 -234.231ZM503.846 -270.964L502.372 -270.839L502.618 -271.676L508.033 -272.768L508.181 -271.52C508.141 -271.512 508.098 -271.49 508.059 -271.475C507.794 -271.387 507.548 -271.303 507.305 -271.275C506.175 -271.157 505.048 -271.061 503.847 -270.957L503.846 -270.964ZM129.099 73.3454C129.248 72.8181 129.377 72.3638 129.477 71.9016C129.613 71.3078 129.727 70.7048 129.833 70.1032L129.923 69.6224C129.998 69.6209 130.081 69.6181 130.156 69.6167C130.869 69.5903 131.548 69.564 132.066 69.9429L132.142 74.0509L128.873 74.1093C128.949 73.8383 129.017 73.5899 129.085 73.3481L129.099 73.3454ZM159.998 163.276L172.107 164.211L172.137 168.162C171.842 168.139 171.541 168.117 171.241 168.101C170.345 168.04 169.412 167.973 168.511 167.851C166.315 167.548 164.164 167.222 161.889 166.866L159.124 166.442L159.996 163.269L159.998 163.276ZM123.334 210.01L123.575 210.244L122.92 219.396L121.806 219.524L123.334 210.01ZM728.112 164.997C728.132 164.889 728.145 164.783 728.166 164.682C728.239 164.218 728.315 163.74 728.424 163.29C728.783 161.781 729.156 160.276 729.543 158.734L729.876 157.403C730.48 157.523 731.078 157.644 731.667 157.76C733.184 158.055 734.616 158.339 736.044 158.673C738.872 159.339 741.733 160.067 744.5 160.773L745.702 161.084C746.103 161.189 746.498 161.331 746.908 161.483C747.013 161.524 747.125 161.563 747.228 161.598L746.343 167.723L728.107 165.005L728.112 164.997ZM847.657 132.926L847.7 131.805C847.756 130.268 847.812 128.73 847.889 127.195C848.074 123.387 848.246 120.299 848.435 117.471C848.459 117.107 848.578 116.738 848.705 116.339C848.741 116.214 848.785 116.088 848.827 115.955C849.15 115.945 849.457 115.925 849.758 115.912C850.523 115.869 851.241 115.834 851.948 115.878C856.739 116.176 861.608 116.52 866.324 116.854L867.949 116.968C867.949 116.968 868.065 117.028 868.122 117.072L868.138 117.082L868.466 132.445C861.481 132.604 854.573 132.768 847.665 132.931L847.657 132.926ZM867.647 -70.4311C867.571 -70.8094 867.5 -71.1957 867.457 -71.5807C867.211 -73.7273 866.969 -75.8819 866.73 -78.0299C866.493 -80.13 866.264 -82.2249 866.026 -84.3251C865.795 -86.3642 865.549 -88.4072 865.31 -90.445C866.512 -84.4852 867.714 -78.5254 868.908 -72.5708L869.313 -70.5599L867.681 -70.2307C867.667 -70.297 867.655 -70.3568 867.642 -70.4231L867.647 -70.4311ZM940.59 -278.554C940.467 -280.091 940.347 -281.676 940.316 -283.237C940.254 -285.801 940.238 -288.415 940.213 -290.938C940.195 -293.048 940.177 -295.158 940.144 -297.271C940.082 -300.767 939.985 -304.263 939.895 -307.754C939.849 -309.63 939.796 -311.498 939.751 -313.367C941.506 -314.115 952.181 -316.461 956.154 -316.862L957.127 -312.037C959.307 -301.26 961.493 -290.457 963.685 -279.655L952.683 -278.452C952.137 -278.39 951.58 -278.34 951.032 -278.284C950.064 -278.186 949.088 -278.093 948.119 -277.966C946.295 -277.73 944.467 -277.479 942.641 -277.221L940.707 -276.948C940.667 -277.486 940.628 -278.023 940.582 -278.56L940.59 -278.554ZM910.618 -316.899L902.907 -315.717L895.945 -315.032C893.558 -314.813 891.164 -314.592 888.783 -314.347C888.066 -314.272 887.352 -314.148 886.659 -314.022C886.218 -313.947 885.785 -313.867 885.343 -313.798C884.934 -313.737 884.514 -313.7 884.046 -313.654L883.647 -313.615C883.586 -313.914 883.521 -314.205 883.458 -314.482C883.296 -315.216 883.142 -315.91 883.051 -316.603C882.646 -319.74 882.279 -322.933 881.939 -325.917C881.782 -327.349 881.637 -328.784 881.493 -330.22C881.369 -331.452 881.245 -332.684 881.114 -333.914C880.993 -335.064 880.86 -336.204 880.732 -337.353C880.546 -338.993 880.358 -340.641 880.193 -342.286C880.07 -343.58 879.983 -344.902 879.903 -346.185C879.874 -346.676 879.842 -347.174 879.808 -347.685L883.492 -348.428C889.445 -349.628 895.404 -350.83 901.355 -352.044C901.833 -352.14 902.303 -352.277 902.76 -352.404C902.964 -352.458 903.165 -352.52 903.375 -352.576C905.788 -340.679 908.2 -328.788 910.613 -316.891L910.618 -316.899ZM930.341 110.961C930.373 111.121 930.405 111.28 930.437 111.439L919.759 112.564C919.367 112.608 918.989 112.65 918.598 112.701L909.647 113.967C909.617 113.269 909.585 112.564 909.548 111.867C909.473 110.397 909.405 108.933 909.365 107.463C909.249 103.536 909.141 99.6069 909.039 95.5733L908.93 91.61C909.216 91.587 909.496 91.5719 909.775 91.5503C910.571 91.4932 911.32 91.4389 912.067 91.4125C917.184 91.2715 922.3 91.1585 927.416 91.0454C927.587 91.0385 927.769 91.0847 927.964 91.1282C927.986 91.1308 928.008 91.1401 928.03 91.1427C928.138 91.9565 928.261 92.7675 928.375 93.5733C928.657 95.5539 928.952 97.6009 929.173 99.6214C929.38 101.472 929.54 103.36 929.694 105.187C929.807 106.497 929.919 107.807 930.046 109.122C930.109 109.744 930.227 110.363 930.348 110.96L930.341 110.961ZM987.022 63.14C987.093 63.6989 987.162 64.279 987.269 64.8445C988.731 72.1954 990.198 79.5383 991.666 86.8878L991.976 88.4276L988.261 89.1492C985.09 89.761 981.919 90.3729 978.752 91.0047C978.533 91.0488 978.307 91.0943 978.088 91.1385C976.668 91.4249 975.25 91.7246 973.833 92.0243L971.972 92.4203L971.137 84.4456C971.114 84.1947 971.098 83.9425 971.075 83.6915C971.052 83.3716 971.029 83.0516 970.991 82.7277L970.635 79.4912C970.305 76.4498 969.976 73.415 969.633 70.3763C969.469 68.9452 969.276 67.5128 969.084 66.0804L968.891 64.6415L986.955 62.7046C986.971 62.8533 986.994 63.0006 987.01 63.1493L987.022 63.14ZM967.74 60.8193L967.826 61.9279C967.868 62.5133 967.979 63.0986 968.086 63.6641C968.113 63.7969 968.138 63.923 968.165 64.0557L964.863 64.4314C961.845 64.7709 958.826 65.1103 955.811 65.4696C954.211 65.6541 952.612 65.873 951.011 66.0854C950.392 66.1687 949.767 66.2533 949.147 66.33C948.998 62.7479 948.855 59.1645 948.713 55.581L948.699 55.342C948.65 54.2746 948.607 53.2058 948.565 52.1436C948.613 52.1064 948.653 52.0639 948.7 52.0266C948.8 51.9375 948.911 51.839 948.964 51.8283C954.276 50.7364 959.592 49.6644 964.914 48.5844L966.181 48.3287C967.113 52.4367 967.433 56.6957 967.747 60.8179L967.74 60.8193ZM825.949 52.9873C826.27 66.2592 826.593 79.5723 826.913 93.1483L826.92 93.4922L827.263 93.4784C829.467 93.4138 831.498 93.3495 833.531 93.2918L849.328 92.8205L849.331 92.8337C849.233 94.5388 849.143 96.249 849.038 97.9554C848.946 99.4175 848.848 100.887 848.75 102.351C848.611 104.437 848.478 106.515 848.347 108.607C848.234 110.446 848.142 112.281 848.049 114.22L848.005 115.064C846.983 114.994 845.974 114.921 844.978 114.846C842.329 114.655 839.833 114.474 837.29 114.331C835.425 114.224 833.535 114.17 831.7 114.112C831.006 114.093 830.31 114.067 829.615 114.049C829.628 113.873 829.633 113.693 829.646 113.517C829.676 112.945 829.715 112.35 829.784 111.77C829.936 110.503 830.123 109.236 830.307 107.921L830.569 106.072L830.205 106.049C829.876 106.026 829.584 106.016 829.305 106.003C828.775 105.978 828.315 105.954 827.874 105.891C824.205 105.339 820.273 104.744 816.318 104.105C814.983 103.891 813.639 103.63 812.331 103.376C811.821 103.278 811.311 103.181 810.801 103.083C810.853 101.905 810.906 100.728 810.958 99.5498C811.081 96.7347 811.211 93.8147 811.387 90.9544C811.537 88.5482 811.72 86.1008 811.898 83.7305C812.043 81.8089 812.194 79.8861 812.317 77.962C812.368 77.1918 812.346 76.4296 812.321 75.6197C812.308 75.2493 812.301 74.8709 812.291 74.4792L812.289 74.1619L773.937 71.7296L775.744 43.5313L785.699 42.173C785.735 42.7319 785.771 43.2843 785.814 43.8419C785.92 45.3952 786.026 46.9485 786.106 48.5072C786.158 49.6225 786.181 50.7298 786.196 51.9009C786.208 52.4373 786.215 52.9883 786.223 53.5393L786.229 53.8765L825.935 52.8173L825.941 52.982L825.949 52.9873ZM214.76 227.798L216.356 227.324L219.539 234.922L216.771 236.164L214.766 227.797L214.76 227.798ZM807.188 150.756C807.206 150.981 807.23 151.204 807.238 151.416L807.116 151.392C806.88 151.35 806.678 151.308 806.49 151.27C806.131 151.197 805.842 151.138 805.541 151.116C804.663 151.044 803.785 150.973 802.908 150.901C800.266 150.681 797.528 150.46 794.839 150.311C792.988 150.208 791.113 150.192 789.293 150.173C788.566 150.167 787.839 150.155 787.111 150.143C787.102 150.062 787.092 149.981 787.089 149.899C787.046 149.514 787.014 149.147 787.064 148.813C787.491 145.998 787.939 143.187 788.398 140.325L788.791 137.856C788.881 137.858 788.965 137.862 789.049 137.866C789.398 137.885 789.732 137.901 790.045 137.941L791.027 138.088C793.688 138.471 796.442 138.875 799.138 139.298C801.15 139.618 803.16 139.959 805.176 140.298L807.536 140.699L807.426 142.69C807.31 144.785 807.194 146.88 807.114 148.982C807.091 149.588 807.141 150.179 807.187 150.75L807.188 150.756Z" fill="#3C572C"/>
<path d="M498.568 237.324C496.897 236.231 496.812 236.221 495.742 237.832C492.617 242.509 489.525 247.214 486.378 251.883C484.704 254.368 482.948 256.794 480.978 259.595C489.072 265.173 496.848 270.305 504.622 275.36C507.061 272.624 519.888 252.936 520.102 251.636C517.18 249.649 514.264 247.62 511.313 245.659C507.08 242.853 502.816 240.1 498.566 237.317L498.568 237.324Z" fill="#3C572C"/>
</g>
<defs>
<clipPath id="clip0_3131_127619">
<rect width="1003.12" height="590.341" fill="white" transform="translate(0 -216.703) rotate(-11.4014)"/>
</clipPath>
</defs>
</svg>
