<svg width="1440" height="383" viewBox="0 0 1440 383" fill="none" xmlns="http://www.w3.org/2000/svg">
<g clip-path="url(#clip0_3128_122764)">
<path d="M1519.6 -228.028C1526.15 -229.037 1532.7 -230.054 1539.24 -231.043C1540.6 -231.245 1541.99 -231.312 1544.04 -231.499C1551.78 -187.576 1559.47 -143.943 1567.27 -99.6199C1551.79 -96.4053 1536.6 -94.2005 1520.78 -91.3124C1519.28 -99.6119 1517.82 -107.591 1516.4 -115.429C1512.39 -115.861 1463.99 -103.295 1457.97 -100.278C1459.51 -81.8697 1461.07 -63.2102 1462.62 -44.6797C1459.11 -43.0272 1423.99 -39.653 1418.2 -40.4262C1417.22 -50.6998 1416.21 -61.1379 1415.22 -71.4204C1411.05 -72.1797 1369 -65.2122 1363.47 -62.8584C1362.7 -39.5902 1363.71 -15.9697 1362.99 8.20689C1348.9 8.64444 1335.12 8.43734 1320.71 8.27383C1320.69 -4.84344 1320.67 -17.553 1320.66 -30.1133C1316.76 -31.1445 1282.5 -28.388 1276.34 -26.57C1273.9 0.709886 1271.43 28.2823 1268.91 56.4595C1255.34 55.255 1242.39 54.1052 1228.84 52.9049C1230.09 38.1156 1231.29 23.8619 1232.49 9.77093C1228.97 8.09631 1205.6 7.54302 1196.79 8.88904C1191.1 38.9672 1186.1 69.4243 1180.44 100.391C1167.75 98.1608 1155.57 96.0246 1142.76 93.7805C1145.91 75.9428 1148.97 58.6058 1152.15 40.6385C1158.58 41.6398 1164.71 42.5969 1171.49 43.6572C1173.54 32.0106 1175.53 20.7441 1177.65 8.66838C1167.8 7.94537 1158.65 8.29855 1148.97 8.56435C1147.8 21.0124 1146.66 33.0342 1145.48 45.4266C1138.2 44.9092 1131.34 44.4118 1123.83 43.8716C1115.18 75.9588 1106.61 107.739 1097.86 140.187C1086.19 137.06 1074.85 134.032 1062.81 130.822C1067.25 114.276 1071.6 98.039 1076.1 81.2694C1082.07 82.8018 1087.66 84.2267 1093.17 85.6375C1095.36 82.4351 1104.78 48.1067 1105 42.1706C1094.21 40.8988 1083.34 40.0273 1071.89 39.3881C1069.42 52.9736 1067.02 66.1012 1064.51 79.9436C1043.44 76.2554 1022.87 72.6438 1001.64 68.9313C997.051 82.843 994.228 97.0449 989.76 111.106C981.625 108.991 973.899 106.986 966.048 104.938C964.727 106.936 963.618 108.621 962.291 110.631C952.517 106.12 942.805 101.63 932.562 96.8931C931.738 98.7584 930.982 100.235 930.417 101.784C926.655 112.014 922.948 122.268 919.189 132.507C918.558 134.235 917.758 135.904 916.936 137.845C910.893 135.732 905.27 133.764 899.175 131.636C897.111 134.765 895.158 137.741 892.811 141.307C884.011 136.241 875.334 131.246 866.657 126.252C867.306 124.196 867.804 122.608 868.291 121.051C866.345 119.498 865.504 120.693 864.842 122.02C863.23 125.276 861.694 128.568 860.158 131.86C856.557 139.594 852.978 147.34 849.366 155.067C848.58 156.752 847.65 158.36 846.692 160.185C842.61 158.433 838.871 156.826 834.63 155.012C831.715 158.91 828.829 162.772 825.512 167.225C817.65 161.756 809.95 156.396 801.845 150.764C803.56 147.862 805.109 145.222 807.091 141.858C805.498 141.057 804.298 140.446 802.663 139.628C800.93 142.145 799.39 144.107 798.137 146.249C792.378 156.052 786.701 165.91 780.979 175.742C780.511 176.552 779.95 177.301 779.253 178.324C777.072 177.385 774.978 176.49 772.474 175.409C768.791 179.636 765.19 183.775 761.147 188.431C753.623 183.196 747.184 177.004 740.26 171.38C741.216 166.911 746.318 165.186 746.86 160.562C742.302 161.866 724.592 179.828 715.688 192.022C708.693 194.034 705.777 201.233 699.359 205.259C692.585 199.842 687.054 192.704 679.794 186.713C667.003 197.388 654.443 207.858 641.379 218.758C636.248 212.797 631.36 207.104 626.115 201.003C612.63 209.295 600.496 219.119 586.825 227.747C582.895 222.435 579.096 217.297 574.911 211.635C561.955 218.988 549.276 226.171 536.172 233.61C533.075 228.57 530.287 224.046 527.175 218.982C514.598 224.731 502.251 230.379 489.524 236.206C487.142 231.669 485.05 227.683 482.824 223.446C470.301 226.337 459.443 233.319 446.62 235.3C445.476 233.086 444.335 230.88 443.185 228.639C437.984 226.653 433.204 226.238 427.811 228.868C424.607 230.437 421.311 231.698 418.31 233.775C416.767 234.834 414.546 234.886 412.442 235.448C411.239 234.933 409.875 234.346 407.864 233.476C408.222 234.816 408.38 235.478 408.571 236.121C408.799 236.869 409.06 237.598 409.519 238.959L417.783 236.75C417.13 238.256 416.972 238.735 416.723 239.154C416.495 239.548 416.164 239.874 415.777 240.348C416.446 242.994 417.037 245.632 420.438 245.084L446.108 238.224C446.977 239.874 447.895 241.636 448.934 243.602C451.308 242.806 453.361 242.125 455.79 241.323C457.395 244.232 458.974 247.081 460.892 250.554C470.137 246.361 479.248 242.234 488.688 237.951C490.369 240.716 491.806 243.071 493.432 245.737C496.198 244.38 498.69 243.171 501.54 241.773C503.586 244.944 505.506 247.931 507.687 251.323C517.094 245.918 526.195 240.689 535.728 235.222C537.933 238.56 539.895 241.526 542.187 245.012C545.19 243.192 548.066 241.463 551.275 239.521C553.681 242.616 555.975 245.54 558.567 248.87C567.972 242.391 577.116 236.076 586.801 229.399C589.026 232.494 590.98 235.215 593.317 238.48C574.733 251.996 556.111 264.553 537.32 277.792C532.666 271.199 528.413 265.175 523.926 258.814C528.302 254.192 534.103 251.738 538.273 247.2C529.089 251.052 520.757 256.494 512.101 261.289C503.285 266.166 494.646 271.347 485.291 276.766C481.207 269.917 477.368 263.487 473.325 256.722C461.025 261.122 449.985 267.639 437.518 272.588C434.569 266.538 431.709 260.674 428.629 254.345C416.911 257.544 406.225 262.644 395.036 265.863C392.248 263.118 393.224 257.978 387.858 257.615C388.741 256.437 389.243 255.752 389.902 254.872C389.201 253.281 388.46 251.577 387.518 249.442C381.86 250.83 376.243 252.16 370.644 253.59C365.162 254.998 359.706 256.504 354.265 257.958C354.209 254.901 354.159 252.366 354.106 249.965C352.326 249.28 351.16 248.831 350.875 248.726C348.375 247.521 350.005 243.586 346.165 244.698C345.948 246.268 345.704 247.988 345.471 249.609C341.496 250.073 343.688 246.71 341.524 245.158C340.831 245.305 339.404 245.411 338.144 245.928C336.451 246.638 334.881 247.666 333.266 248.564L333.524 248.675C332.467 247.779 331.398 246.876 330.377 246.007C323.704 250.149 316.158 249.456 308.722 250.454C307.385 249.794 305.857 249.023 303.736 247.954C304.438 249.868 305.831 251.521 302.997 252.697C301.801 252.171 300.25 251.492 298.438 250.692C298.58 249.408 298.713 248.231 298.867 246.745C297.923 246.236 296.866 245.663 295.775 245.07C294.614 246.131 293.628 247.032 292.059 248.459C291.693 246.341 291.454 244.95 291.154 243.186C287.336 241.819 283.369 240.388 279.836 239.125C278.356 242.945 277.053 246.327 275.567 250.195C275.916 250.682 276.588 251.596 277.251 252.512C277.131 252.668 277.013 252.833 276.905 252.995C265.119 247.471 253.325 241.95 241.192 236.263C242.105 234.45 242.781 233.1 243.671 231.34C249.285 233.843 254.574 236.196 260.242 238.723C261.428 236.97 262.534 235.343 263.768 233.52C265.572 234.112 267.326 234.699 269.361 235.373C270.41 233.713 271.384 232.16 272.472 230.433C277.559 231.708 282.67 233.004 288.306 234.417C287.882 231.906 287.554 229.93 287.067 227.074C283.137 226.213 278.256 226.205 273.557 226.947C271.167 227.329 269.049 227.553 266.692 227.023C264.558 226.547 262.308 226.597 259.922 226.388C257.278 222.225 252.727 221.53 247.459 220.18C246.125 223.266 244.768 226.406 243.32 229.779C220.195 219.507 198.699 207.649 174.642 201.078C173.854 201.831 172.875 202.758 171.741 203.851C161.13 198.879 150.573 193.931 139.43 188.711C141.083 184.969 142.58 181.602 144.384 177.535C149.847 180.04 154.91 182.368 160.191 184.798C159.573 186.932 159.031 188.75 158.252 191.422C162.194 189.303 161.225 185.216 164.069 182.906C167.459 184.13 171.102 185.591 174.831 186.734C176.86 187.352 179.069 187.399 181.184 187.766C182.569 188.004 183.958 188.289 185.319 188.648C190.339 189.998 195.34 191.381 200.368 192.757C201.454 191.697 202.327 190.835 203.398 189.789C210.169 192.173 216.965 194.579 224.212 197.14C224.824 195.446 225.268 194.224 225.921 192.433C212.949 186.313 200.314 180.351 187.309 174.212C189.075 170.393 190.645 167.016 192.417 163.185C198.078 165.685 203.342 168.016 209.144 170.583C209.968 168.432 210.652 166.652 211.576 164.237C205.627 162.583 200.194 161.078 194.647 159.536C193.408 160.238 192.22 160.917 190.996 161.606C185.711 159.728 180.519 157.882 175.2 155.984C174.014 157.205 172.962 158.285 171.686 159.596C166.698 157.23 161.753 154.88 156.284 152.281C161.382 141.323 166.294 130.776 171.435 119.73C175.527 121.518 179.358 123.185 183.513 124.994C184.608 123.256 185.583 121.712 186.852 119.699C191.319 121.253 195.862 122.845 200.5 124.468C201.426 123.022 202.171 121.862 203.119 120.391C208.183 121.653 213.2 122.918 217.805 124.065C220.5 122.727 222.819 121.584 225.249 120.392C230.137 121.492 234.627 124.771 240.389 123.982C241.237 121.892 242.052 119.886 243.014 117.508C247.978 118.683 252.885 119.853 257.8 121.022C257.934 120.634 258.07 120.255 258.213 119.865C245.394 112.963 231.735 107.722 218.27 100.612C221.426 93.8442 224.505 87.2199 227.704 80.3642C231.113 81.6974 233.99 82.8209 237.274 84.1116C238.874 80.3839 240.339 76.9682 241.97 73.1465C245.761 74.3399 249.284 75.4618 253.417 76.7633C254.407 73.1703 255.27 70.0675 256.321 66.2774C254 65.9562 252.251 65.7103 250.493 65.4669C249.587 66.7363 248.872 67.7262 248.109 68.786C246.648 68.6916 245.244 68.6006 243.649 68.5039C242.783 69.2489 241.847 70.0507 240.757 70.9888C239.301 70.6647 237.782 70.3194 236.343 69.9905C234.435 71.0711 232.6 72.1036 229.797 73.6801C229.42 74.5799 228.639 76.4623 227.92 78.1855C221.927 76.8964 216.506 75.7205 210.834 74.4974C209.542 76.8873 208.281 79.2121 206.697 82.1461C201.935 79.9857 197.283 77.8813 192.13 75.54C195.438 68.4173 198.529 61.7616 201.662 55.0184C204.239 55.9082 206.27 56.6019 208.628 57.4173C209.886 54.5131 210.999 51.9522 212.297 48.9426C214.892 49.6851 217.393 50.3956 220.438 51.2557C221.397 48.831 222.296 46.5744 223.369 43.8626C226.298 44.4303 229.318 45.0211 232.779 45.6938C233.525 43.754 234.233 41.9195 235.108 39.641C238.411 40.0801 241.786 40.5381 245.326 41.0089C246.031 39.5556 246.626 38.3314 247.261 37.0396C247.685 36.9548 248.139 36.8048 248.589 36.7797C252.531 36.6201 256.69 38.6944 260.346 35.4349C260.891 34.947 262.183 35.3339 263.124 35.263C268.119 34.879 273.22 35.8171 278.088 33.7838C278.945 33.4312 280.204 34.1218 281.286 34.2224C284.275 34.5172 287.306 34.8961 289.265 32.7271C294.019 32.5789 298.347 32.4397 303.713 32.2704C299.403 26.4989 293.378 26.1975 288.366 23.7424C289.027 22.1583 289.557 20.904 290.246 19.2459C293.399 20.191 296.355 21.0748 299.652 22.0577C300.561 20.3024 301.391 18.6732 302.268 16.9742C305.154 17.7721 307.986 18.5464 311.046 19.3928C312.093 18.8276 313.29 18.1842 314.486 17.5319C314.606 17.6615 314.724 17.7822 314.835 17.9141C313.599 19.1955 312.36 20.468 310.997 21.8785L311.846 25.0561C310.779 26.5777 309.718 28.0881 308.52 29.7968C311.875 32.5996 315.381 31.0251 318.843 31.0605C323.314 31.1018 325.295 28.5848 327.259 25.1878C326.934 24.3618 326.555 23.4073 326.183 22.4796C328.362 20.0619 329.564 22.3179 331.161 23.0988C330.755 24.0347 330.387 24.8652 329.949 25.8574C331.088 27.2363 332.245 28.6483 333.663 30.3615C334.257 29.6989 334.804 29.0772 335.57 28.2068C336.203 28.7983 336.902 29.4577 337.968 30.4567C338.625 28.7501 339.153 27.3821 339.868 25.5364C341.264 25.8859 342.68 26.2396 344.361 26.656C344.807 26.0136 345.302 25.3013 346.003 24.296C342.943 23.0218 340.196 21.8917 336.986 20.553C336.914 15.8362 340.073 9.97057 334.964 5.2684C335.652 3.67718 336.23 2.35295 336.799 1.03106C333.917 2.13407 334.108 4.80315 333.137 7.22132C331.574 7.17308 329.895 7.11778 327.937 7.0514C326.926 8.03501 325.833 9.10683 324.682 10.242C325.165 11.587 325.587 12.739 326.046 13.9952C324.675 14.8086 323.269 15.6314 321.823 16.4838C320.698 16.2614 319.535 15.9637 318.34 15.8359C317.753 15.7741 316.853 16.357 316.577 16.1074C312.62 12.5812 307.36 13.8921 302.897 12.3173C301.9 11.9658 300.987 11.3632 299.875 10.7951C300.385 9.0039 300.854 7.37613 301.366 5.59383C298.919 2.80533 295.472 2.86111 291.402 1.33351C290.901 2.58967 290.46 3.67772 290.012 4.77699C291.175 5.99729 291.916 6.77867 292.973 7.88477C291.945 10.7652 290.854 13.8339 289.506 17.6176C276.524 12.8802 264.014 8.31118 251.359 3.69551C251.705 1.53929 251.966 -0.11856 252.328 -2.39316C249.081 -3.33236 245.98 -4.22484 242.422 -5.26151C241.569 -3.29321 240.86 -1.67715 239.985 0.353918C243.008 1.62879 245.591 2.71688 248.506 3.94448C249.177 6.74167 251.573 7.98438 254.231 9.17601C261.722 12.547 269.124 16.1133 276.548 19.6258C278.105 20.3606 279.627 21.1806 281.806 22.2908C280.41 25.3555 279.084 28.2586 277.521 31.7004C265.647 26.1628 254.262 20.8557 242.636 15.4322C243.406 12.868 244.059 10.6867 244.833 8.10238C239.811 5.82134 234.954 3.73374 229.593 3.10291L229.807 3.22648C230.618 -0.394787 231.428 -4.01609 232.251 -7.69772C234.063 -7.85853 235.251 -7.96689 236.746 -8.10029C237.609 -10.9936 238.45 -13.8242 239.304 -16.6773C238.394 -17.8415 237.649 -18.8123 236.691 -20.0493C237.959 -22.6706 239.253 -25.3369 240.616 -28.1358C244.22 -27.4253 247.563 -26.7685 251.124 -26.0751C251.581 -27.072 251.927 -27.8398 252.263 -28.5762C248.687 -29.7508 245.351 -30.8468 241.598 -32.0786C242.993 -35.7896 244.196 -38.9737 245.479 -42.3597C251.891 -41.2109 257.367 -35.9509 263.632 -40.3357C266.385 -41.8512 269.126 -43.3731 272.914 -45.4602C273.448 -47.8758 274.211 -51.3514 275.003 -54.9389L279.023 -56.0136C279.473 -59.3482 279.929 -62.732 280.398 -66.2429L284.001 -67.2061C285.054 -72.1283 283.676 -74.7938 279.679 -75.8367C279.617 -73.4711 279.557 -71.0967 279.486 -68.3387C275.36 -68.5104 271.781 -68.6664 267.71 -68.8435C267.469 -67.362 267.267 -66.0906 267.018 -64.531C269.814 -63.7472 272.201 -63.0727 275.026 -62.2871C274.787 -60.692 274.57 -59.2265 274.282 -57.3142C270.408 -57.7908 266.891 -58.2108 262.918 -58.6992C262.589 -56.3382 262.323 -54.4128 262.018 -52.2483C264.723 -51.2692 267.05 -50.4265 269.808 -49.4326C269.403 -47.8504 269.032 -46.4293 268.583 -44.6926C264.995 -45.5215 261.814 -46.25 258.389 -47.037C257.557 -45.1314 256.822 -43.4704 255.924 -41.4233C252.981 -42.149 250.142 -42.8452 246.803 -43.6648C247.727 -47.8963 248.303 -51.7879 250.435 -55.4105C251.59 -57.3547 251.956 -59.792 252.555 -62.0348C253.036 -63.8277 253.186 -65.5418 254.794 -67.0364C255.845 -68.0118 255.75 -70.1832 256.243 -71.7891C256.833 -73.7442 257.495 -75.6804 258.526 -77.5157C259.862 -82.5517 261.207 -87.5901 262.463 -92.3195C276.082 -96.9103 289.316 -101.37 303.371 -106.106C303.895 -105.571 304.77 -104.682 305.669 -103.772C307.754 -104.938 309.508 -105.92 311.412 -106.981C312.733 -105.774 313.977 -104.642 315.542 -103.234C317.551 -104.541 319.487 -105.801 321.424 -107.06C321.466 -106.938 321.517 -106.819 321.559 -106.697C323.709 -107.509 326.026 -108.024 327.973 -109.172C338.293 -115.249 348.524 -121.483 358.771 -127.693C359.155 -127.929 359.395 -128.383 359.861 -128.917C359.756 -130.163 359.645 -131.541 359.494 -133.317C361.783 -134.642 364.19 -136.027 366.709 -137.49C366.474 -139.044 366.263 -140.404 365.989 -142.214C368.366 -143.743 370.847 -145.348 373.565 -147.101C373.688 -148.171 373.827 -149.359 373.947 -150.475C384.111 -159.487 394.274 -168.394 404.31 -177.458C408.762 -181.472 412.893 -185.838 417.263 -189.945C422.387 -194.757 427.608 -199.453 433.276 -204.648C433.692 -204.55 434.86 -204.272 436.525 -203.88C439.302 -207.58 442.214 -211.45 445.308 -215.567C447.089 -214.702 448.74 -213.897 450.818 -212.884C454.542 -216.209 455.817 -221.4 459.337 -225.384C461.953 -224.133 464.59 -222.879 467.759 -221.377C469.756 -225.648 471.595 -229.582 473.428 -233.506C472.106 -235.216 471.067 -236.574 469.802 -238.214C470.573 -239.029 471.366 -239.868 472.365 -240.934C473.67 -239.894 474.736 -239.038 475.788 -238.197C475.405 -236.925 475.105 -235.913 474.659 -234.453C477.958 -232.852 481.168 -231.304 484.949 -229.471C485.8 -231.515 486.502 -233.158 487.14 -234.688C486.274 -236.682 485.519 -238.401 484.781 -240.097C487.088 -244.774 490.796 -240.401 494.033 -241.847C493.042 -243.455 492.112 -244.976 491.183 -246.496C493.03 -246.809 494.877 -247.122 497.07 -247.49C497.765 -246.848 498.663 -246.013 499.876 -244.892C498.646 -243.374 497.51 -241.967 495.997 -240.118C498.042 -239.371 499.847 -238.702 502.145 -237.862C502.211 -239.429 502.257 -240.431 502.306 -241.423C503.181 -241.458 504.054 -241.501 505.165 -241.541C505.166 -245.916 507.785 -250.42 502.748 -254.038C502.003 -253.943 500.962 -253.817 499.118 -253.6C497.369 -255.767 495.34 -258.268 493.009 -261.154C493.879 -262.205 494.692 -263.183 495.871 -264.61C498.819 -261.3 501.369 -258.377 503.99 -255.511C505.038 -254.365 506.19 -253.293 507.391 -252.321C509.493 -250.61 511.681 -249.007 513.834 -247.357C513.675 -247.096 513.519 -246.826 513.37 -246.568C516.391 -245.796 519.412 -245.025 522.29 -244.292C522.909 -244.895 523.446 -245.162 523.536 -245.538C524.337 -249.014 520.91 -253.975 517.54 -254.663C516.122 -254.95 514.835 -255.889 513.485 -256.527C513.758 -256.752 514.037 -256.988 514.31 -257.213C513.39 -259.336 512.469 -261.467 511.462 -263.775C509.613 -263.186 508.462 -262.831 507.358 -262.479C503.592 -263.298 501.336 -265.938 498.995 -268.47L499.551 -269.236C500.684 -268.522 501.807 -267.804 503.19 -266.937C504.281 -267.41 505.516 -267.949 507.408 -268.769C511.792 -264.605 516.201 -260.135 520.954 -256.051C522.758 -254.498 525.344 -253.857 527.574 -252.808L527.459 -252.882C530.015 -252.253 532.568 -251.632 535.611 -250.886C535.224 -254.824 531.707 -255.529 530.325 -258.422C530.924 -259.276 531.676 -260.343 532.599 -261.655C534.054 -260.588 535.155 -259.779 536.291 -258.942C536.196 -257.557 536.111 -256.345 536.016 -255.026C537.078 -254.007 538.081 -253.03 539.249 -251.896C540.305 -252.359 541.285 -252.783 542.657 -253.378C544.303 -252.096 546.113 -250.697 548.492 -248.841C548.823 -251.088 549.064 -252.713 549.304 -254.308C547.831 -255.902 546.498 -257.333 544.481 -259.505C549.6 -258.571 551.092 -253.131 555.812 -253.584C557.489 -255.953 557.983 -259.443 562.497 -259.812C564.493 -257.825 566.864 -255.463 569.893 -252.459C582.069 -250.454 583.49 -250.511 588.338 -253.613C592.16 -250.451 596.961 -250.992 601.666 -250.965C606.38 -250.941 611.096 -250.909 616.144 -250.879C616.495 -248.605 616.792 -246.639 617.174 -244.145C629.809 -244.194 642.246 -246.338 655.053 -246.956C656.815 -244.526 659.471 -244.018 662.378 -243.816C669.937 -243.288 677.502 -242.666 685.032 -241.854C687.334 -241.603 689.554 -240.628 692.261 -239.858C692.401 -243.034 692.56 -246.566 692.742 -250.761C698.99 -250.834 705.075 -250.91 711.285 -250.981C712.06 -252.244 712.765 -253.412 713.723 -254.99C716.973 -254.784 720.406 -254.57 724.063 -254.339C724.59 -253.434 725.129 -252.523 725.848 -251.288C730.171 -250.095 732.683 -255.426 737.262 -253.74C737.196 -254.198 737.131 -254.656 737.074 -255.116C736.382 -255.606 735.681 -256.094 734.376 -257.029C736.566 -256.949 738.151 -256.888 740.283 -256.811C742.188 -260.572 744.146 -264.453 745.876 -267.873C750.467 -267.74 754.494 -267.618 759.131 -267.488C763.521 -279.35 767.824 -290.971 772.252 -302.939C777.118 -301.282 781.53 -299.789 786.601 -298.072C790.278 -311.57 793.827 -324.587 797.473 -337.953C803.094 -336.565 808.254 -335.3 813.986 -333.884C816.075 -340.481 816.625 -347.066 817.91 -353.468C819.207 -359.93 820.272 -366.443 821.532 -373.399C826.654 -372.666 831.265 -371.997 836.595 -371.234C836.28 -374.155 836.012 -376.546 835.704 -379.441L846.72 -382.385C847.493 -390.77 848.256 -398.877 849.072 -407.673C859.363 -406.848 869.325 -406.049 879.773 -405.208C880.84 -416.906 879.614 -428.076 880.474 -439.803C892.772 -439.904 904.814 -440.003 917.509 -440.115C916.766 -450.188 916.069 -459.559 915.336 -469.453C929.456 -470.745 943.195 -472.001 957.537 -473.314C956.335 -481.048 955.236 -488.115 954.044 -495.776C969.439 -498.559 984.29 -501.244 999.885 -504.062C998.776 -508.958 997.785 -513.306 996.696 -518.093C998.759 -518.806 1000.46 -519.518 1002.23 -519.99C1020.99 -525.034 1039.74 -530.158 1058.56 -534.98C1063.08 -536.138 1066.78 -537.919 1069.37 -541.863C1069.88 -542.636 1070.64 -543.247 1070.96 -543.589C1074.74 -544.923 1076.18 -538.653 1080.24 -541.562C1080.58 -546.589 1075.05 -546.548 1073.07 -550.278C1074.42 -552.236 1076 -554.513 1077.93 -557.332C1080.2 -555.742 1082.28 -554.292 1084.53 -552.723C1083.61 -551.062 1082.97 -549.881 1082.07 -548.233C1084.56 -546.635 1086.86 -545.168 1089.59 -543.434C1091.53 -545.997 1093.1 -548.07 1094.63 -550.108C1091.32 -556.27 1084.52 -557.296 1079.81 -561.582C1081.28 -564.17 1082.73 -566.726 1084.15 -569.247C1090.65 -568.131 1094.87 -563.724 1099.49 -560.137C1102.33 -562.94 1104.85 -565.43 1107.63 -568.169C1109.72 -566.779 1111.79 -565.649 1113.58 -564.178C1116.51 -561.803 1119.57 -560.899 1123.24 -562.12C1124.81 -562.642 1126.49 -562.796 1129.29 -563.354C1122.84 -568.716 1115.79 -571.027 1109.67 -576.029C1111.33 -578.554 1112.94 -581.001 1114.76 -583.78C1116.4 -582.878 1118.05 -582.015 1119.66 -581.085C1127.47 -576.6 1135.27 -572.096 1143.08 -567.62C1145.04 -566.491 1147.05 -565.353 1148.88 -568.449C1148.02 -569.235 1147.15 -570.01 1145.84 -571.184C1146.5 -574.66 1147.23 -578.458 1148.01 -582.596C1150.96 -582.138 1153.39 -581.76 1156.34 -581.302C1155.75 -576.893 1155.2 -572.773 1154.61 -568.382C1156.48 -568.216 1157.84 -568.086 1159.51 -567.933C1159.45 -566.973 1159.38 -566.119 1159.26 -564.499C1161.52 -563.439 1163.93 -561.715 1166.56 -561.23C1169.14 -560.759 1171.95 -561.557 1174.65 -561.804L1174.82 -560.717L1163.92 -557.804C1167.35 -555.791 1174.55 -555.974 1176.92 -557.749C1180.52 -560.453 1184.62 -561.566 1190.24 -561.091C1186.28 -558.502 1182.54 -557.055 1178.19 -556.577C1177.88 -555.048 1177.58 -553.581 1177.32 -552.313C1175.16 -551.298 1173.2 -550.441 1171.34 -549.41C1171.05 -549.248 1171.2 -548.269 1171.12 -547.325C1173.4 -547.28 1175.47 -547.244 1177.55 -547.2C1177.59 -547.02 1177.62 -546.838 1177.65 -546.655C1174.94 -545.457 1172.27 -544.19 1169.51 -543.074C1166.84 -541.979 1164.14 -540.85 1161.36 -540.087C1158.33 -539.249 1155.2 -538.811 1151.74 -538.124C1150.19 -535.046 1148.58 -531.944 1147.04 -528.804C1145.29 -525.216 1142.56 -522.564 1139.51 -520.03C1137.32 -518.187 1135.71 -515.627 1133.33 -512.776C1136.96 -512.815 1139.59 -512.851 1142.33 -512.888C1144.95 -515.701 1148.12 -516.434 1152.02 -516.136C1155.74 -515.847 1159.55 -516.713 1163.34 -517.01C1165.65 -517.19 1167.97 -517.233 1170.33 -516.883C1166.58 -514.663 1162.35 -515.169 1158.34 -514.685C1154.11 -514.164 1149.86 -513.828 1145.22 -513.368C1144.55 -510.763 1143.9 -508.229 1143.24 -505.725C1144.31 -504.28 1145.23 -503.043 1146.4 -501.473C1152.15 -502.446 1158.1 -502.536 1163.45 -505.506L1163.26 -505.541C1166.11 -502.297 1169.38 -503.304 1172.67 -504.594L1172.61 -504.645C1172.59 -503.898 1172.58 -503.153 1172.58 -502.714C1170.12 -501.611 1167.97 -500.636 1165.64 -499.584C1164.94 -501.632 1162.87 -501.033 1161.03 -500.911C1155.29 -500.558 1149.57 -500.14 1143.19 -499.709C1140.58 -496.892 1140.21 -496.906 1136 -499.615C1135.34 -500.045 1134.22 -499.784 1133.16 -499.845C1130.55 -493.356 1125.73 -494.853 1119.99 -497.341C1121.55 -492.225 1116.67 -494.297 1115.7 -491.916C1118.26 -490.431 1120.69 -489.008 1123.12 -487.595C1123.01 -487.221 1122.88 -486.835 1122.77 -486.455C1116.54 -489.039 1110.27 -487.821 1103.99 -487.236C1101.98 -487.611 1100.57 -489.946 1097.66 -489.043C1098.38 -487.486 1098.98 -486.183 1099.8 -484.422C1101.54 -485.641 1102.79 -486.506 1104.03 -487.37C1104.35 -484.05 1105.78 -481.096 1108.7 -479.679C1111.47 -478.336 1114.06 -476.956 1116.59 -475.131C1121.01 -471.956 1126.01 -469.612 1130.65 -466.743C1132.8 -465.416 1134.71 -463.682 1137.28 -461.707C1137.92 -461.924 1139.21 -462.355 1140.49 -462.773C1139.3 -460.26 1138.13 -457.749 1137.01 -455.377C1138.6 -453.605 1139.72 -452.355 1140.83 -451.109C1143.22 -451.179 1146.03 -449.876 1146.77 -453.962C1144.74 -454.39 1142.95 -454.767 1141.52 -455.069C1139.18 -457.906 1142.6 -458.543 1143.17 -460.086C1142.13 -461.101 1141.28 -461.938 1140.43 -462.767C1139.41 -463.228 1138.41 -463.69 1137.56 -464.065C1138 -465.988 1138.3 -467.304 1138.61 -468.69C1136.64 -469.601 1134.98 -470.383 1133.07 -471.271C1133.95 -475.062 1134.78 -478.621 1135.68 -482.534C1138.69 -481.647 1141.05 -480.945 1143.47 -480.233C1143.15 -477.712 1142.86 -475.581 1142.54 -473.098C1145.12 -471.675 1147.49 -470.352 1149.74 -469.116C1153.31 -472.019 1152.74 -475.768 1153.89 -479.249C1155.44 -477.013 1157.4 -476.195 1160.01 -477.024C1159.96 -481.539 1159.91 -485.872 1159.86 -490.262C1162.04 -491.035 1163.89 -491.7 1165.95 -492.431C1164.28 -496.092 1161.5 -493.315 1159.31 -494.155C1159.44 -494.846 1159.57 -495.586 1159.71 -496.326L1163.3 -497.287C1164.74 -496.111 1166.67 -495.295 1168.88 -496.619C1170.94 -497.845 1172.17 -496.262 1173.62 -495.022C1171.78 -495.006 1169.93 -494.987 1168.09 -494.97C1167.96 -494.632 1167.84 -494.296 1167.7 -493.955C1168.35 -493.263 1168.9 -492.135 1169.67 -491.961C1171.87 -491.464 1174.26 -491.551 1175.55 -493.761C1176.75 -495.813 1178.28 -496.544 1179.65 -496.321C1180.86 -494.979 1181.52 -493.541 1182.29 -493.489C1185.32 -493.273 1188.39 -493.492 1192.01 -493.557C1192.3 -496.811 1192.57 -499.394 1192.72 -501.981C1192.74 -502.263 1192.11 -502.589 1191.58 -503.066C1190.73 -502.355 1189.93 -501.693 1189.51 -501.343C1188.17 -501.48 1187.15 -501.758 1186.17 -501.648C1184.61 -501.469 1183.79 -502.107 1183.39 -503.522L1183.4 -503.504C1184.15 -503.572 1185.04 -503.411 1185.65 -503.755C1189.57 -505.982 1193.76 -506.351 1198.13 -505.824C1198.53 -505.788 1198.92 -505.732 1199.73 -505.596C1198.93 -504.536 1198.36 -503.784 1197.26 -502.34C1203.17 -503.263 1208.26 -504.063 1213.73 -504.925C1213.77 -510.709 1212.26 -515.917 1211.14 -521.961C1207.39 -521.309 1203.98 -521.103 1200.84 -520.053C1198.31 -519.206 1196.11 -517.345 1194.01 -516.078C1192.63 -516.453 1191.53 -516.767 1189.89 -517.222C1190.1 -515.815 1190.24 -514.986 1190.39 -513.998C1193.11 -514.259 1195.57 -514.488 1198.06 -514.727C1200.75 -511.652 1198.51 -508.665 1198.18 -505.714C1196.93 -506.855 1195.67 -508.002 1194.95 -508.666C1191.91 -508.795 1189.61 -508.893 1187.49 -508.982C1186.69 -510.776 1186.07 -512.159 1185.44 -513.571C1182.33 -513.614 1180.65 -511.938 1179.34 -509.543C1178.77 -510.721 1178.26 -511.765 1177.77 -512.764C1176.15 -512.17 1174.85 -511.69 1173.55 -511.219L1173.69 -511.076C1173.58 -512.017 1173.48 -512.949 1173.35 -514.019C1174.22 -514.65 1175.08 -515.271 1175.76 -515.756C1176.5 -520.272 1177.22 -524.563 1177.93 -528.889C1180.15 -529.179 1181.84 -529.402 1183.78 -529.655C1184.64 -529.029 1185.64 -528.296 1186.7 -527.507C1186.39 -524.95 1186.08 -522.489 1185.7 -519.441C1189.79 -519.222 1193.45 -518.316 1196.77 -522.029C1197.14 -521.698 1197.59 -521.287 1198.32 -520.625C1201.26 -524.607 1206.14 -522.887 1210.51 -524.339C1207.66 -528.762 1203.1 -525.851 1198.84 -527.699C1203.05 -528.614 1206.28 -529.314 1209.25 -529.958C1208.93 -533.694 1208.65 -536.872 1208.34 -540.489C1218.93 -542.407 1229.11 -544.244 1239.5 -546.117C1239.91 -549.602 1240.25 -552.527 1240.62 -555.64C1239.17 -556.127 1238.04 -556.492 1236.16 -557.121C1240.5 -559.079 1244.35 -559.605 1249.43 -559.745C1247.74 -558.465 1246.85 -557.791 1246.13 -557.247C1246.21 -554.177 1246.28 -551.239 1246.38 -547.688C1248.28 -547.846 1249.9 -547.983 1251.24 -548.094C1252.24 -550.359 1253.08 -552.267 1254.1 -554.574C1253.49 -555.162 1252.66 -555.948 1251.82 -556.733C1251.96 -558.328 1259.11 -559.668 1263.98 -558.63C1261.66 -557.705 1260.04 -557.055 1257.38 -556.003C1260.13 -554.835 1262.13 -553.989 1264.41 -553.021C1263.98 -552.325 1263.47 -551.515 1262.67 -550.216L1268.59 -551.798C1267.79 -553.485 1267.1 -554.91 1266.41 -556.331C1266.56 -563.742 1263.38 -570.492 1261.51 -578.151C1256.93 -577.546 1252.68 -576.98 1248.41 -576.419C1251.63 -580.123 1256.79 -578.096 1260.24 -580.987C1260.32 -583.654 1258.75 -583.833 1256.82 -583.537C1253.63 -583.044 1250.43 -582.56 1247.12 -582.644C1250.21 -585.068 1254.08 -584.611 1257.85 -585.838C1259.05 -589.002 1262.18 -589.561 1265.22 -590.328C1269.03 -591.279 1272.82 -592.338 1276.82 -593.408C1277.05 -597.693 1277.28 -601.586 1277.53 -606.085C1279.37 -606.148 1281.13 -606.219 1283.18 -606.292C1283.44 -603.281 1283.67 -600.668 1283.9 -597.84L1291.21 -599.792C1291.56 -601.913 1291.9 -604.011 1292.28 -606.337C1294 -606.36 1295.53 -606.379 1297.27 -606.407L1298.48 -601.898C1301.05 -601.273 1303.15 -602.205 1304.77 -604.701L1316.25 -607.77C1316.98 -606.891 1317.66 -606.073 1318.59 -604.953L1343.27 -611.548C1339.53 -612.48 1336.77 -609.515 1333.09 -611.956C1337.28 -613.457 1340.81 -614.713 1344.06 -615.869C1344.2 -618.303 1343.22 -618.944 1341.76 -618.745C1340.2 -618.537 1338.69 -618.046 1337.14 -617.709C1335.7 -617.401 1334.26 -617.139 1332.82 -616.857C1332.7 -617.301 1332.58 -617.736 1332.46 -618.18C1335.56 -619.275 1338.68 -620.373 1342.2 -621.609C1342.78 -627.994 1339.88 -633.514 1338.51 -639.871C1334.46 -639.15 1330.89 -638.51 1327.32 -637.88C1327.21 -638.277 1327.08 -638.663 1326.98 -639.062C1330.37 -640.216 1333.77 -641.363 1336.97 -642.446C1337.41 -645.15 1336.32 -645.924 1334.36 -645.591C1332.65 -645.305 1330.99 -644.739 1329.29 -644.388C1328.16 -644.163 1327 -644.108 1325.85 -643.974L1325.55 -645.092C1328.84 -646.197 1332.11 -647.291 1335.78 -648.529C1335.4 -651.082 1335.08 -653.343 1334.7 -655.802C1336.7 -656.679 1338.55 -657.475 1340.86 -658.484C1340.78 -661.962 1340.7 -665.506 1340.6 -669.532C1342.65 -669.643 1344.43 -669.748 1346.42 -669.86C1346.99 -666.571 1347.5 -663.691 1348.08 -660.346L1355.84 -662.422C1355.83 -665.013 1355.8 -667.48 1355.78 -670.337C1360.08 -671.819 1364.47 -671.498 1368.99 -671.888C1369.63 -670.091 1370.18 -668.517 1370.93 -666.414C1373.2 -666.87 1375.42 -667.312 1377.71 -667.772C1378.23 -669.526 1378.65 -670.99 1379.18 -672.795C1380.83 -672.913 1382.48 -673.04 1384.74 -673.206C1385.13 -669.412 1386.26 -665.863 1385.65 -662.646C1384.72 -657.768 1386.61 -653.651 1387.67 -649.282C1388.66 -645.173 1389.92 -641.126 1391.06 -637.046C1391.43 -635.708 1391.78 -634.366 1392.19 -632.83C1394.73 -632.9 1396.88 -632.953 1399.32 -633.023C1401.32 -629.269 1401.2 -625.205 1401.62 -621.011C1399.76 -620.256 1398.07 -619.567 1395.9 -618.683L1400.42 -601.8C1397.55 -600.682 1395.12 -599.729 1392.42 -598.676C1392.02 -597.539 1391.54 -596.252 1390.97 -594.663C1389.59 -594.429 1388.08 -594.177 1386.48 -593.902C1385.49 -594.777 1384.58 -595.58 1383.7 -596.353L1376.92 -594.543C1376.99 -592.944 1376.8 -591.503 1377.14 -590.216C1380.23 -578.45 1383.4 -566.705 1386.56 -554.96C1386.76 -554.223 1387.23 -553.569 1387.92 -552.212C1397.73 -552.941 1407.7 -553.678 1418.14 -554.45C1418.95 -546.773 1419.69 -539.657 1420.52 -531.721C1428.52 -533.774 1435.78 -535.646 1443.61 -537.653C1448.31 -522.087 1451.76 -506.736 1456.47 -491.067C1462.04 -491.815 1467.41 -492.537 1473.14 -493.307C1473.62 -491.514 1474.13 -490.063 1474.4 -488.565C1479.16 -461.497 1483.89 -434.423 1488.64 -407.35C1494.44 -374.209 1500.06 -341.035 1506.15 -307.952C1508.27 -296.477 1511.55 -285.22 1514.34 -273.868C1515.13 -270.656 1516.05 -267.478 1516.91 -264.256C1516.04 -263.1 1515.3 -262.123 1514.39 -260.91C1515.84 -252.654 1517.34 -244.267 1518.76 -235.868C1519.2 -233.239 1519.42 -230.566 1519.74 -227.915C1517.92 -227.475 1516.09 -226.949 1514.24 -226.624C1503.37 -224.699 1492.5 -222.84 1481.64 -220.906C1480 -220.612 1478.42 -220.065 1476.94 -219.669C1477.19 -214.041 1485.13 -185.149 1487.37 -181.668C1495.18 -182.871 1502.75 -186.207 1511.27 -187.248L1518.85 -158.871C1523.59 -159.652 1527.84 -160.34 1532.66 -161.125C1532.01 -165.164 1531.51 -168.541 1530.93 -171.903C1527.9 -189.307 1524.89 -206.703 1521.75 -224.085C1521.5 -225.474 1520.32 -226.698 1519.56 -227.99L1519.6 -228.028ZM1106.42 -498.641L1109.47 -499.237C1109.37 -499.487 1109.26 -499.744 1109.16 -499.992C1108.28 -499.538 1107.39 -499.092 1106.57 -498.624C1106.84 -496.87 1107.18 -496.59 1109.39 -496.811C1108.15 -497.564 1107.29 -498.103 1106.41 -498.639L1106.42 -498.641ZM383.602 -17.9923C385.226 -16.648 386.841 -15.3013 388.463 -13.9659C388.659 -18.355 386.759 -20.7668 381.387 -22.222C382.32 -20.4743 383.003 -19.2016 383.726 -17.8828C383.422 -15.6426 380.66 -13.2022 384.366 -11.0068C386.196 -13.7308 384.217 -15.7981 383.611 -17.9947L383.602 -17.9923ZM381.518 -1.91467C382.213 -0.521896 382.909 0.870875 383.929 2.90916C385.945 -0.577848 386.531 -3.22602 385.509 -6.19584C382.14 -6.27503 382.132 -3.74319 381.477 -1.78033C381.176 -4.7239 380.863 -7.67402 380.525 -10.9312C379.453 -10.0648 378.626 -9.38726 377.852 -8.76185C376.432 -10.056 377.968 -12.9201 374.905 -12.6722C374.835 -11.3317 374.776 -10.0225 374.681 -8.06647C373.288 -10.823 370.519 -11.8234 370.607 -14.6997C370.615 -15.13 369.838 -15.9019 369.342 -15.9786C365.542 -16.5322 364.143 -19.5627 362.488 -22.373C362.417 -22.4966 361.927 -22.375 361.285 -22.3557C361.277 -21.3549 360.835 -19.8769 361.345 -19.357C363.266 -17.4358 365.503 -15.8273 366.853 -14.7237C368.77 -11.5366 370.25 -9.06004 371.739 -6.58585C372.807 -5.00745 371.157 -2.74987 373.127 -0.927555C374.96 -2.25427 374.144 -5.55502 376.797 -5.80744C380.119 -3.48103 373.666 -0.833718 377.18 1.46058C378.729 0.247649 380.122 -0.837991 381.513 -1.93245L381.518 -1.91467ZM1379.25 -203.49C1377.6 -197.275 1380.67 -191.744 1381.73 -185.911C1381.81 -190.784 1381.58 -195.619 1381.06 -200.417C1380.94 -201.478 1379.83 -202.437 1379.18 -203.442L1376.5 -213.463C1364.73 -210.394 1353.28 -207.333 1341.53 -204.117C1341.57 -197.746 1341.6 -192.01 1341.64 -185.801C1347.18 -186.129 1351.89 -186.629 1356.57 -188.459C1356.25 -192.017 1355.97 -195.204 1355.67 -198.68C1358.83 -199.286 1361.44 -199.757 1364.04 -200.298C1369.12 -201.352 1374.2 -202.452 1379.25 -203.488L1379.25 -203.49ZM341.037 12.2995C341.795 12.8199 342.561 13.3379 343.438 13.9499C344.02 13.1382 344.519 12.4437 345.144 11.5822C345.883 12.3169 346.503 12.9308 347.088 13.5164C346.08 14.8699 343.235 15.326 345.773 17.6718C347.057 17.1384 348.326 16.6187 349.586 16.1013C349.914 16.4036 350.239 16.6969 350.576 16.9968C349.611 17.9774 348.647 18.958 348.439 19.1753C348.314 22.6607 348.192 25.1186 348.173 27.5771C348.174 27.8623 348.735 28.1497 349.297 28.6843C349.972 27.4388 350.517 26.4181 351.038 25.4514C355.003 25.8374 358.686 27.5919 362.598 26.6795C362.757 22.4336 362.769 18.5311 359.673 15.7352C360.232 13.8073 361.974 11.9249 358.933 11.0448C357.412 12.079 358.397 15.23 355.427 14.7588C355.7 10.9768 355.965 7.19724 356.24 3.4242L356.114 3.62904C357.098 4.35524 358.092 5.08795 359.574 6.18495C359.557 4.02122 359.54 2.57067 359.534 0.803485C360.993 2.17274 362.095 3.20011 362.933 3.98442C363.204 6.13733 359.457 6.10217 361.341 8.77502C362.507 8.40623 363.736 8.02083 364.543 7.76709C365.815 8.86303 366.805 9.72061 368.014 10.7574C367.263 17.3395 371.715 18.803 377.214 18.8455C377.721 21.525 378.149 23.769 378.629 26.2751C380.89 25.5187 382.803 24.8838 384.523 24.3099C385.883 26.9422 386.989 29.0905 388.278 31.5992C394.659 28.0393 400.501 24.7756 406.451 21.4545C408.266 24.0125 409.671 25.9955 411.414 28.4589C412.048 26.3493 412.482 24.9115 412.938 23.382C415.497 23.1355 417.838 22.9282 420.185 22.6718C426.445 21.9688 430.496 18.3374 431.75 12.2486C437.521 9.96443 444.16 10.7863 449.923 7.86713C449.793 5.74313 449.681 3.89961 449.549 1.80463C456.013 -1.26409 463.383 -1.44578 469.717 -4.71741C469.331 -7.61951 468.996 -10.1547 468.651 -12.7632C470.392 -12.7246 471.531 -12.6962 472.661 -12.6655C472.776 -13.0195 472.891 -13.3735 472.994 -13.734C471.14 -14.5508 469.295 -15.37 467.441 -16.1869C462.488 -14.8253 461.144 -10.0721 458.362 -6.92266C456.389 -7.89805 454.846 -8.65536 453.15 -9.48592C451.963 -8.76913 450.766 -8.05 449.57 -7.33083C448.993 -8.95507 448.702 -10.9695 445.891 -10.1707C446.355 -7.68887 447.727 -7.18064 449.655 -7.47706C449.747 -6.88351 449.839 -6.28993 449.829 -6.36333C447.885 -4.98799 446.358 -3.90472 444.823 -2.81905C443.09 -3.57326 441.336 -5.90053 439.573 -9.79436C439.473 -10.0245 439.643 -10.3838 439.718 -10.8508C440.739 -10.8384 441.78 -10.8218 443.202 -10.8025C443.213 -12.4697 443.227 -13.9475 443.228 -14.3375C440.251 -16.509 438.004 -18.153 435.691 -19.836C434.198 -16.2038 434.086 -16.1262 435.784 -13.8983C436.739 -12.6412 437.14 -11.8164 435.526 -11.0237C434.172 -11.9266 432.876 -12.7882 431.581 -13.6498C431.411 -13.433 431.247 -13.2276 431.076 -13.0109C431.458 -11.905 431.839 -10.799 432.322 -9.4162C429.702 -8.43998 427.347 -7.57283 424.976 -6.69206C423.694 -11.3135 419.577 -14.3692 415.784 -13.6882C415.38 -10.5371 414.981 -7.36822 414.571 -4.20583L414.557 -4.25911C413.999 -3.03549 413.449 -1.82311 412.706 -0.18866C411.831 -0.297055 410.73 -0.430818 409.381 -0.602895C409.708 -2.40224 409.957 -3.71444 410.274 -5.44451C406.353 -4.95762 407.707 -10.6737 403.517 -10.5524C403.908 -8.26991 404.238 -6.32292 404.577 -4.37836C404.26 -4.32199 403.931 -4.27211 403.613 -4.21571L401.656 -11.5385C399.099 -10.4653 396.994 -9.58876 395.035 -8.77035C395.343 -5.94278 396.854 -6.08977 398.53 -5.93861C401.258 -5.6975 402.183 -3.729 400.687 -1.71241C399.642 -1.28096 398.508 -0.825802 397.678 -0.480293C397.27 2.54833 396.911 5.25967 396.508 8.02079C394.819 7.78735 393.844 8.55197 393.581 10.3057C394.821 9.28945 395.697 8.57995 396.563 7.87282C395.953 10.4991 395.342 13.1254 394.561 16.4631C393.377 14.7729 392.722 13.8542 391.86 12.6201C390.682 14.4756 389.778 15.8964 388.841 17.3736C389.002 18.6146 389.16 19.8845 389.305 20.9965C387.485 19.6286 385.772 18.3459 384.001 17.0218C383.735 15.5619 383.447 14.0222 383.131 12.2711C380.57 13.7545 378.649 14.8575 376.284 16.2219C375.43 14.8049 374.663 13.5359 373.932 12.2952C374.846 12.3361 375.754 12.3883 377.13 12.4485C376.431 10.4006 378.976 8.78816 376.693 6.11734C375.669 8.51184 374.849 10.4239 374.028 12.336C373.357 13.381 372.674 14.4194 371.993 15.4667C371.648 15.3497 371.309 15.2215 370.964 15.1045C370.782 11.4347 370.388 7.75492 370.505 4.10032C370.584 1.40687 370.015 -0.723374 368.19 -2.7464C366.99 -4.07084 366.317 -5.87852 365.397 -7.46822C366.456 -9.13008 366.264 -10.667 364.83 -12.0812C363.866 -10.2448 364.271 -8.7649 365.55 -7.39494C365.407 -6.04429 365.387 -4.66001 365.06 -3.35544C364.849 -2.50959 364.17 -1.77654 363.207 -0.149679C361.96 -5.31327 365.232 -10.5433 359.84 -13.458C360.663 -13.9727 361.389 -14.4236 362.669 -15.2221C361.438 -16.234 360.572 -17.5526 359.648 -17.5912C357.338 -17.6964 354.87 -17.6074 352.718 -16.8706C350.533 -16.1154 348.91 -12.8287 349.449 -11.7365C350.599 -11.3494 351.697 -10.9772 352.837 -10.5878C352.525 -7.73679 350.27 -5.3558 352.136 -2.67821C351.992 -2.54439 351.847 -2.41058 351.693 -2.27436C351.053 -1.75142 350.422 -1.23083 349.065 -0.11683C349.164 -3.44355 349.248 -5.87189 349.332 -8.65236C348.211 -8.21969 347.175 -7.82849 346.165 -7.44441C345.43 -8.52231 344.856 -9.38666 344.29 -10.2244C343.254 -9.79533 342.448 -9.46578 341.702 -9.16178C340.642 -10.5999 339.719 -11.8464 338.781 -13.1171C335.845 -12.8557 333.013 -14.3431 329.348 -12.6502C332.349 -11.7405 334.512 -11.0823 335.836 -10.6848C336.64 -6.1826 337.311 -2.42491 337.98 1.32395C338.205 1.31141 338.419 1.29234 338.644 1.27981C338.056 2.53067 337.461 3.79279 336.852 5.10641C338.338 7.60959 339.759 10.0069 341.182 12.413C338.069 15.3562 338.053 15.4366 339.859 18.2823C341.904 16.5376 341.169 14.3566 341.017 12.2953L341.037 12.2995ZM1378.71 -476.951C1382.41 -458.931 1384.72 -441.021 1388.54 -423.069C1394.8 -423.46 1400.53 -423.82 1406.68 -424.2C1412.43 -358.157 1418.12 -292.783 1423.8 -227.503C1428.52 -227.318 1442.92 -231.137 1446.89 -233.542C1446.28 -236.696 1445.64 -240.016 1444.97 -243.459C1452.64 -246.612 1460.62 -247.292 1468.15 -250.645C1466.78 -256.859 1465.69 -262.749 1464.16 -268.521C1450.59 -319.513 1436.95 -370.483 1423.31 -421.454C1422.88 -423.078 1422.16 -424.638 1421.5 -426.43C1416.72 -426.235 1412.26 -426.042 1407.68 -425.855C1405.25 -447.317 1404.37 -468.27 1401.72 -489.673C1394.6 -489.054 1388.04 -488.489 1381.48 -487.897C1381.03 -487.851 1380.59 -487.592 1380.16 -487.409C1377.58 -486.34 1375.04 -485.158 1372.43 -484.202C1368.51 -482.775 1364.53 -481.502 1360.19 -480.037C1361.6 -478.97 1362.58 -478.442 1363.26 -477.673C1363.94 -476.902 1364.31 -475.869 1364.85 -474.884C1369.32 -475.545 1373.53 -476.174 1378.7 -476.94L1378.71 -476.951ZM343.408 110.838C387.891 107.403 430.484 100.594 473.188 87.7255C467.68 82.1695 462.992 77.4405 457.942 72.3518C451.012 78.0556 444.505 83.4182 437.788 88.9603C433.44 83.9695 429.447 79.3875 425.197 74.5132C418.172 79.2245 411.585 83.648 404.812 88.197C402.9 85.5603 401.313 83.607 399.986 81.489C398.263 78.7445 396.032 77.5148 393.365 78.2466C387.554 82.0156 389.504 88.5986 386.919 93.3406C380.429 93.4301 374.478 90.237 367.822 91.274C366.235 96.615 364.668 101.855 363.016 107.414C357.24 105.943 351.822 104.566 346.046 103.095C345.172 105.659 344.497 107.655 343.419 110.844L343.408 110.838ZM918.299 -327.565C924.468 -328.215 930.28 -325.508 935.764 -329.789C943.297 -326.086 951.066 -329.076 958.724 -329.886C961.463 -326.186 964.705 -327.186 968.409 -328.309C968.174 -330.434 967.962 -332.365 967.708 -334.665C965.628 -334.442 964.093 -334.279 962.563 -334.098C961.041 -333.92 959.509 -333.71 957.984 -333.511C957.95 -333.816 957.927 -334.114 957.884 -334.417C961.066 -335.571 964.259 -336.72 967.527 -337.907C967.162 -341.832 966.854 -345.192 966.561 -348.386C964.232 -349.275 962.453 -349.951 960.677 -350.617C960.744 -350.901 960.82 -351.188 960.895 -351.474C962.517 -351.527 964.136 -351.589 965.635 -351.638C966.478 -353.575 965.572 -354.436 964.178 -354.634C961.701 -354.971 959.161 -355.328 956.684 -355.17C953.89 -354.985 951.134 -353.982 948.34 -353.796C942.371 -353.39 936.383 -353.273 930.391 -353.06C928.874 -353.006 927.345 -353.035 925.511 -353.03C925.259 -354.969 925.011 -356.501 924.875 -358.043C924.23 -365.117 923.649 -372.199 922.975 -379.275C922.83 -380.853 923.195 -382.758 920.561 -383.861C917.961 -365.23 917.939 -346.879 918.314 -327.578L918.299 -327.565ZM986.362 -371.443C986.287 -371.118 986.201 -370.8 986.117 -370.474C982.999 -371 979.825 -370.922 976.86 -372.622C974.871 -373.764 972.737 -374.668 970.596 -375.493C969.228 -376.021 967.734 -376.202 966.302 -376.542C966.351 -376.822 966.4 -377.101 966.451 -377.372C968.855 -377.168 971.269 -376.957 973.8 -376.74C974.02 -377.73 974.349 -378.351 974.246 -378.913C973.295 -384.679 972.612 -390.507 971.17 -396.151C969.952 -400.922 966.328 -403.986 960.968 -406.462C961.715 -395.021 962.657 -384.308 963.82 -373.482C967.448 -372.645 970.643 -371.901 973.846 -371.16C973.788 -370.878 973.721 -370.594 973.661 -370.321C970.656 -370.64 967.64 -370.966 964.135 -371.341C964.342 -365.871 964.163 -361.059 965.598 -356.583C971.815 -354.954 994.927 -357.08 998.311 -358.935C1006.51 -359.3 1013.6 -359.617 1020.55 -359.924C1021.69 -363.795 1019.76 -365.705 1017.7 -367.466C1013.98 -370.646 1010.12 -373.666 1006.45 -376.898C1004.46 -378.658 1002.36 -378.96 999.878 -378.479C993.686 -377.271 987.459 -376.196 981.268 -374.988C980.517 -374.845 979.862 -374.232 978.527 -373.466C981.664 -372.65 984.014 -372.042 986.355 -371.431L986.362 -371.443ZM918.406 -311.474C914.779 -310.847 911.71 -310.302 908.618 -309.809C907.222 -309.588 905.511 -308.874 904.472 -309.414C901.49 -310.928 898.584 -309.989 895.639 -309.868C894.472 -309.823 893.301 -309.899 892.133 -309.93C892.124 -310.317 892.107 -310.702 892.098 -311.09C897.006 -311.337 901.928 -311.53 906.826 -311.85C910.105 -312.07 913.397 -312.351 916.629 -312.891C917.511 -313.041 918.232 -314.223 919.023 -314.929C918.872 -315.317 918.712 -315.702 918.563 -316.081C916.069 -316.194 913.578 -316.298 911.085 -316.412C911.088 -316.65 911.082 -316.886 911.076 -317.123C913.609 -317.571 916.142 -318.02 919.047 -318.54C918.958 -321.255 918.886 -323.518 918.809 -326.37C912.928 -325.492 907.612 -324.709 902.307 -323.918C902.235 -324.26 902.171 -324.605 902.099 -324.947L910.709 -327.248C910.658 -327.615 910.619 -327.975 910.577 -328.345C901.872 -328.395 893.184 -328.451 884.155 -328.501C883.085 -323.146 882.139 -318.395 881.211 -313.715C879.672 -313.104 878.313 -312.57 876.351 -311.798C879.26 -308.277 883.134 -311.395 886.049 -309.635C882.93 -307.784 878.821 -309.957 875.981 -305.46C880.087 -305.502 883.341 -305.535 886.605 -305.561C886.618 -305.298 886.623 -305.033 886.636 -304.77C883.283 -304.293 879.941 -303.809 876.782 -303.354C876.063 -301.878 875.522 -300.773 875.319 -300.357C872.008 -299.473 869.371 -298.558 866.659 -298.1C863.721 -297.6 860.696 -297.638 857.732 -297.236C854.657 -296.823 854.469 -296.459 854.62 -292.476C858.644 -292.686 862.685 -292.901 867.114 -293.124C867.226 -291.889 867.333 -290.777 867.429 -289.813L858.988 -287.557C860.11 -285.67 860.96 -284.271 861.807 -282.842C863.565 -283.027 864.944 -283.167 866.204 -283.295C866.871 -284.605 867.422 -285.674 867.876 -286.575L875.589 -288.637C875.721 -290.669 875.828 -292.476 875.98 -294.752C871.543 -294.916 867.598 -295.051 863.651 -295.194C863.665 -295.569 863.677 -295.952 863.691 -296.327C867.203 -296.353 871.109 -295.4 874.116 -296.641C877.766 -298.139 881.248 -297.139 885.4 -297.831C885.578 -298.696 885.845 -299.937 886.038 -300.816C890.839 -301.605 894.855 -302.269 899.072 -302.968L900.018 -299.427C898.761 -298.758 897.585 -298.139 895.345 -296.951C901.461 -295.523 906.6 -295.546 911.2 -295.092C912.934 -296.221 914.31 -296.979 915.518 -297.939C916.601 -298.799 918.883 -298.477 918.539 -301.333C914.773 -300.974 911.029 -300.61 906.921 -300.216C906.714 -301.844 906.576 -302.967 906.395 -304.355C910.545 -305.264 914.325 -306.103 918.376 -306.996C918.504 -307.334 918.878 -307.891 918.904 -308.469C918.935 -309.209 918.686 -309.96 918.419 -311.458L918.406 -311.474ZM1130.72 -538.107C1128.37 -539.399 1126.7 -540.277 1125.08 -541.214C1119.48 -544.441 1113.88 -547.7 1108.27 -550.908C1106.57 -551.872 1104.89 -553.276 1102.29 -551.299C1108.96 -545.664 1115.37 -540.263 1121.56 -535.032C1126.56 -535.902 1131.02 -536.677 1135.34 -537.422C1136 -536.115 1136.42 -535.322 1136.95 -534.285C1139.12 -535.161 1141.15 -535.978 1142.66 -536.582C1143.19 -539.138 1143.64 -541.293 1144.11 -543.608C1142.04 -545.413 1139.86 -547.303 1137.81 -549.093C1139.63 -553.281 1142.33 -550.722 1143.65 -550.912C1146.74 -546.155 1151.9 -544.719 1155.12 -540.929C1157.28 -541.392 1159.21 -541.813 1161.04 -542.208C1161.41 -545.615 1161.72 -548.524 1162.02 -551.256C1158.11 -553.246 1153.93 -554.172 1153.17 -558.858C1151.65 -559.014 1150.33 -559.144 1148.14 -559.367C1150.21 -560.606 1151.52 -561.394 1152.83 -562.182C1152.82 -562.52 1152.79 -562.856 1152.78 -563.195C1150.98 -563.694 1149.18 -564.191 1148.17 -564.473C1145.4 -561.689 1143.3 -559.578 1141.27 -557.533C1137.66 -558.783 1134.49 -559.877 1130.21 -561.356L1122.22 -559.221C1124.87 -554.881 1128.9 -558.164 1132.16 -556.819C1131.06 -555.734 1130.19 -554.884 1129.47 -554.177C1131.88 -552.313 1134.01 -550.665 1136.54 -548.716C1134.57 -545.138 1132.78 -541.882 1130.71 -538.104L1130.72 -538.107ZM1211.27 -80.0868C1214.66 -80.5853 1217.08 -80.9275 1219.78 -81.3256C1220.69 -91.9062 1221.57 -102.052 1222.49 -112.615C1218.69 -112.979 1215.51 -113.288 1212.34 -113.591C1211.75 -122.412 1212.82 -130.753 1211.54 -139.578C1208.38 -139.257 1205.68 -138.972 1202.85 -138.693C1201.17 -129.94 1199.65 -121.83 1198.61 -113.309C1203.16 -113.051 1207.01 -112.835 1211.05 -112.61C1211.12 -101.769 1211.19 -91.4114 1211.27 -80.0868ZM1270.85 -144.97C1270.8 -148.618 1270.75 -151.666 1270.7 -154.897C1278.3 -156.092 1285.57 -155.837 1292.87 -157.368C1292.59 -163.96 1292.66 -170.01 1290.82 -176.394C1283.19 -175.029 1275.98 -173.749 1268.29 -172.388C1267.51 -163.089 1266.77 -154.236 1265.99 -144.954C1267.83 -144.962 1269 -144.969 1270.85 -144.979L1270.85 -144.97ZM1232.92 -3.99108C1240.49 -3.37155 1247.17 -2.83551 1254.15 -2.26654C1255 -10.2076 1255.9 -17.474 1255.91 -25.5909C1248.05 -24.8686 1240.76 -24.2047 1232.87 -23.4729C1232.89 -16.8408 1232.9 -10.777 1232.92 -3.99108ZM1418.16 -167.29C1412.23 -168.11 1388.3 -165.632 1385.1 -163.864C1385.65 -159.048 1386.06 -154.116 1387.84 -149.572C1394.15 -150.031 1417.55 -156.589 1420.46 -158.651L1418.15 -167.288L1418.16 -167.29ZM1088.53 -536.894C1094.14 -532.164 1099.38 -527.611 1104.8 -523.286C1106.31 -522.082 1108.31 -520.992 1110.16 -520.839C1113.52 -520.548 1116.95 -521.009 1120.07 -521.137C1122.35 -520.102 1124.45 -519.16 1126.69 -518.145C1129.02 -520.85 1131.03 -523.182 1133.43 -525.985C1132.22 -526.725 1131.24 -527.841 1130.26 -527.845C1126.21 -527.849 1122.01 -527.982 1119.29 -523.527C1114.02 -527.139 1109.28 -530.474 1104.44 -533.681C1099.53 -536.942 1095.14 -541.095 1090.22 -543.128C1087.68 -541.792 1085.96 -540.895 1084.05 -539.899C1084.07 -539.478 1084.01 -538.833 1084.17 -538.258C1084.37 -537.522 1084.77 -536.848 1085.14 -535.987L1088.52 -536.891L1088.53 -536.894ZM506.203 -185.708C507.869 -191.004 506.874 -192.127 501.213 -192.458C499.817 -191.524 498.565 -190.695 496.911 -189.587C495.484 -192.116 494.282 -194.229 493.112 -196.294C493.822 -198.938 494.635 -201.342 495.085 -203.821C495.517 -206.19 497.473 -208.586 494.935 -211.998C492.49 -205.914 488.109 -201.205 491.221 -194.438C490.29 -194.684 489.719 -194.826 489.249 -194.948C487.97 -192.866 486.707 -190.797 485.45 -188.74C483.173 -189.254 481.341 -189.667 479.627 -190.065C478.076 -189.109 476.655 -188.234 474.786 -187.079C473.614 -189.257 472.644 -191.071 471.677 -192.876C468.689 -192.705 468.229 -190.509 467.923 -189.058C469.045 -186.001 469.935 -183.595 471.205 -180.159C474.116 -179.158 477.883 -177.873 482.009 -176.456C483.458 -180 484.695 -183.022 485.915 -186.002C488.65 -187.332 491.302 -188.621 494.364 -190.114C495.369 -187.777 496.279 -185.652 497.35 -183.143C497.943 -182.949 498.952 -182.629 500.244 -182.204C500.999 -185.43 502.737 -187.074 506.2 -185.717L506.203 -185.708ZM563.438 -219.607C562.693 -210.792 562.005 -202.515 561.268 -193.816C563.765 -192.8 565.965 -191.895 568.55 -190.836C571.119 -197.628 573.435 -203.763 575.729 -209.806C577.221 -210.024 578.401 -210.197 579.673 -210.385C580.321 -214.01 580.652 -217.361 579.244 -221.207C576.879 -221.231 574.523 -221.258 571.643 -221.287C572.415 -219.144 572.891 -217.826 573.484 -216.177C570.093 -217.335 567.205 -218.322 563.446 -219.61L563.438 -219.607ZM653.785 -208.215C652.805 -202.275 651.876 -196.644 650.96 -191.102C653.134 -189.943 654.743 -189.26 656.127 -188.28C657.638 -187.219 659.536 -186.129 660.214 -184.589C661.385 -181.915 663.136 -181.699 665.845 -182.023C666.711 -183.481 668.335 -185.019 668.449 -186.656C668.753 -190.998 668.855 -195.457 668.177 -199.736C667.566 -203.624 665.823 -207.333 664.757 -210.577C661.062 -212.728 660.075 -209.696 658.242 -208.37C657.075 -208.324 655.833 -208.277 653.788 -208.206L653.785 -208.215ZM1107.9 -507.711C1110.05 -506.059 1112.01 -504.54 1113.97 -503.036C1117.05 -506.589 1114.77 -509.85 1115.68 -512.756C1113.18 -513.23 1110.38 -512.233 1107.27 -509.767C1102.78 -513.617 1097.89 -517.112 1091.27 -513.383L1097.06 -491.717L1103.58 -493.461C1103.01 -496.237 1102.5 -498.725 1102.07 -500.826C1103.97 -503.074 1105.73 -505.142 1107.9 -507.709L1107.9 -507.711ZM453.747 -184.632C452.697 -184.646 451.645 -184.669 450.738 -184.684C449.395 -182.841 448.195 -181.208 447.094 -179.706C445.419 -179.781 444.061 -179.846 442.877 -179.901C441.277 -178.199 439.886 -176.714 438.523 -175.266C437.254 -175.355 436.179 -175.429 434.878 -175.528C433.673 -174.198 432.454 -172.854 430.884 -171.113C432.92 -169.651 434.519 -168.509 435.883 -167.532C438.189 -167.977 440.018 -168.324 441.835 -168.676C443.645 -171.547 445.374 -174.292 447.23 -177.241C451.611 -174.903 455.561 -172.792 459.976 -170.434C460.842 -172.748 461.466 -174.398 461.903 -175.571C460.15 -177.47 458.88 -178.843 457.727 -180.094C460.099 -183.676 461.57 -179.951 464.031 -180.419C464.446 -181.072 465.116 -182.126 466.1 -183.673C462.739 -185.219 459.939 -186.515 457.132 -187.8C455.815 -186.573 454.796 -185.616 453.736 -184.638L453.747 -184.632ZM873.968 -281.252C867.367 -282.36 861.213 -281.295 855.041 -280.121C852.135 -279.572 849.543 -278.88 848.433 -275.702C845.477 -276.338 842.764 -276.916 839.416 -277.628C838.781 -274.311 838.241 -271.494 837.74 -268.849C841.45 -266.246 844.742 -266.669 848.268 -268.135C848.524 -269.42 848.792 -270.766 849.036 -271.916C854.239 -274.828 860.664 -272.922 865.173 -277.009C868.141 -277.222 871.073 -277.425 874.32 -277.656C874.178 -279.149 874.084 -280.142 873.986 -281.257L873.968 -281.252ZM506.054 -53.4683C509.636 -51.7724 512.596 -50.3761 515.799 -48.8546C516.723 -47.7797 516.657 -44.7188 520.204 -46.3229C517.989 -50.1247 515.857 -53.7964 513.714 -57.4746C516.536 -57.2684 518.291 -55.9686 518.496 -53.6363C518.671 -51.6668 519.798 -50.8649 521.248 -50.2064C522.917 -49.4445 524.643 -48.8217 526.484 -48.0871C528.359 -49.2919 531.265 -49.5551 531.179 -53.2599C529.569 -52.7346 528.354 -52.3339 526.694 -51.7855C526.097 -56.1908 529.549 -55.6583 531.823 -56.3993C530.72 -59.5662 527.754 -58.5643 526.224 -59.9146C525.552 -59.5828 525.1 -59.4239 524.714 -59.1592C521.112 -56.7319 521.148 -56.8082 517.838 -59.3376C516.534 -60.3394 514.897 -60.9102 513.178 -61.7917C513.132 -62.7114 513.075 -63.8849 513.001 -65.3011C511.679 -65.585 510.55 -65.8253 508.835 -66.1942C509.413 -64.4942 509.79 -63.3682 509.958 -62.8806C508.598 -59.607 507.479 -56.8923 506.057 -53.4595L506.054 -53.4683ZM1292.38 -156.821C1292.7 -152.692 1292.95 -149.259 1293.24 -145.836C1294.01 -136.723 1294.78 -127.609 1295.62 -118.503C1295.74 -117.081 1295.29 -115.152 1298.04 -114.843C1298.32 -115.783 1298.87 -116.757 1298.87 -117.735C1298.9 -130.753 1299.16 -143.777 1298.83 -157.289C1296.5 -157.122 1294.86 -157.006 1292.38 -156.83L1292.38 -156.821ZM314.739 1.64891C318.132 3.63316 322.938 2.47229 325.164 7.38381C326.698 5.68973 327.903 4.35979 329.249 2.88716C327.346 1.63649 325.939 0.215157 324.269 -0.270388C321.906 -0.960929 319.293 -0.775984 316.872 -1.3274C315.566 -1.62495 314.04 -2.42484 313.312 -3.47612C312.027 -5.32959 311.283 -7.54615 310.332 -9.57442C306.74 -10.0601 303.471 -11.8302 299.199 -9.88006C301.302 -8.5591 302.572 -7.75733 303.963 -6.89285C303.6 -4.69399 303.249 -2.55552 302.797 0.199699C306.36 1.57725 309.776 2.89928 313.095 4.18047C313.795 3.09942 314.208 2.47538 314.741 1.65778L314.739 1.64891ZM530.022 -184.229C530.585 -187.137 530.991 -189.214 531.349 -191.041C528.509 -194.371 525.403 -194.359 522.29 -193.337C520 -194.398 517.894 -195.376 515.83 -196.336C515.632 -200.421 514.248 -203.465 511.686 -205.471C509.744 -201.386 508.777 -197.105 508.049 -192.821C507.692 -190.738 509.294 -189.797 511.295 -189.818C512.692 -190.857 514.024 -191.85 515.816 -193.185C517.086 -191.137 518.105 -189.498 519.251 -187.665C522.369 -186.672 525.767 -185.593 530.028 -184.24L530.022 -184.229ZM787.938 -204.859C788.84 -203.265 787.626 -200.049 791.403 -200.793C792.306 -202.109 793.301 -203.582 794.464 -205.282C792.883 -205.715 791.549 -206.081 789.98 -206.508C790.027 -207.472 790.069 -208.31 790.119 -209.332C792.547 -209.391 794.704 -209.435 796.811 -209.485C799.251 -212.99 798.373 -216.131 796.998 -218.997C794.215 -219.518 791.884 -219.951 788.962 -220.492C787.12 -216.034 785.175 -211.32 783.131 -206.371C784.874 -205.828 786.193 -205.411 787.938 -204.859ZM332.155 192.989C323.668 189.807 317.779 189.479 314.726 192.254C316.353 193.075 317.827 193.927 319.388 194.575C321.078 195.274 322.842 195.791 324.63 196.397C324.528 198.184 324.443 199.538 324.37 200.832C329.602 202.296 342.523 202.105 345.672 200.436C341.312 199.138 337.16 197.909 333.151 196.717L332.15 192.971L332.155 192.989ZM544.086 -200.389C546.285 -207.672 545.396 -213.739 544.152 -220.492C541.873 -220.729 539.038 -221.018 536.33 -221.292C535.687 -218.505 535.057 -216.416 534.781 -214.278C534.635 -213.117 534.707 -211.567 535.36 -210.724C537.91 -207.411 540.735 -204.315 544.097 -200.382L544.086 -200.389ZM492.843 70.7082C487.604 75.0185 482.37 79.2418 478.892 85.3354C487.313 84.1405 494.28 78.5409 503.76 79.212C500.741 74.6744 497.654 72.0567 492.84 70.6994L492.843 70.7082ZM1334.3 -479.357C1334.34 -480.528 1334.55 -481.325 1334.37 -482.028C1331.4 -493.313 1328.4 -504.599 1325.33 -515.855C1325.13 -516.574 1324.31 -517.116 1323.79 -517.744C1323.49 -517.628 1323.2 -517.512 1322.9 -517.394C1324.81 -504.715 1327.02 -492.094 1329.69 -479.2C1331.45 -479.26 1332.76 -479.305 1334.28 -479.353L1334.3 -479.357ZM864.436 -273.54C864.484 -273.182 864.544 -272.818 864.601 -272.462C861.652 -271.113 858.694 -269.761 855.82 -268.451C857.043 -266.971 858.257 -265.488 859.637 -263.813C863.8 -263.289 868.11 -262.749 873.168 -262.113C873.471 -265.285 873.766 -268.378 874.064 -271.463C870.358 -272.27 867.393 -272.904 864.434 -273.549L864.436 -273.54ZM367.388 192.093C363.388 193.067 360.041 193.781 356.762 194.714C353.104 195.758 352.861 196.27 352.751 201.483C358.406 201.826 364.052 201.991 370.487 201.517C369.367 198.107 368.509 195.502 367.386 192.084L367.388 192.093ZM1324.7 -51.8676C1330.79 -51.8616 1336.46 -51.3316 1342.5 -52.1179C1342.34 -54.8609 1342.21 -56.9583 1342.04 -59.8505C1335.85 -58.7764 1330.26 -57.8144 1324.25 -56.7701C1324.43 -54.9053 1324.54 -53.6235 1324.7 -51.8676ZM476.962 -54.6801C480.687 -55.4758 483.132 -51.4882 486.845 -52.7183L485.639 -57.2274C487.101 -57.523 488.339 -57.7681 489.603 -58.0203C488.563 -62.4786 483.21 -65.7839 478.092 -65.5762C476.958 -63.0952 481.649 -60.7353 478.213 -57.934C477.113 -58.8857 476.139 -59.719 475.162 -60.5612C474.898 -60.3765 474.624 -60.1892 474.362 -59.9955C475.142 -58.3969 475.918 -56.8071 476.965 -54.6712L476.962 -54.6801ZM1021.55 -418.945C1017.91 -419.57 1015.29 -420.02 1012.67 -420.47C1012.69 -420.763 1012.72 -421.046 1012.75 -421.339C1015.23 -421.403 1017.72 -421.459 1020.69 -421.538C1015.96 -427.437 1013.32 -428.653 1010.28 -426.736C1010.4 -425.399 1010.7 -424.044 1010.61 -422.717C1010.24 -417.148 1011.53 -415.041 1017.36 -412.653C1018.56 -414.457 1019.81 -416.34 1021.54 -418.951L1021.55 -418.945ZM1124.29 -444.969C1117.14 -450.046 1115.79 -450.18 1113.46 -445.973C1115.55 -444.067 1117.39 -441.479 1119.88 -440.367C1122.62 -439.15 1125.99 -439.173 1129.31 -440.814C1129.59 -442.209 1129.88 -443.684 1130.19 -445.252C1128.99 -446.195 1128.03 -446.946 1127.15 -447.625C1125.88 -446.439 1125.2 -445.81 1124.29 -444.969ZM533.142 -191.767C537.476 -190.995 541.793 -190.18 546.139 -189.468C547.88 -189.182 549.201 -189.716 549.323 -192.392C546.668 -192.824 544.112 -193.244 541.022 -193.74C539.645 -195.94 538.103 -198.4 536.293 -201.292C535.506 -201.462 534.195 -201.74 532.187 -202.173C532.51 -198.579 532.79 -195.506 533.136 -191.756L533.142 -191.767ZM315.711 247.606C317.506 245.852 319.099 244.304 320.683 242.759C319.608 238.7 316.722 237.227 310.465 237.796C309.915 239.332 309.314 241.033 308.791 242.494C309.743 243.495 310.297 244.07 311.12 244.944C309.04 244.777 307.216 244.323 307.685 247.146C310.278 250.086 313.221 246.437 315.714 247.615L315.711 247.606ZM343.405 224.903C346.512 229.236 351.53 227.905 356.045 229.038C356.4 226.413 356.67 224.401 356.975 222.161C354.167 222.616 351.691 223.031 349.02 223.459C346.267 223.054 343.218 222.604 340.198 222.156C339.013 220.998 337.797 219.792 335.795 217.817C335.192 220.365 334.86 221.756 334.426 223.584C337.721 224.064 340.465 224.471 343.405 224.903ZM1371.44 -519.039C1371.6 -513.91 1375.8 -498.816 1378.5 -494.641C1377.73 -503.764 1377.04 -511.807 1376.32 -520.344L1371.45 -519.042L1371.44 -519.039ZM287.54 197.637C292.526 200.033 297.609 199.445 302.49 199.918C303.144 199.981 303.931 198.725 304.737 198.005C301.578 195.759 292.343 193.406 288.002 193.71C287.865 194.907 287.706 196.195 287.54 197.637ZM384.735 10.0166C387.009 12.1192 388.093 12.7613 389.606 12.8706C390.003 8.34228 391.744 4.35825 395.822 0.652908C392.954 0.668129 391.036 0.676904 389.505 0.677162C385.35 2.56742 384.022 5.64214 384.726 10.0189L384.735 10.0166ZM356.867 -44.8647C357.734 -48.7008 354.154 -48.4668 352.583 -49.5779C350.459 -51.0835 347.823 -50.2742 345.571 -48.5217C345.52 -46.8249 345.476 -45.1394 345.437 -43.7213C344.52 -42.2401 341.777 -41.9728 343.538 -39.3336C346.978 -41.4798 350.371 -43.585 353.632 -45.6169C354.86 -45.327 355.842 -45.1044 356.867 -44.8647ZM314.24 -17.5805C318.067 -16.2161 321.05 -15.1591 324.307 -14.0039C325.069 -17.0226 325.661 -19.3298 326.375 -22.1361C322.394 -20.6632 317.32 -24.1 314.24 -17.5805ZM1214.63 -502.198C1210.08 -502.334 1206.33 -502.748 1202.88 -500.856C1202.46 -500.63 1202.51 -499.55 1202.32 -498.718C1206.14 -497.133 1210.1 -499.733 1213.63 -497.109C1210.65 -496.609 1207.67 -496.117 1204.7 -495.617C1204.75 -495.325 1204.79 -495.023 1204.84 -494.732C1207.99 -495.079 1211.15 -495.429 1214.72 -495.823C1214.69 -498.154 1214.66 -499.925 1214.63 -502.189L1214.63 -502.198ZM605.703 31.6144C606.766 28.905 607.631 26.6958 608.559 24.2984C606.787 23.0412 605.333 22.0128 603.41 20.6532C601.899 23.3966 600.676 25.6161 599.286 28.1369C601.554 29.366 603.279 30.3031 605.703 31.6144ZM370.445 25.8282C368.267 25.2595 366.694 24.8526 364.946 24.3973C363.185 28.1297 367.529 29.118 367.811 32.0574C372.238 29.9043 373.526 26.1839 375.243 22.0064C373.195 22.1354 371.659 22.2226 369.806 22.3373C369.966 23.2172 370.102 23.9416 370.454 25.8258L370.445 25.8282ZM837.479 -262.246C837.205 -262.629 836.923 -263.01 836.647 -263.403C833.067 -263.559 829.491 -263.811 825.912 -263.786C825.239 -263.777 824.586 -262.661 823.591 -261.758C827.762 -259.212 831.706 -259.543 835.54 -259.788C836.241 -259.832 836.833 -261.389 837.479 -262.246ZM313.31 220.973C312.85 223.236 312.435 224.849 314.712 225.934C315.688 225.245 316.667 224.565 317.557 223.946C322.679 225.744 323.436 225.732 327.387 223.364C322.512 222.061 318.148 221.601 313.31 220.973ZM618.003 -219.089C620.007 -222.23 619.399 -232.367 617.256 -237.006C616.802 -231.017 616.093 -225.026 618.003 -219.089ZM1090.48 -516.313C1092.71 -516.527 1094.48 -516.696 1096.46 -516.882C1094.45 -520.712 1093.03 -521.986 1088.43 -524.017L1090.49 -516.304L1090.48 -516.313ZM640.001 96.427C634.288 100.531 633.888 101.17 635.17 104.328C638.31 103.232 640.891 101.467 643.06 98.4434C641.848 97.6451 640.868 97.0036 640.003 96.4359L640.001 96.427ZM514.718 -216.971C513.334 -213.682 512.229 -211.056 512.868 -208.022C517.375 -208.523 517.76 -209.006 518.088 -214.753C517.212 -215.327 516.218 -215.984 514.72 -216.962L514.718 -216.971ZM377.349 -43.3107C379.639 -43.9228 381.568 -44.5334 383.542 -44.9376C385.473 -45.3299 387.84 -43.7658 389.481 -46.0589C385.296 -50.2946 381.349 -45.9206 377.076 -46.3952C377.176 -45.2714 377.25 -44.4257 377.349 -43.3107ZM593.934 120.199C596.52 118.699 598.332 117.654 600.755 116.255C599.17 114.739 598.122 113.735 596.895 112.56C595.14 113.571 593.715 114.399 592.011 115.387C592.668 117.028 593.158 118.257 593.925 120.201L593.934 120.199ZM450.458 -60.977C451.838 -59.4059 452.876 -58.2282 453.87 -57.1054C453.36 -55.029 452.876 -53.1023 452.402 -51.178C452.813 -51.0978 453.216 -51.0151 453.629 -50.926C454.704 -54.5895 456.39 -58.1023 456.434 -62.5647L450.451 -60.9658L450.458 -60.977ZM393.655 199.281L393.924 200.712C396.745 200.414 399.566 200.117 403.239 199.734C402.15 197.581 401.521 196.332 400.874 195.05C399.384 196.161 398.463 196.988 397.414 197.582C396.224 198.252 394.923 198.723 393.664 199.278L393.655 199.281ZM829.238 -240.063C833.943 -240.569 834.122 -240.826 833.676 -246.052C832.066 -245.811 830.483 -245.579 828.507 -245.288C828.786 -243.318 828.99 -241.842 829.246 -240.065L829.238 -240.063ZM482.401 -36.324C484.337 -36.1949 485.294 -36.1368 486.709 -36.0394C485.885 -38.872 488.977 -41.6098 485.451 -44.2338C484.456 -41.657 483.592 -39.4099 482.401 -36.324ZM1106.39 -412.946C1110.57 -412.791 1111.07 -415.863 1112.82 -417.262C1113.16 -417.533 1112.21 -419.4 1111.85 -420.54C1111.43 -420.562 1111.01 -420.582 1110.59 -420.613C1109.32 -418.295 1108.05 -415.977 1106.38 -412.955L1106.39 -412.946ZM222.244 165.722C227.91 169.524 229.886 169.908 232.348 167.482C229.151 165.911 226.077 165.297 222.244 165.722ZM364.076 145.541C368.067 147.128 369.733 146.673 373.522 143.416C370.283 142.894 367.322 143.133 364.076 145.541ZM391.092 -14.9823C390.62 -13.1918 390.885 -11.2371 391.885 -9.09821C391.752 -7.81682 389.846 -6.58474 391.692 -5.05235C394.646 -10.9013 394.527 -12.4861 391.092 -14.9823ZM1127.32 -509.363C1127.37 -509.776 1127.41 -510.187 1127.48 -510.593C1125.02 -511.438 1122.53 -512.049 1119.63 -510.522C1119.74 -509.744 1119.84 -509.048 1120 -508.052C1122.6 -508.511 1124.96 -508.932 1127.32 -509.354L1127.32 -509.363ZM254.38 -11.9003C249.41 -13.986 249.018 -13.8148 248.58 -9.33265C249.916 -9.03335 251.314 -8.71275 252.842 -8.36975C253.439 -9.72775 253.849 -10.6837 254.38 -11.9003ZM1093.87 -408.841C1093.95 -409.357 1094.04 -409.873 1094.12 -410.38C1092.69 -411.131 1091.25 -411.878 1089.44 -412.821C1088.49 -411.283 1087.76 -410.079 1087.02 -408.884C1087.22 -408.546 1087.41 -408.206 1087.6 -407.868C1089.69 -408.189 1091.79 -408.522 1093.87 -408.841ZM397.639 236.78C400.315 235.655 402.391 234.777 404.479 233.905C404.416 233.599 404.346 233.304 404.283 232.997C401.653 233.082 399.016 233.178 395.857 233.281C396.543 234.638 396.987 235.518 397.639 236.78ZM354.778 -88.0149C352.894 -90.5072 351.351 -89.7713 350.033 -88.0495C349.061 -86.7724 348.951 -85.0501 350.62 -84.4977C353.294 -83.6049 354.098 -85.6839 354.784 -88.0261L354.778 -88.0149ZM605.807 -187.47C607.994 -188.825 608.137 -190.565 607.969 -192.936C606.177 -193.38 604.382 -193.832 601.979 -194.426C603.465 -191.713 604.517 -189.807 605.8 -187.459L605.807 -187.47ZM1112.19 -518.006C1114.69 -515.802 1117.79 -514.918 1120.99 -514.241C1118.48 -516.416 1116.53 -519.707 1112.19 -518.006ZM1103.81 -434.711C1103.51 -438.595 1101.19 -439.164 1099 -440.309C1098.33 -439.36 1097.77 -438.574 1096.88 -437.329C1099.25 -436.431 1101.19 -435.712 1103.81 -434.711ZM401.109 -40.9118C404.371 -39.701 406.598 -40.2295 407.792 -42.4887C406.579 -43.0395 405.378 -43.5839 403.647 -44.3671C402.753 -43.1581 401.994 -42.1184 401.109 -40.9118ZM394.035 237.495C392.326 234.728 390.621 233.33 388.906 233.284C389.199 234.984 389.485 236.695 389.81 238.625L394.035 237.495ZM326.973 -13.5277C321.561 -11.2917 320.692 -9.30978 323.339 -6.59358C324.422 -8.66146 325.447 -10.6281 326.973 -13.5277ZM384.754 235.078L385.529 234.633C385.013 233.449 384.506 232.263 383.943 230.977C381.893 230.993 380.155 231.001 378.419 231.018C378.364 231.346 378.312 231.684 378.259 232.021C380.424 233.04 382.592 234.068 384.748 235.089L384.754 235.078ZM270.154 65.3002C267.457 66.0972 265.135 64.8822 263.786 67.4492C266.584 68.5271 268.706 67.8175 270.154 65.3002ZM1110.26 -430.425C1107.26 -431.326 1105 -432.005 1102.24 -432.827C1104.68 -428.371 1107.11 -427.508 1110.26 -430.425ZM323.626 110.266C325.971 108.47 326.757 106.073 326.222 103.182C323.544 104.763 323.768 107.594 323.626 110.266ZM539.976 -201.107C539.725 -197.026 540.09 -196.515 543.793 -195.08C544.443 -198.126 542.901 -199.663 539.976 -201.107ZM729.527 -245.852C729.955 -245.672 730.381 -245.501 730.81 -245.32C731.664 -246.538 732.527 -247.757 733.877 -249.678C731.814 -249.678 730.722 -249.671 729.287 -249.668C729.376 -248.123 729.45 -246.992 729.518 -245.85L729.527 -245.852ZM402.792 -14.3337C404.834 -13.1678 406.094 -12.4393 408.01 -11.3538C408.048 -13.1329 408.067 -14.0603 408.086 -15.1972C406.328 -14.908 404.988 -14.6924 402.789 -14.3426L402.792 -14.3337ZM1152.79 -439.928C1149.76 -443.625 1149.51 -443.614 1147.8 -440.05C1149.63 -440.006 1151.21 -439.962 1152.79 -439.928ZM596.764 -178.32C595.024 -175.791 595.025 -173.014 595.718 -170.137C596.37 -172.822 597.933 -175.37 596.764 -178.32ZM410.616 -17.7944C408.33 -21.7199 407.672 -21.658 405.279 -17.7281C407.024 -17.7474 408.426 -17.7701 410.616 -17.7944ZM364.54 221.679C366.868 223.273 368.927 223.398 370.44 220.626C368.469 220.972 366.509 221.324 364.54 221.679ZM835.42 48.1253C837.878 48.1056 838.18 46.3891 838.263 44.4934C837.313 45.7078 836.37 46.9109 835.42 48.1253ZM1107.64 -491.101C1109.52 -490.664 1110.97 -490.422 1112.03 -492.599C1109.97 -493.74 1108.62 -493.665 1107.64 -491.101ZM423.818 -162.929C423.482 -163.191 423.143 -163.462 422.807 -163.724C421.528 -162.992 419.764 -162.654 420.758 -158.972C422.15 -160.771 422.984 -161.85 423.818 -162.929ZM368.134 19.3513C365.669 17.7086 364.988 19.1838 364.108 20.6935C365.671 21.2744 367.005 20.8226 368.134 19.3513ZM834.973 -267.53C835.036 -267.898 835.108 -268.27 835.178 -268.65C833.927 -269.38 832.626 -269.907 830.893 -268.065C832.253 -267.887 833.613 -267.708 834.973 -267.53ZM535.443 -204.508C537.149 -206.523 536.198 -207.448 534.268 -208.406C533.211 -206.488 533.409 -205.324 535.443 -204.508ZM558.587 130.987C558.635 130.67 558.692 130.35 558.743 130.042C557.904 129.714 557.057 129.389 556.22 129.071C555.954 129.817 555.69 130.573 555.216 131.897L558.589 130.996L558.587 130.987ZM860.165 -299.236C860.144 -299.563 860.112 -299.897 860.091 -300.225C858.748 -300.588 857.373 -301.105 855.631 -298.976C857.644 -299.095 858.9 -299.164 860.165 -299.236ZM415.066 -15.9119C415.034 -16.2078 415.003 -16.5037 414.971 -16.7996C414.091 -16.9258 413 -17.414 412.391 -17.0609C411.903 -16.7878 412.002 -15.4924 411.654 -13.6971C413.447 -14.8516 414.256 -15.3818 415.075 -15.9143L415.066 -15.9119ZM1095.66 -552.447L1100.52 -553.744C1099.07 -554.65 1098.35 -555.104 1097.4 -555.688C1096.94 -554.823 1096.61 -554.203 1095.67 -552.449L1095.66 -552.447ZM1040.13 -394.02C1039.91 -393.666 1039.68 -393.319 1039.46 -392.966C1040.39 -392.397 1041.32 -391.837 1042.25 -391.268C1042.42 -391.552 1042.59 -391.835 1042.77 -392.119C1041.88 -392.749 1041.01 -393.381 1040.13 -394.011L1040.13 -394.02ZM834.927 -252.758C834.625 -253.067 834.324 -253.376 834.02 -253.695C833.487 -253.162 832.921 -252.649 832.449 -252.067C832.414 -252.019 832.995 -251.481 833.279 -251.166C833.832 -251.695 834.383 -252.232 834.936 -252.76L834.927 -252.758ZM565.648 -252.647C565.849 -253.071 566.049 -253.496 566.25 -253.92C565.49 -254.202 564.721 -254.481 563.961 -254.763C563.817 -254.411 563.676 -254.05 563.541 -253.7C564.242 -253.355 564.954 -253.003 565.655 -252.658L565.648 -252.647ZM428.768 -38.8701C428.527 -38.7392 428.295 -38.6106 428.054 -38.4797C428.436 -37.7638 428.826 -37.0503 429.208 -36.3344C429.449 -36.4654 429.69 -36.5962 429.93 -36.7272C429.54 -37.4407 429.15 -38.1542 428.759 -38.8677L428.768 -38.8701ZM763.444 -187.338C763.189 -187.688 762.933 -188.039 762.687 -188.391C762.063 -187.987 761.441 -187.573 760.826 -187.171C761.152 -186.735 761.48 -186.29 761.814 -185.857C762.357 -186.353 762.908 -186.853 763.453 -187.341L763.444 -187.338ZM346.864 93.3471L347.775 93.5508C347.904 92.7174 348.033 91.8841 348.162 91.0507C347.914 91.0124 347.666 90.974 347.418 90.9357C347.233 91.7365 347.05 92.5463 346.864 93.3471ZM351.987 29.5345C352.054 29.9257 352.114 30.3281 352.18 30.7192L354.112 30.0127C354.048 29.773 353.993 29.531 353.938 29.289C353.284 29.3686 352.639 29.4459 351.985 29.5256L351.987 29.5345ZM374.618 4.15189C374.945 3.95047 375.262 3.75147 375.589 3.55005C375.308 2.99744 375.025 2.43591 374.744 1.88329L373.427 2.72031C373.82 3.1953 374.225 3.67686 374.618 4.15189ZM653.297 -183.073C653.304 -183.436 653.303 -183.797 653.31 -184.16C652.487 -184.178 651.665 -184.196 650.849 -184.225L650.818 -183.238L653.297 -183.073ZM842.14 -371.622C843.533 -370.644 844.571 -370.817 845.256 -372.132C844.045 -371.932 843.098 -371.774 842.14 -371.622ZM855.929 -284.98C855.907 -285.241 855.896 -285.495 855.874 -285.755C854.883 -285.728 853.892 -285.701 852.901 -285.673C852.919 -285.355 852.931 -285.025 852.95 -284.707C853.942 -284.801 854.926 -284.893 855.927 -284.989L855.929 -284.98Z" fill="#711858"/>
</g>
<defs>
<clipPath id="clip0_3128_122764">
<rect width="1465.5" height="879.956" fill="white" transform="translate(-36 -467.6) rotate(-14.9636)"/>
</clipPath>
</defs>
</svg>
