<?xml version="1.0" encoding="utf-8"?>
<!-- Generator: Adobe Illustrator 25.3.1, SVG Export Plug-In . SVG Version: 6.00 Build 0)  -->
<svg version="1.1" id="Layer_1" xmlns="http://www.w3.org/2000/svg" xmlns:xlink="http://www.w3.org/1999/xlink" x="0px" y="0px"
	 viewBox="0 0 449.6 449.4" style="enable-background:new 0 0 449.6 449.4;" xml:space="preserve">
<g>
	<path d="M39.8,449.7c0.5,0,1.4-1.2,1.5-1.9c0.2-2.7,0.2-5.5,0-8.3c-0.1-2.2,0.6-3,2.8-2.9c3.8,0.2,7.7,0,11.5,0
		c23.4,0,46.8,0,70.2,0c3.3,0,3.3,0,3.3-3.4c0-4.5,0-9,0-13.5c0-3,0-6,0-9.3c1.3,0,2.2,0,3.2,0c17.3,0,34.6,0,52,0.1
		c2.4,0,3-0.7,3-3c-0.1-6.6,0-13.2,0-19.8c0-3.9,0-3.9,3.8-3.9c17,0,34,0,51,0c3.9,0,3.9,0,3.9-3.8c0-10.8,0.1-21.5,0-32.3
		c0-2.3,0.6-3.2,3.1-3.1c17.3,0.1,34.6,0.1,52,0.1c1,0,1.9,0,3.2,0c0-21.9,0-43.4,0-65.3c1.2,0,2.1,0,3,0c17.2,0,34.3,0,51.5,0
		c3.7,0,3.7,0,3.7-3.6c0-23.8,0-47.5,0-71.3c0-3.7,0.1-3.9,3.8-3.9c17.2,0,34.3,0,51.5,0c3.5,0,3.5,0,3.5-3.4c0-32,0-63.9,0-95.9
		c0-18.4,0-36.7,0-55.1c0-2.3,0.7-3,3-3c7.5,0.1,15,0.1,22.5,0.1c1.1,0,2.3,0,3.5,0c0-14.9,0-29.5,0-44.1c-2.4,0-4.6,0-7,0
		c0,1.1,0,2.1,0,3.1c0,10.4,0,20.9,0,31.3c0,2-0.6,2.6-2.6,2.6c-7.7-0.1-15.5,0-23.2,0c-3.8,0-3.8,0-3.8,3.8c0,50,0,99.9,0,149.9
		c0,1.1-0.1,2.2-0.2,3.6c-19.5,0-38.6,0-58.1,0c0,26.2,0,52.1,0,78.2c-1.3,0-2.3,0-3.3,0c-17.2,0-34.3,0.1-51.5-0.1
		c-2.5,0-3.2,0.7-3.2,3.2c0.1,19.9,0,39.7,0.1,59.6c0,2.6-0.8,3.2-3.2,3.1c-17.7-0.1-35.3,0-53-0.1c-2.1,0-2.7,0.6-2.7,2.7
		c0.1,11.1,0,22.2,0,33.3c0,1,0,1.9,0,3.2c-19.5,0-38.7,0-58.1,0c0,8.8,0,17.2,0,25.9c-1.2,0.1-2.2,0.1-3.2,0.1
		c-17.3,0-34.6,0.1-52-0.1c-2.6,0-3.3,0.9-3.2,3.3c0.1,6.5,0,13,0,19.5c0,3.3,0,3.3-3.3,3.3c-23.5,0-47,0-70.4,0
		c-3.7,0-7.5,0.1-11.2,0c-1.8,0-2.6,0.5-2.5,2.4c0.1,2.5,0,5,0,7.5c0,3.4,0,3.5-3.4,3.5c-10.3,0-20.5,0-30.8,0v7.4
		C13.3,449.8,26.5,449.8,39.8,449.7z"/>
</g>
</svg>
