<?xml version="1.0" encoding="utf-8"?>
<!-- Generator: Adobe Illustrator 25.3.1, SVG Export Plug-In . SVG Version: 6.00 Build 0)  -->
<svg version="1.1" id="Layer_1" xmlns="http://www.w3.org/2000/svg" xmlns:xlink="http://www.w3.org/1999/xlink" x="0px" y="0px"
	 viewBox="0 0 449.6 449.4" style="enable-background:new 0 0 449.6 449.4;" xml:space="preserve">
<g>
	<path d="M409.9,449.3c-0.5,0-1.4-1.2-1.5-1.9c-0.2-2.7-0.2-5.5,0-8.2c0.1-2.2-0.6-3-2.8-2.9c-3.8,0.2-7.7,0-11.5,0
		c-23.4,0-46.8,0-70.2,0c-3.3,0-3.3,0-3.3-3.4c0-4.5,0-9,0-13.5c0-3,0-5.9,0-9.2c-1.3,0-2.2,0-3.2,0c-17.3,0-34.6,0-52,0.1
		c-2.4,0-3-0.7-3-3c0.1-6.6,0-13.2,0-19.7c0-3.9,0-3.9-3.8-3.9c-17,0-34,0-51,0c-3.9,0-3.9,0-3.9-3.8c0-10.7-0.1-21.5,0-32.2
		c0-2.3-0.6-3.1-3.1-3.1c-17.3,0.1-34.6,0.1-52,0.1c-1,0-1.9,0-3.2,0c0-21.8,0-43.3,0-65.1c-1.2,0-2.1,0-3,0c-17.2,0-34.3,0-51.5,0
		c-3.7,0-3.7,0-3.7-3.6c0-23.7,0-47.5,0-71.2c0-3.7-0.1-3.8-3.8-3.8c-17.2,0-34.3,0-51.5,0c-3.5,0-3.5,0-3.5-3.3
		c0-31.9,0-63.8,0-95.7c0-18.3,0-36.6,0-54.9c0-2.3-0.7-3-3-3C18.5,44.1,11,44,3.5,44c-1.1,0-2.3,0-3.5,0C0,29.1,0,14.6,0,0
		c2.4,0,4.6,0,7,0c0,1.1,0,2.1,0,3.1c0,10.4,0,20.8,0,31.2c0,2,0.6,2.6,2.6,2.6c7.7-0.1,15.5,0,23.2,0c3.8,0,3.8,0,3.8,3.7
		c0,49.9,0,99.7,0,149.6c0,1.1,0.1,2.2,0.2,3.6c19.5,0,38.6,0,58.1,0c0,26.1,0,52,0,78c1.3,0,2.3,0,3.3,0c17.2,0,34.3,0.1,51.5-0.1
		c2.5,0,3.2,0.7,3.2,3.2c-0.1,19.8,0,39.6-0.1,59.4c0,2.6,0.8,3.2,3.2,3.1c17.7-0.1,35.3,0,53-0.1c2.1,0,2.7,0.6,2.7,2.7
		c-0.1,11.1,0,22.1,0,33.2c0,1,0,1.9,0,3.2c19.5,0,38.7,0,58.1,0c0,8.8,0,17.2,0,25.9c1.2,0.1,2.2,0.1,3.2,0.1
		c17.3,0,34.6,0.1,52-0.1c2.6,0,3.3,0.9,3.2,3.3c-0.1,6.5,0,13,0,19.5c0,3.3,0,3.3,3.3,3.3c23.5,0,47,0,70.4,0c3.7,0,7.5,0.1,11.2,0
		c1.8,0,2.6,0.5,2.5,2.4c-0.1,2.5,0,5,0,7.5c0,3.4,0,3.5,3.4,3.5c10.3,0,20.5,0,30.8,0v7.4C436.3,449.4,423.1,449.4,409.9,449.3z"/>
</g>
</svg>
