<svg width="22" height="1386" viewBox="0 0 22 1386" fill="none" xmlns="http://www.w3.org/2000/svg">
<path d="M0.333333 11C0.333333 16.891 5.10896 21.6667 11 21.6667C16.891 21.6667 21.6667 16.891 21.6667 11C21.6667 5.10896 16.891 0.333333 11 0.333333C5.10896 0.333333 0.333333 5.10896 0.333333 11ZM0.333333 1375C0.333333 1380.89 5.10896 1385.67 11 1385.67C16.891 1385.67 21.6667 1380.89 21.6667 1375C21.6667 1369.11 16.891 1364.33 11 1364.33C5.10896 1364.33 0.333333 1369.11 0.333333 1375ZM9 11V15.0118H13V11H9ZM9 24.0382V32.0618H13V24.0382H9ZM9 41.0882V49.1118H13V41.0882H9ZM9 58.1382V66.1618H13V58.1382H9ZM9 75.1882V83.2118H13V75.1882H9ZM9 92.2382V100.262H13V92.2382H9ZM9 109.288V117.312H13V109.288H9ZM9 126.338V134.362H13V126.338H9ZM9 143.388V151.412H13V143.388H9ZM9 160.438V168.462H13V160.438H9ZM9 177.488V185.512H13V177.488H9ZM9 194.538V202.562H13V194.538H9ZM9 211.588V219.612H13V211.588H9ZM9 228.638V236.662H13V228.638H9ZM9 245.688V253.712H13V245.688H9ZM9 262.738V270.762H13V262.738H9ZM9 279.788V287.812H13V279.788H9ZM9 296.838V304.862H13V296.838H9ZM9 313.888V321.912H13V313.888H9ZM9 330.938V338.962H13V330.938H9ZM9 347.988V356.012H13V347.988H9ZM9 365.038V373.062H13V365.038H9ZM9 382.088V390.112H13V382.088H9ZM9 399.138V407.162H13V399.138H9ZM9 416.188V424.212H13V416.188H9ZM9 433.238V441.262H13V433.238H9ZM9 450.288V458.312H13V450.288H9ZM9 467.338V475.362H13V467.338H9ZM9 484.388V492.412H13V484.388H9ZM9 501.438V509.462H13V501.438H9ZM9 518.488V526.512H13V518.488H9ZM9 535.538V543.562H13V535.538H9ZM9 552.588V560.612H13V552.588H9ZM9 569.638V577.662H13V569.638H9ZM9 586.688V594.712H13V586.688H9ZM9 603.738V611.762H13V603.738H9ZM9 620.788V628.812H13V620.788H9ZM9 637.838V645.862H13V637.838H9ZM9 654.888V662.912H13V654.888H9ZM9 671.938V679.962H13V671.938H9ZM9 688.989V697.012H13V688.989H9ZM9 706.039V714.062H13V706.039H9ZM9 723.089V731.112H13V723.089H9ZM9 740.139V748.162H13V740.139H9ZM9 757.189V765.212H13V757.189H9ZM9 774.239V782.262H13V774.239H9ZM9 791.289V799.312H13V791.289H9ZM9 808.339V816.362H13V808.339H9ZM9 825.389V833.412H13V825.389H9ZM9 842.439V850.463H13V842.439H9ZM9 859.489V867.513H13V859.489H9ZM9 876.539V884.563H13V876.539H9ZM9 893.589V901.613H13V893.589H9ZM9 910.639V918.663H13V910.639H9ZM9 927.689V935.713H13V927.689H9ZM9 944.739V952.763H13V944.739H9ZM9 961.789V969.813H13V961.789H9ZM9 978.839V986.863H13V978.839H9ZM9 995.889V1003.91H13V995.889H9ZM9 1012.94V1020.96H13V1012.94H9ZM9 1029.99V1038.01H13V1029.99H9ZM9 1047.04V1055.06H13V1047.04H9ZM9 1064.09V1072.11H13V1064.09H9ZM9 1081.14V1089.16H13V1081.14H9ZM9 1098.19V1106.21H13V1098.19H9ZM9 1115.24V1123.26H13V1115.24H9ZM9 1132.29V1140.31H13V1132.29H9ZM9 1149.34V1157.36H13V1149.34H9ZM9 1166.39V1174.41H13V1166.39H9ZM9 1183.44V1191.46H13V1183.44H9ZM9 1200.49V1208.51H13V1200.49H9ZM9 1217.54V1225.56H13V1217.54H9ZM9 1234.59V1242.61H13V1234.59H9ZM9 1251.64V1259.66H13V1251.64H9ZM9 1268.69V1276.71H13V1268.69H9ZM9 1285.74V1293.76H13V1285.74H9ZM9 1302.79V1310.81H13V1302.79H9ZM9 1319.84V1327.86H13V1319.84H9ZM9 1336.89V1344.91H13V1336.89H9ZM9 1353.94V1361.96H13V1353.94H9ZM9 1370.99V1375H13V1370.99H9Z" fill="url(#paint0_linear_2471_374)"/>
<defs>
<linearGradient id="paint0_linear_2471_374" x1="11.5" y1="11" x2="11.5" y2="1375" gradientUnits="userSpaceOnUse">
<stop stop-color="#0F2ACC"/>
<stop offset="1" stop-color="#626266"/>
</linearGradient>
</defs>
</svg>
