<svg preserveAspectRatio="none" viewBox="0 0 937 1178" fill="none" xmlns="http://www.w3.org/2000/svg">
<path d="M935 2H937V0H935V2ZM935 130.5V132.5H937V130.5H935ZM2 130.5V128.5H0L0 130.5L2 130.5ZM2 262.5L0 262.5L0 264.5H2V262.5ZM935 262.5H937V260.5H935V262.5ZM935 391V393H937V391H935ZM2 391V389H1.10735e-10L1.10958e-10 391L2 391ZM2 521.5L1.2551e-10 521.5L1.25733e-10 523.5H2V521.5ZM935 521.5H937V519.5H935V521.5ZM935 653.5V655.5H937V653.5H935ZM2 653.5V651.5H1.3079e-10L1.30967e-10 653.5L2 653.5ZM2 787L1.42791e-10 787L1.42968e-10 789H2V787ZM935 787H937V785H935V787ZM935 922.5V924.5H937V922.5H935ZM2 922.5V920.5H1.42791e-10V922.5H2ZM2 1052H1.42791e-10V1054H2V1052ZM935 1052H937V1050H935V1052ZM2 4H5.99144V0H2V4ZM14.9722 4H22.9551V0H14.9722V4ZM31.9358 4H39.9187V0H31.9358V4ZM48.8995 4H56.8824V0H48.8995V4ZM65.8631 4H73.846V0H65.8631V4ZM82.8267 4H90.8096V0H82.8267V4ZM99.7904 4H107.773V0H99.7904V4ZM116.754 4H124.737V0H116.754V4ZM133.718 4H141.701V0H133.718V4ZM150.681 4H158.664V0H150.681V4ZM167.645 4H175.628V0H167.645V4ZM184.609 4H192.591V0H184.609V4ZM201.572 4H209.555V0H201.572V4ZM218.536 4H226.519V0H218.536V4ZM235.499 4H243.482V0H235.499V4ZM252.463 4H260.446V0H252.463V4ZM269.427 4H277.41V0H269.427V4ZM286.39 4H294.373V0H286.39V4ZM303.354 4H311.337V0H303.354V4ZM320.318 4H328.3V0H320.318V4ZM337.281 4H345.264V0H337.281V4ZM354.245 4H362.228V0H354.245V4ZM371.208 4H379.191V0H371.208V4ZM388.172 4H396.155V0H388.172V4ZM405.136 4H413.119V0H405.136V4ZM422.099 4H430.082V0H422.099V4ZM439.063 4H447.046V0H439.063V4ZM456.027 4H464.009V0H456.027V4ZM472.99 4H480.973V0H472.99V4ZM489.954 4H497.937V0H489.954V4ZM506.918 4H514.9V0H506.918V4ZM523.881 4H531.864V0H523.881V4ZM540.845 4H548.828V0H540.845V4ZM557.809 4H565.791V0H557.809V4ZM574.772 4H582.755V0H574.772V4ZM591.736 4H599.719V0H591.736V4ZM608.7 4H616.682V0H608.7V4ZM625.663 4H633.646V0H625.663V4ZM642.627 4H650.61V0H642.627V4ZM659.591 4H667.574V0H659.591V4ZM676.554 4H684.537V0H676.554V4ZM693.518 4H701.501V0H693.518V4ZM710.482 4H718.465V0H710.482V4ZM727.445 4H735.428V0H727.445V4ZM744.409 4H752.392V0H744.409V4ZM761.373 4H769.356V0H761.373V4ZM778.336 4H786.319V0H778.336V4ZM795.3 4H803.283V0H795.3V4ZM812.264 4H820.247V0H812.264V4ZM829.227 4H837.21V0H829.227V4ZM846.191 4H854.174V0H846.191V4ZM863.155 4H871.138V0H863.155V4ZM880.119 4H888.101V0H880.119V4ZM897.082 4H905.065V0H897.082V4ZM914.046 4H922.029V0H914.046V4ZM931.01 4H935V0H931.01V4ZM933 2V5.77941H937V2H933ZM933 14.2831V21.8419H937V14.2831H933ZM933 30.3456V37.9044H937V30.3456H933ZM933 46.4081V53.9669H937V46.4081H933ZM933 62.4706V70.0294H937V62.4706H933ZM933 78.5331V86.0919H937V78.5331H933ZM933 94.5956V102.154H937V94.5956H933ZM933 110.658V118.217H937V110.658H933ZM933 126.721V130.5H937V126.721H933ZM935 128.5H931.009V132.5H935V128.5ZM922.028 128.5H914.045V132.5H922.028V128.5ZM905.064 128.5H897.081V132.5H905.064V128.5ZM888.101 128.5H880.118V132.5H888.101V128.5ZM871.137 128.5H863.154V132.5H871.137V128.5ZM854.173 128.5H846.19V132.5H854.173V128.5ZM837.21 128.5H829.227V132.5H837.21V128.5ZM820.246 128.5H812.263V132.5H820.246V128.5ZM803.282 128.5H795.299V132.5H803.282V128.5ZM786.319 128.5H778.336V132.5H786.319V128.5ZM769.355 128.5H761.372V132.5H769.355V128.5ZM752.391 128.5H744.409V132.5H752.391V128.5ZM735.428 128.5H727.445V132.5H735.428V128.5ZM718.464 128.5H710.481V132.5H718.464V128.5ZM701.501 128.5H693.518V132.5H701.501V128.5ZM684.537 128.5H676.554V132.5H684.537V128.5ZM667.573 128.5H659.59V132.5H667.573V128.5ZM650.61 128.5H642.627V132.5H650.61V128.5ZM633.646 128.5H625.663V132.5H633.646V128.5ZM616.682 128.5H608.7V132.5H616.682V128.5ZM599.719 128.5H591.736V132.5H599.719V128.5ZM582.755 128.5H574.772V132.5H582.755V128.5ZM565.792 128.5H557.809V132.5H565.792V128.5ZM548.828 128.5H540.845V132.5H548.828V128.5ZM531.864 128.5H523.881V132.5H531.864V128.5ZM514.901 128.5H506.918V132.5H514.901V128.5ZM497.937 128.5H489.954V132.5H497.937V128.5ZM480.973 128.5H472.991V132.5H480.973V128.5ZM464.01 128.5H456.027V132.5H464.01V128.5ZM447.046 128.5H439.063V132.5H447.046V128.5ZM430.082 128.5H422.1V132.5H430.082V128.5ZM413.119 128.5H405.136V132.5H413.119V128.5ZM396.155 128.5H388.172V132.5H396.155V128.5ZM379.191 128.5H371.209V132.5H379.191V128.5ZM362.228 128.5H354.245V132.5H362.228V128.5ZM345.264 128.5H337.281V132.5H345.264V128.5ZM328.3 128.5H320.318V132.5H328.3V128.5ZM311.337 128.5H303.354V132.5H311.337V128.5ZM294.373 128.5H286.39V132.5H294.373V128.5ZM277.409 128.5H269.426V132.5H277.409V128.5ZM260.446 128.5H252.463V132.5H260.446V128.5ZM243.482 128.5H235.499V132.5H243.482V128.5ZM226.518 128.5H218.535V132.5H226.518V128.5ZM209.555 128.5H201.572V132.5H209.555V128.5ZM192.591 128.5H184.608V132.5H192.591V128.5ZM175.627 128.5H167.644V132.5H175.627V128.5ZM158.664 128.5H150.681V132.5H158.664V128.5ZM141.7 128.5H133.717V132.5H141.7V128.5ZM124.736 128.5H116.753V132.5H124.736V128.5ZM107.773 128.5H99.7896V132.5H107.773V128.5ZM90.8088 128.5H82.8259V132.5H90.8088V128.5ZM73.8451 128.5H65.8623V132.5H73.8451V128.5ZM56.8815 128.5H48.8985V132.5H56.8815V128.5ZM39.9178 128.5H31.9349V132.5H39.9178V128.5ZM22.9541 128.5H14.9712V132.5H22.9541V128.5ZM5.99043 128.5H2V132.5H5.99043V128.5ZM0 130.5L0 134.382L4 134.382L4 130.5L0 130.5ZM0 143.118L0 150.882L4 150.882L4 143.118L0 143.118ZM0 159.618L0 167.382L4 167.382L4 159.618L0 159.618ZM0 176.118L0 183.882L4 183.882L4 176.118L0 176.118ZM0 192.618L0 200.382L4 200.382L4 192.618L0 192.618ZM0 209.118L0 216.882L4 216.882L4 209.118L0 209.118ZM0 225.618L0 233.382L4 233.382L4 225.618L0 225.618ZM0 242.118L0 249.882L4 249.882L4 242.118L0 242.118ZM0 258.618L0 262.5L4 262.5L4 258.618L0 258.618ZM2 264.5H5.99144V260.5H2V264.5ZM14.9722 264.5H22.9551V260.5H14.9722V264.5ZM31.9358 264.5H39.9187V260.5H31.9358V264.5ZM48.8995 264.5H56.8824V260.5H48.8995V264.5ZM65.8631 264.5H73.846V260.5H65.8631V264.5ZM82.8267 264.5H90.8096V260.5H82.8267V264.5ZM99.7904 264.5H107.773V260.5H99.7904V264.5ZM116.754 264.5H124.737V260.5H116.754V264.5ZM133.718 264.5H141.701V260.5H133.718V264.5ZM150.681 264.5H158.664V260.5H150.681V264.5ZM167.645 264.5H175.628V260.5H167.645V264.5ZM184.609 264.5H192.591V260.5H184.609V264.5ZM201.572 264.5H209.555V260.5H201.572V264.5ZM218.536 264.5H226.519V260.5H218.536V264.5ZM235.499 264.5H243.482V260.5H235.499V264.5ZM252.463 264.5H260.446V260.5H252.463V264.5ZM269.427 264.5H277.41V260.5H269.427V264.5ZM286.39 264.5H294.373V260.5H286.39V264.5ZM303.354 264.5H311.337V260.5H303.354V264.5ZM320.318 264.5H328.3V260.5H320.318V264.5ZM337.281 264.5H345.264V260.5H337.281V264.5ZM354.245 264.5H362.228V260.5H354.245V264.5ZM371.208 264.5H379.191V260.5H371.208V264.5ZM388.172 264.5H396.155V260.5H388.172V264.5ZM405.136 264.5H413.119V260.5H405.136V264.5ZM422.099 264.5H430.082V260.5H422.099V264.5ZM439.063 264.5H447.046V260.5H439.063V264.5ZM456.027 264.5H464.009V260.5H456.027V264.5ZM472.99 264.5H480.973V260.5H472.99V264.5ZM489.954 264.5H497.937V260.5H489.954V264.5ZM506.918 264.5H514.9V260.5H506.918V264.5ZM523.881 264.5H531.864V260.5H523.881V264.5ZM540.845 264.5H548.828V260.5H540.845V264.5ZM557.809 264.5H565.791V260.5H557.809V264.5ZM574.772 264.5H582.755V260.5H574.772V264.5ZM591.736 264.5H599.719V260.5H591.736V264.5ZM608.7 264.5H616.682V260.5H608.7V264.5ZM625.663 264.5H633.646V260.5H625.663V264.5ZM642.627 264.5H650.61V260.5H642.627V264.5ZM659.591 264.5H667.574V260.5H659.591V264.5ZM676.554 264.5H684.537V260.5H676.554V264.5ZM693.518 264.5H701.501V260.5H693.518V264.5ZM710.482 264.5H718.465V260.5H710.482V264.5ZM727.445 264.5H735.428V260.5H727.445V264.5ZM744.409 264.5H752.392V260.5H744.409V264.5ZM761.373 264.5H769.356V260.5H761.373V264.5ZM778.336 264.5H786.319V260.5H778.336V264.5ZM795.3 264.5H803.283V260.5H795.3V264.5ZM812.264 264.5H820.247V260.5H812.264V264.5ZM829.227 264.5H837.21V260.5H829.227V264.5ZM846.191 264.5H854.174V260.5H846.191V264.5ZM863.155 264.5H871.138V260.5H863.155V264.5ZM880.119 264.5H888.101V260.5H880.119V264.5ZM897.082 264.5H905.065V260.5H897.082V264.5ZM914.046 264.5H922.029V260.5H914.046V264.5ZM931.01 264.5H935V260.5H931.01V264.5ZM933 262.5V266.279H937V262.5H933ZM933 274.783V282.342H937V274.783H933ZM933 290.846V298.404H937V290.846H933ZM933 306.908V314.467H937V306.908H933ZM933 322.971V330.529H937V322.971H933ZM933 339.033V346.592H937V339.033H933ZM933 355.096V362.654H937V355.096H933ZM933 371.158V378.717H937V371.158H933ZM933 387.221V391H937V387.221H933ZM935 389H931.009V393H935V389ZM922.028 389H914.045V393H922.028V389ZM905.064 389H897.081V393H905.064V389ZM888.101 389H880.118V393H888.101V389ZM871.137 389H863.154V393H871.137V389ZM854.173 389H846.19V393H854.173V389ZM837.21 389H829.227V393H837.21V389ZM820.246 389H812.263V393H820.246V389ZM803.282 389H795.299V393H803.282V389ZM786.319 389H778.336V393H786.319V389ZM769.355 389H761.372V393H769.355V389ZM752.391 389H744.409V393H752.391V389ZM735.428 389H727.445V393H735.428V389ZM718.464 389H710.481V393H718.464V389ZM701.501 389H693.518V393H701.501V389ZM684.537 389H676.554V393H684.537V389ZM667.573 389H659.59V393H667.573V389ZM650.61 389H642.627V393H650.61V389ZM633.646 389H625.663V393H633.646V389ZM616.682 389H608.7V393H616.682V389ZM599.719 389H591.736V393H599.719V389ZM582.755 389H574.772V393H582.755V389ZM565.792 389H557.809V393H565.792V389ZM548.828 389H540.845V393H548.828V389ZM531.864 389H523.881V393H531.864V389ZM514.901 389H506.918V393H514.901V389ZM497.937 389H489.954V393H497.937V389ZM480.973 389H472.991V393H480.973V389ZM464.01 389H456.027V393H464.01V389ZM447.046 389H439.063V393H447.046V389ZM430.082 389H422.1V393H430.082V389ZM413.119 389H405.136V393H413.119V389ZM396.155 389H388.172V393H396.155V389ZM379.191 389H371.209V393H379.191V389ZM362.228 389H354.245V393H362.228V389ZM345.264 389H337.281V393H345.264V389ZM328.3 389H320.318V393H328.3V389ZM311.337 389H303.354V393H311.337V389ZM294.373 389H286.39V393H294.373V389ZM277.409 389H269.426V393H277.409V389ZM260.446 389H252.463V393H260.446V389ZM243.482 389H235.499V393H243.482V389ZM226.518 389H218.535V393H226.518V389ZM209.555 389H201.572V393H209.555V389ZM192.591 389H184.608V393H192.591V389ZM175.627 389H167.644V393H175.627V389ZM158.664 389H150.681V393H158.664V389ZM141.7 389H133.717V393H141.7V389ZM124.736 389H116.753V393H124.736V389ZM107.773 389H99.7896V393H107.773V389ZM90.8088 389H82.8259V393H90.8088V389ZM73.8451 389H65.8623V393H73.8451V389ZM56.8815 389H48.8985V393H56.8815V389ZM39.9178 389H31.9349V393H39.9178V389ZM22.9541 389H14.9712V393H22.9541V389ZM5.99043 389H2V393H5.99043V389ZM1.10958e-10 391L1.11386e-10 394.838L4 394.838L4 391L1.10958e-10 391ZM1.12349e-10 403.474L1.13205e-10 411.151L4 411.151L4 403.474L1.12349e-10 403.474ZM1.14168e-10 419.787L1.15025e-10 427.463L4 427.463L4 419.787L1.14168e-10 419.787ZM1.15987e-10 436.099L1.16843e-10 443.776L4 443.776L4 436.099L1.15987e-10 436.099ZM1.17806e-10 452.412L1.18662e-10 460.088L4 460.088L4 452.412L1.17806e-10 452.412ZM1.19625e-10 468.724L1.20481e-10 476.401L4 476.401L4 468.724L1.19625e-10 468.724ZM1.21444e-10 485.037L1.223e-10 492.713L4 492.713L4 485.037L1.21444e-10 485.037ZM1.23263e-10 501.349L1.24119e-10 509.026L4 509.026L4 501.349L1.23263e-10 501.349ZM1.25082e-10 517.662L1.2551e-10 521.5L4 521.5L4 517.662L1.25082e-10 517.662ZM2 523.5H5.99144V519.5H2V523.5ZM14.9722 523.5H22.9551V519.5H14.9722V523.5ZM31.9358 523.5H39.9187V519.5H31.9358V523.5ZM48.8995 523.5H56.8824V519.5H48.8995V523.5ZM65.8631 523.5H73.846V519.5H65.8631V523.5ZM82.8267 523.5H90.8096V519.5H82.8267V523.5ZM99.7904 523.5H107.773V519.5H99.7904V523.5ZM116.754 523.5H124.737V519.5H116.754V523.5ZM133.718 523.5H141.701V519.5H133.718V523.5ZM150.681 523.5H158.664V519.5H150.681V523.5ZM167.645 523.5H175.628V519.5H167.645V523.5ZM184.609 523.5H192.591V519.5H184.609V523.5ZM201.572 523.5H209.555V519.5H201.572V523.5ZM218.536 523.5H226.519V519.5H218.536V523.5ZM235.499 523.5H243.482V519.5H235.499V523.5ZM252.463 523.5H260.446V519.5H252.463V523.5ZM269.427 523.5H277.41V519.5H269.427V523.5ZM286.39 523.5H294.373V519.5H286.39V523.5ZM303.354 523.5H311.337V519.5H303.354V523.5ZM320.318 523.5H328.3V519.5H320.318V523.5ZM337.281 523.5H345.264V519.5H337.281V523.5ZM354.245 523.5H362.228V519.5H354.245V523.5ZM371.208 523.5H379.191V519.5H371.208V523.5ZM388.172 523.5H396.155V519.5H388.172V523.5ZM405.136 523.5H413.119V519.5H405.136V523.5ZM422.099 523.5H430.082V519.5H422.099V523.5ZM439.063 523.5H447.046V519.5H439.063V523.5ZM456.027 523.5H464.009V519.5H456.027V523.5ZM472.99 523.5H480.973V519.5H472.99V523.5ZM489.954 523.5H497.937V519.5H489.954V523.5ZM506.918 523.5H514.9V519.5H506.918V523.5ZM523.881 523.5H531.864V519.5H523.881V523.5ZM540.845 523.5H548.828V519.5H540.845V523.5ZM557.809 523.5H565.791V519.5H557.809V523.5ZM574.772 523.5H582.755V519.5H574.772V523.5ZM591.736 523.5H599.719V519.5H591.736V523.5ZM608.7 523.5H616.682V519.5H608.7V523.5ZM625.663 523.5H633.646V519.5H625.663V523.5ZM642.627 523.5H650.61V519.5H642.627V523.5ZM659.591 523.5H667.574V519.5H659.591V523.5ZM676.554 523.5H684.537V519.5H676.554V523.5ZM693.518 523.5H701.501V519.5H693.518V523.5ZM710.482 523.5H718.465V519.5H710.482V523.5ZM727.445 523.5H735.428V519.5H727.445V523.5ZM744.409 523.5H752.392V519.5H744.409V523.5ZM761.373 523.5H769.356V519.5H761.373V523.5ZM778.336 523.5H786.319V519.5H778.336V523.5ZM795.3 523.5H803.283V519.5H795.3V523.5ZM812.264 523.5H820.247V519.5H812.264V523.5ZM829.227 523.5H837.21V519.5H829.227V523.5ZM846.191 523.5H854.174V519.5H846.191V523.5ZM863.155 523.5H871.138V519.5H863.155V523.5ZM880.119 523.5H888.101V519.5H880.119V523.5ZM897.082 523.5H905.065V519.5H897.082V523.5ZM914.046 523.5H922.029V519.5H914.046V523.5ZM931.01 523.5H935V519.5H931.01V523.5ZM933 521.5V525.382H937V521.5H933ZM933 534.118V541.882H937V534.118H933ZM933 550.618V558.382H937V550.618H933ZM933 567.118V574.882H937V567.118H933ZM933 583.618V591.382H937V583.618H933ZM933 600.118V607.882H937V600.118H933ZM933 616.618V624.382H937V616.618H933ZM933 633.118V640.882H937V633.118H933ZM933 649.618V653.5H937V649.618H933ZM935 651.5H931.009V655.5H935V651.5ZM922.028 651.5H914.045V655.5H922.028V651.5ZM905.064 651.5H897.081V655.5H905.064V651.5ZM888.101 651.5H880.118V655.5H888.101V651.5ZM871.137 651.5H863.154V655.5H871.137V651.5ZM854.173 651.5H846.19V655.5H854.173V651.5ZM837.21 651.5H829.227V655.5H837.21V651.5ZM820.246 651.5H812.263V655.5H820.246V651.5ZM803.282 651.5H795.299V655.5H803.282V651.5ZM786.319 651.5H778.336V655.5H786.319V651.5ZM769.355 651.5H761.372V655.5H769.355V651.5ZM752.391 651.5H744.409V655.5H752.391V651.5ZM735.428 651.5H727.445V655.5H735.428V651.5ZM718.464 651.5H710.481V655.5H718.464V651.5ZM701.501 651.5H693.518V655.5H701.501V651.5ZM684.537 651.5H676.554V655.5H684.537V651.5ZM667.573 651.5H659.59V655.5H667.573V651.5ZM650.61 651.5H642.627V655.5H650.61V651.5ZM633.646 651.5H625.663V655.5H633.646V651.5ZM616.682 651.5H608.7V655.5H616.682V651.5ZM599.719 651.5H591.736V655.5H599.719V651.5ZM582.755 651.5H574.772V655.5H582.755V651.5ZM565.792 651.5H557.809V655.5H565.792V651.5ZM548.828 651.5H540.845V655.5H548.828V651.5ZM531.864 651.5H523.881V655.5H531.864V651.5ZM514.901 651.5H506.918V655.5H514.901V651.5ZM497.937 651.5H489.954V655.5H497.937V651.5ZM480.973 651.5H472.991V655.5H480.973V651.5ZM464.01 651.5H456.027V655.5H464.01V651.5ZM447.046 651.5H439.063V655.5H447.046V651.5ZM430.082 651.5H422.1V655.5H430.082V651.5ZM413.119 651.5H405.136V655.5H413.119V651.5ZM396.155 651.5H388.172V655.5H396.155V651.5ZM379.191 651.5H371.209V655.5H379.191V651.5ZM362.228 651.5H354.245V655.5H362.228V651.5ZM345.264 651.5H337.281V655.5H345.264V651.5ZM328.3 651.5H320.318V655.5H328.3V651.5ZM311.337 651.5H303.354V655.5H311.337V651.5ZM294.373 651.5H286.39V655.5H294.373V651.5ZM277.409 651.5H269.426V655.5H277.409V651.5ZM260.446 651.5H252.463V655.5H260.446V651.5ZM243.482 651.5H235.499V655.5H243.482V651.5ZM226.518 651.5H218.535V655.5H226.518V651.5ZM209.555 651.5H201.572V655.5H209.555V651.5ZM192.591 651.5H184.608V655.5H192.591V651.5ZM175.627 651.5H167.644V655.5H175.627V651.5ZM158.664 651.5H150.681V655.5H158.664V651.5ZM141.7 651.5H133.717V655.5H141.7V651.5ZM124.736 651.5H116.753V655.5H124.736V651.5ZM107.773 651.5H99.7896V655.5H107.773V651.5ZM90.8088 651.5H82.8259V655.5H90.8088V651.5ZM73.8451 651.5H65.8623V655.5H73.8451V651.5ZM56.8815 651.5H48.8985V655.5H56.8815V651.5ZM39.9178 651.5H31.9349V655.5H39.9178V651.5ZM22.9541 651.5H14.9712V655.5H22.9541V651.5ZM5.99043 651.5H2V655.5H5.99043V651.5ZM1.30967e-10 653.5L1.31315e-10 657.426L4 657.426L4 653.5L1.30967e-10 653.5ZM1.32098e-10 666.261L1.32793e-10 674.114L4 674.114L4 666.261L1.32098e-10 666.261ZM1.33576e-10 682.949L1.34271e-10 690.801L4 690.801L4 682.949L1.33576e-10 682.949ZM1.35053e-10 699.636L1.35749e-10 707.489L4 707.489L4 699.636L1.35053e-10 699.636ZM1.36531e-10 716.324L1.37227e-10 724.176L4 724.176L4 716.324L1.36531e-10 716.324ZM1.38009e-10 733.011L1.38705e-10 740.864L4 740.864L4 733.011L1.38009e-10 733.011ZM1.39487e-10 749.699L1.40183e-10 757.551L4 757.551L4 749.699L1.39487e-10 749.699ZM1.40965e-10 766.386L1.41661e-10 774.239L4 774.239L4 766.386L1.40965e-10 766.386ZM1.42443e-10 783.074L1.42791e-10 787L4 787L4 783.074L1.42443e-10 783.074ZM2 789H5.99144V785H2V789ZM14.9722 789H22.9551V785H14.9722V789ZM31.9358 789H39.9187V785H31.9358V789ZM48.8995 789H56.8824V785H48.8995V789ZM65.8631 789H73.846V785H65.8631V789ZM82.8267 789H90.8096V785H82.8267V789ZM99.7904 789H107.773V785H99.7904V789ZM116.754 789H124.737V785H116.754V789ZM133.718 789H141.701V785H133.718V789ZM150.681 789H158.664V785H150.681V789ZM167.645 789H175.628V785H167.645V789ZM184.609 789H192.591V785H184.609V789ZM201.572 789H209.555V785H201.572V789ZM218.536 789H226.519V785H218.536V789ZM235.499 789H243.482V785H235.499V789ZM252.463 789H260.446V785H252.463V789ZM269.427 789H277.41V785H269.427V789ZM286.39 789H294.373V785H286.39V789ZM303.354 789H311.337V785H303.354V789ZM320.318 789H328.3V785H320.318V789ZM337.281 789H345.264V785H337.281V789ZM354.245 789H362.228V785H354.245V789ZM371.208 789H379.191V785H371.208V789ZM388.172 789H396.155V785H388.172V789ZM405.136 789H413.119V785H405.136V789ZM422.099 789H430.082V785H422.099V789ZM439.063 789H447.046V785H439.063V789ZM456.027 789H464.009V785H456.027V789ZM472.99 789H480.973V785H472.99V789ZM489.954 789H497.937V785H489.954V789ZM506.918 789H514.9V785H506.918V789ZM523.881 789H531.864V785H523.881V789ZM540.845 789H548.828V785H540.845V789ZM557.809 789H565.791V785H557.809V789ZM574.772 789H582.755V785H574.772V789ZM591.736 789H599.719V785H591.736V789ZM608.7 789H616.682V785H608.7V789ZM625.663 789H633.646V785H625.663V789ZM642.627 789H650.61V785H642.627V789ZM659.591 789H667.574V785H659.591V789ZM676.554 789H684.537V785H676.554V789ZM693.518 789H701.501V785H693.518V789ZM710.482 789H718.465V785H710.482V789ZM727.445 789H735.428V785H727.445V789ZM744.409 789H752.392V785H744.409V789ZM761.373 789H769.356V785H761.373V789ZM778.336 789H786.319V785H778.336V789ZM795.3 789H803.283V785H795.3V789ZM812.264 789H820.247V785H812.264V789ZM829.227 789H837.21V785H829.227V789ZM846.191 789H854.174V785H846.191V789ZM863.155 789H871.138V785H863.155V789ZM880.119 789H888.101V785H880.119V789ZM897.082 789H905.065V785H897.082V789ZM914.046 789H922.029V785H914.046V789ZM931.01 789H935V785H931.01V789ZM933 787V790.985H937V787H933ZM933 799.952V807.923H937V799.952H933ZM933 816.89V824.86H937V816.89H933ZM933 833.827V841.798H937V833.827H933ZM933 850.765V858.735H937V850.765H933ZM933 867.702V875.673H937V867.702H933ZM933 884.64V892.61H937V884.64H933ZM933 901.577V909.548H937V901.577H933ZM933 918.515V922.5H937V918.515H933ZM935 920.5H931.009V924.5H935V920.5ZM922.028 920.5H914.045V924.5H922.028V920.5ZM905.064 920.5H897.081V924.5H905.064V920.5ZM888.101 920.5H880.118V924.5H888.101V920.5ZM871.137 920.5H863.154V924.5H871.137V920.5ZM854.173 920.5H846.19V924.5H854.173V920.5ZM837.21 920.5H829.227V924.5H837.21V920.5ZM820.246 920.5H812.263V924.5H820.246V920.5ZM803.282 920.5H795.299V924.5H803.282V920.5ZM786.319 920.5H778.336V924.5H786.319V920.5ZM769.355 920.5H761.372V924.5H769.355V920.5ZM752.391 920.5H744.409V924.5H752.391V920.5ZM735.428 920.5H727.445V924.5H735.428V920.5ZM718.464 920.5H710.481V924.5H718.464V920.5ZM701.501 920.5H693.518V924.5H701.501V920.5ZM684.537 920.5H676.554V924.5H684.537V920.5ZM667.573 920.5H659.59V924.5H667.573V920.5ZM650.61 920.5H642.627V924.5H650.61V920.5ZM633.646 920.5H625.663V924.5H633.646V920.5ZM616.682 920.5H608.7V924.5H616.682V920.5ZM599.719 920.5H591.736V924.5H599.719V920.5ZM582.755 920.5H574.772V924.5H582.755V920.5ZM565.792 920.5H557.809V924.5H565.792V920.5ZM548.828 920.5H540.845V924.5H548.828V920.5ZM531.864 920.5H523.881V924.5H531.864V920.5ZM514.901 920.5H506.918V924.5H514.901V920.5ZM497.937 920.5H489.954V924.5H497.937V920.5ZM480.973 920.5H472.991V924.5H480.973V920.5ZM464.01 920.5H456.027V924.5H464.01V920.5ZM447.046 920.5H439.063V924.5H447.046V920.5ZM430.082 920.5H422.1V924.5H430.082V920.5ZM413.119 920.5H405.136V924.5H413.119V920.5ZM396.155 920.5H388.172V924.5H396.155V920.5ZM379.191 920.5H371.209V924.5H379.191V920.5ZM362.228 920.5H354.245V924.5H362.228V920.5ZM345.264 920.5H337.281V924.5H345.264V920.5ZM328.3 920.5H320.318V924.5H328.3V920.5ZM311.337 920.5H303.354V924.5H311.337V920.5ZM294.373 920.5H286.39V924.5H294.373V920.5ZM277.409 920.5H269.426V924.5H277.409V920.5ZM260.446 920.5H252.463V924.5H260.446V920.5ZM243.482 920.5H235.499V924.5H243.482V920.5ZM226.518 920.5H218.535V924.5H226.518V920.5ZM209.555 920.5H201.572V924.5H209.555V920.5ZM192.591 920.5H184.608V924.5H192.591V920.5ZM175.627 920.5H167.644V924.5H175.627V920.5ZM158.664 920.5H150.681V924.5H158.664V920.5ZM141.7 920.5H133.717V924.5H141.7V920.5ZM124.736 920.5H116.753V924.5H124.736V920.5ZM107.773 920.5H99.7896V924.5H107.773V920.5ZM90.8088 920.5H82.8259V924.5H90.8088V920.5ZM73.8451 920.5H65.8623V924.5H73.8451V920.5ZM56.8815 920.5H48.8985V924.5H56.8815V920.5ZM39.9178 920.5H31.9349V924.5H39.9178V920.5ZM22.9541 920.5H14.9712V924.5H22.9541V920.5ZM5.99043 920.5H2V924.5H5.99043V920.5ZM1.42791e-10 922.5V926.309H4V922.5H1.42791e-10ZM1.42791e-10 934.879V942.496H4V934.879H1.42791e-10ZM1.42791e-10 951.066V958.684H4V951.066H1.42791e-10ZM1.42791e-10 967.254V974.871H4V967.254H1.42791e-10ZM1.42791e-10 983.441V991.059H4V983.441H1.42791e-10ZM1.42791e-10 999.629V1007.25H4V999.629H1.42791e-10ZM1.42791e-10 1015.82V1023.43H4V1015.82H1.42791e-10ZM1.42791e-10 1032V1039.62H4V1032H1.42791e-10ZM1.42791e-10 1048.19V1052H4V1048.19H1.42791e-10ZM2 1054H5.99144V1050H2V1054ZM14.9722 1054H22.9551V1050H14.9722V1054ZM31.9358 1054H39.9187V1050H31.9358V1054ZM48.8995 1054H56.8824V1050H48.8995V1054ZM65.8631 1054H73.846V1050H65.8631V1054ZM82.8267 1054H90.8096V1050H82.8267V1054ZM99.7904 1054H107.773V1050H99.7904V1054ZM116.754 1054H124.737V1050H116.754V1054ZM133.718 1054H141.701V1050H133.718V1054ZM150.681 1054H158.664V1050H150.681V1054ZM167.645 1054H175.628V1050H167.645V1054ZM184.609 1054H192.591V1050H184.609V1054ZM201.572 1054H209.555V1050H201.572V1054ZM218.536 1054H226.519V1050H218.536V1054ZM235.499 1054H243.482V1050H235.499V1054ZM252.463 1054H260.446V1050H252.463V1054ZM269.427 1054H277.41V1050H269.427V1054ZM286.39 1054H294.373V1050H286.39V1054ZM303.354 1054H311.337V1050H303.354V1054ZM320.318 1054H328.3V1050H320.318V1054ZM337.281 1054H345.264V1050H337.281V1054ZM354.245 1054H362.228V1050H354.245V1054ZM371.208 1054H379.191V1050H371.208V1054ZM388.172 1054H396.155V1050H388.172V1054ZM405.136 1054H413.119V1050H405.136V1054ZM422.099 1054H430.082V1050H422.099V1054ZM439.063 1054H447.046V1050H439.063V1054ZM456.027 1054H464.009V1050H456.027V1054ZM472.99 1054H480.973V1050H472.99V1054ZM489.954 1054H497.937V1050H489.954V1054ZM506.918 1054H514.9V1050H506.918V1054ZM523.881 1054H531.864V1050H523.881V1054ZM540.845 1054H548.828V1050H540.845V1054ZM557.809 1054H565.791V1050H557.809V1054ZM574.772 1054H582.755V1050H574.772V1054ZM591.736 1054H599.719V1050H591.736V1054ZM608.7 1054H616.682V1050H608.7V1054ZM625.663 1054H633.646V1050H625.663V1054ZM642.627 1054H650.61V1050H642.627V1054ZM659.591 1054H667.574V1050H659.591V1054ZM676.554 1054H684.537V1050H676.554V1054ZM693.518 1054H701.501V1050H693.518V1054ZM710.482 1054H718.465V1050H710.482V1054ZM727.445 1054H735.428V1050H727.445V1054ZM744.409 1054H752.392V1050H744.409V1054ZM761.373 1054H769.356V1050H761.373V1054ZM778.336 1054H786.319V1050H778.336V1054ZM795.3 1054H803.283V1050H795.3V1054ZM812.264 1054H820.247V1050H812.264V1054ZM829.227 1054H837.21V1050H829.227V1054ZM846.191 1054H854.174V1050H846.191V1054ZM863.155 1054H871.138V1050H863.155V1054ZM880.119 1054H888.101V1050H880.119V1054ZM897.082 1054H905.065V1050H897.082V1054ZM914.046 1054H922.029V1050H914.046V1054ZM931.01 1054H935V1050H931.01V1054ZM933 1052V1056.24H937V1052H933ZM933 1065.76V1074.24H937V1065.76H933ZM933 1083.76V1092.24H937V1083.76H933ZM933 1101.76V1110.24H937V1101.76H933ZM933 1119.76V1128.24H937V1119.76H933ZM933 1137.76V1146.24H937V1137.76H933ZM933 1155.76V1164.24H937V1155.76H933ZM933 1173.76V1178H937V1173.76H933Z" fill="url(#paint0_linear_1_2)"/>
<defs>
<linearGradient id="paint0_linear_1_2" x1="18.9504" y1="148.5" x2="588.301" y2="1022.76" gradientUnits="userSpaceOnUse">
<stop stop-color="#0E29CB"/>
<stop offset="1" stop-color="#626265"/>
</linearGradient>
</defs>
</svg>
