<?xml version="1.0" encoding="UTF-8" standalone="no"?>
<svg width="475px" height="371px" viewBox="0 0 475 371" version="1.1" xmlns="http://www.w3.org/2000/svg" xmlns:xlink="http://www.w3.org/1999/xlink">
    <!-- Generator: Sketch 3.8.3 (29802) - http://www.bohemiancoding.com/sketch -->
    <title>speaker-sound-muted</title>
    <desc>Created with Sketch.</desc>
    <defs></defs>
    <g id="Page-1" stroke="none" stroke-width="1" fill="none" fill-rule="evenodd">
        <g id="speaker-sound-muted" fill="#FFFFFF">
            <g id="Capa_1">
                <g id="Group">
                    <path d="M91.494,122.757 L26.775,122.757 C12.01,122.757 1.77635684e-15,134.844 1.77635684e-15,149.532 L1.77635684e-15,220.983 C1.77635684e-15,235.748 12.087,247.757 26.775,247.757 L91.494,247.757 L227.269,366.103 C239.355,374.748 248.996,369.699 248.996,354.934 L248.996,15.581 C249.072,0.816 239.355,-4.232 227.269,4.412 L91.494,122.757 Z" id="Shape"></path>
                    <path d="M417.625269,186.296158 L471.200781,132.719789 C475.659121,128.260591 475.659121,120.850884 471.200781,116.391687 L460.380242,105.571148 C455.921902,101.111951 448.511337,101.111951 444.051283,105.571148 L390.475771,159.14666 L337.293717,105.963749 C332.835377,101.504552 325.424812,101.504552 320.964758,105.963749 L310.144219,116.784288 C305.685879,121.243485 305.685879,128.65405 310.144219,133.11239 L363.327987,186.295301 L310.144219,239.478211 C305.685879,243.937409 305.685879,251.347973 310.144219,255.80717 L320.964758,266.626852 C325.424812,271.086049 332.835377,271.086049 337.293717,266.626852 L390.475771,213.444799 L443.657824,266.626852 C448.117879,271.086049 455.528443,271.086049 459.986783,266.626852 L470.807322,255.80717 C475.265662,251.347973 475.265662,243.937409 470.807322,239.478211 L417.625269,186.296158 L417.625269,186.296158 Z" id="Shape"></path>
                </g>
            </g>
        </g>
    </g>
</svg>