<?xml version="1.0" encoding="UTF-8" standalone="no"?>
<svg width="68px" height="30px" viewBox="0 0 68 30" version="1.1" xmlns="http://www.w3.org/2000/svg" xmlns:xlink="http://www.w3.org/1999/xlink">
    <!-- Generator: Sketch 3.7.2 (28276) - http://www.bohemiancoding.com/sketch -->
    <title>icon-soundcloud</title>
    <desc>Created with Sketch.</desc>
    <defs>
        <polygon id="path-1" points="6.77626358e-20 0.1637 6.77626358e-20 8.1627 1.6257 8.1627 1.6257 0.1637 0 0.1637"></polygon>
    </defs>
    <g id="Page-1" stroke="none" stroke-width="1" fill="none" fill-rule="evenodd">
        <g id="icon-soundcloud">
            <g id="Group-3" transform="translate(0.000000, 17.448800)">
                <mask id="mask-2" fill="white">
                    <use xlink:href="#path-1"></use>
                </mask>
                <g id="Clip-2"></g>
                <path d="M0.7677,0.1637 C0.6257,0.1637 0.5147,0.2727 0.4957,0.4297 L-0.0003,4.1957 L0.4957,7.8977 C0.5147,8.0537 0.6257,8.1627 0.7677,8.1627 C0.9047,8.1627 1.0167,8.0537 1.0387,7.8987 L1.0387,7.8977 L1.0387,7.8987 L1.6257,4.1957 L1.0387,0.4287 C1.0167,0.2727 0.9047,0.1637 0.7677,0.1637" id="Fill-1" fill="#FFFFFF" mask="url(#mask-2)"></path>
            </g>
            <path d="M3.5565,15.5547 C3.5325,15.3927 3.4165,15.2817 3.2745,15.2817 C3.1305,15.2817 3.0115,15.3967 2.9915,15.5547 C2.9915,15.5557 2.3255,21.6447 2.3255,21.6447 L2.9915,27.5997 C3.0105,27.7587 3.1295,27.8747 3.2745,27.8747 C3.4165,27.8747 3.5325,27.7617 3.5555,27.6007 L4.3145,21.6447 L3.5565,15.5547 Z" id="Fill-4" fill="#FFFFFF"></path>
            <path d="M14.06,9.9373 C13.787,9.9373 13.561,10.1613 13.548,10.4453 L13.017,21.6503 L13.548,28.8903 C13.561,29.1733 13.787,29.3973 14.06,29.3973 C14.332,29.3973 14.558,29.1723 14.573,28.8893 L14.573,28.8913 L15.174,21.6503 L14.573,10.4453 C14.558,10.1613 14.332,9.9373 14.06,9.9373" id="Fill-6" fill="#FFFFFF"></path>
            <path d="M8.6242,13.8314 C8.4142,13.8314 8.2422,13.9994 8.2252,14.2234 L7.6282,21.6474 L8.2252,28.8294 C8.2422,29.0514 8.4142,29.2184 8.6242,29.2184 C8.8312,29.2184 9.0032,29.0514 9.0212,28.8294 L9.7012,21.6474 L9.0212,14.2214 C9.0032,13.9994 8.8312,13.8314 8.6242,13.8314" id="Fill-8" fill="#FFFFFF"></path>
            <path d="M19.5849,29.3953 C19.9239,29.3953 20.1999,29.1223 20.2139,28.7723 L20.7339,21.6533 L20.2139,6.7363 C20.2009,6.3863 19.9249,6.1133 19.5859,6.1133 C19.2439,6.1133 18.9679,6.3873 18.9569,6.7373 C18.9569,6.7383 18.4949,21.6533 18.4949,21.6533 L18.9569,28.7743 C18.9679,29.1223 19.2439,29.3953 19.5849,29.3953" id="Fill-10" fill="#FFFFFF"></path>
            <path d="M30.896,29.4295 C31.362,29.4295 31.748,29.0445 31.756,28.5725 L31.756,28.5775 L31.756,28.5725 L32.119,21.6575 L31.756,4.4305 C31.748,3.9585 31.362,3.5735 30.896,3.5735 C30.428,3.5735 30.042,3.9575 30.035,4.4305 L29.711,21.6515 C29.711,21.6625 30.035,28.5765 30.035,28.5765 C30.042,29.0445 30.429,29.4295 30.896,29.4295" id="Fill-12" fill="#FFFFFF"></path>
            <path d="M25.1973,29.4025 C25.6033,29.4025 25.9313,29.0765 25.9423,28.6605 L25.9423,28.6665 L26.3833,21.6545 L25.9413,6.6305 C25.9303,6.2145 25.6023,5.8895 25.1963,5.8895 C24.7883,5.8895 24.4603,6.2145 24.4513,6.6305 L24.0583,21.6555 L24.4513,28.6645 C24.4613,29.0765 24.7883,29.4025 25.1973,29.4025" id="Fill-14" fill="#FFFFFF"></path>
            <path d="M11.3318,29.337 C11.5728,29.337 11.7688,29.143 11.7868,28.889 L12.4268,21.647 L11.7868,14.757 C11.7688,14.503 11.5738,14.311 11.3318,14.311 C11.0868,14.311 10.8908,14.505 10.8758,14.761 L10.3118,21.647 L10.8758,28.888 C10.8918,29.143 11.0868,29.337 11.3318,29.337" id="Fill-16" fill="#FFFFFF"></path>
            <path d="M5.9379,28.9396 C6.1149,28.9396 6.2579,28.8006 6.2779,28.6076 L6.9969,21.6456 L6.2779,14.4196 C6.2579,14.2266 6.1149,14.0876 5.9379,14.0876 C5.7589,14.0876 5.6169,14.2276 5.5979,14.4196 L4.9649,21.6456 L5.5979,28.6066 C5.6159,28.7996 5.7589,28.9396 5.9379,28.9396" id="Fill-18" fill="#FFFFFF"></path>
            <path d="M28.0352,6.3801 C27.5942,6.3801 27.2402,6.7311 27.2322,7.1801 L26.8732,21.6561 L27.2322,28.6221 C27.2402,29.0651 27.5942,29.4161 28.0352,29.4161 C28.4762,29.4161 28.8272,29.0661 28.8382,28.6171 L28.8382,28.6231 L29.2402,21.6571 L28.8382,7.1781 C28.8272,6.7311 28.4762,6.3801 28.0352,6.3801" id="Fill-20" fill="#FFFFFF"></path>
            <path d="M16.8125,29.4103 C17.1175,29.4103 17.3685,29.1613 17.3835,28.8443 L17.9435,21.6513 L17.3835,7.8853 C17.3675,7.5673 17.1175,7.3193 16.8125,7.3193 C16.5045,7.3193 16.2545,7.5683 16.2405,7.8853 C16.2405,7.8863 15.7445,21.6513 15.7445,21.6513 L16.2415,28.8473 C16.2545,29.1613 16.5045,29.4103 16.8125,29.4103" id="Fill-22" fill="#FFFFFF"></path>
            <path d="M23.0666,28.7317 L23.0666,28.7277 L23.5476,21.6547 L23.0666,6.2347 C23.0556,5.8517 22.7536,5.5517 22.3796,5.5517 C22.0056,5.5517 21.7036,5.8517 21.6936,6.2347 L21.2666,21.6527 L21.6946,28.7307 C21.7046,29.1097 22.0066,29.4097 22.3796,29.4097 C22.7536,29.4097 23.0536,29.1097 23.0666,28.7287 L23.0666,28.7317 Z" id="Fill-24" fill="#FFFFFF"></path>
            <path d="M59.4688,12.7659 C58.3258,12.7659 57.2358,12.9969 56.2428,13.4139 C55.5788,5.8969 49.2748,-0.0001 41.5858,-0.0001 C39.7048,-0.0001 37.8708,0.3699 36.2518,0.9969 C35.6218,1.2409 35.4548,1.4909 35.4478,1.9779 L35.4478,28.4499 C35.4548,28.9599 35.8508,29.3849 36.3488,29.4349 C36.3698,29.4369 59.3188,29.4489 59.4678,29.4489 C64.0738,29.4489 67.8078,25.7149 67.8078,21.1069 C67.8078,16.5009 64.0748,12.7659 59.4688,12.7659" id="Fill-26" fill="#FFFFFF"></path>
            <path d="M33.7431,1.9544 C33.2421,1.9544 32.8311,2.3654 32.8241,2.8714 L32.4481,21.6604 L32.8241,28.4784 C32.8311,28.9764 33.2421,29.3874 33.7431,29.3874 C34.2431,29.3874 34.6541,28.9764 34.6611,28.4714 L34.6611,28.4794 L35.0701,21.6604 L34.6611,2.8694 C34.6541,2.3654 34.2431,1.9544 33.7431,1.9544" id="Fill-29" fill="#FFFFFF"></path>
        </g>
    </g>
</svg>