<?xml version="1.0" encoding="UTF-8" standalone="no"?>
<svg width="42px" height="9px" viewBox="0 0 42 9" version="1.1" xmlns="http://www.w3.org/2000/svg" xmlns:xlink="http://www.w3.org/1999/xlink">
    <!-- Generator: Sketch 3.6.1 (26313) - http://www.bohemiancoding.com/sketch -->
    <title>…</title>
    <desc>Created with Sketch.</desc>
    <defs></defs>
    <g id="Page-1" stroke="none" stroke-width="1" fill="none" fill-rule="evenodd">
        <path d="M4.208,8.72 C6.368,8.72 8.168,6.848 8.168,4.76 C8.168,2.6 6.368,0.8 4.208,0.8 C2.048,0.8 0.32,2.6 0.32,4.76 C0.32,6.848 2.048,8.72 4.208,8.72 L4.208,8.72 Z M20.768,8.72 C22.928,8.72 24.8,6.848 24.8,4.76 C24.8,2.6 22.928,0.8 20.768,0.8 C18.608,0.8 16.88,2.6 16.88,4.76 C16.88,6.848 18.608,8.72 20.768,8.72 L20.768,8.72 Z M37.4,8.72 C39.56,8.72 41.36,6.848 41.36,4.76 C41.36,2.6 39.56,0.8 37.4,0.8 C35.24,0.8 33.44,2.6 33.44,4.76 C33.44,6.848 35.24,8.72 37.4,8.72 L37.4,8.72 Z" id="…" fill="#FFFFFF"></path>
    </g>
</svg>