<?xml version="1.0" encoding="UTF-8" standalone="no"?>
<svg width="20px" height="20px" viewBox="0 0 20 20" version="1.1" xmlns="http://www.w3.org/2000/svg" xmlns:xlink="http://www.w3.org/1999/xlink">
    <!-- Generator: Sketch 3.6.1 (26313) - http://www.bohemiancoding.com/sketch -->
    <title>icon-search</title>
    <desc>Created with Sketch.</desc>
    <defs></defs>
    <g id="Page-1" stroke="none" stroke-width="1" fill="none" fill-rule="evenodd">
        <path d="M18.8,17 L13.1,11.3 C13.9,10.1 14.4,8.7 14.4,7.2 C14.4,3.2 11.2,0 7.2,0 C3.2,0 -2.27373675e-13,3.2 -2.27373675e-13,7.2 C-2.27373675e-13,11.2 3.2,14.4 7.2,14.4 C8.7,14.4 10.2,13.9 11.4,13.1 L17.1,18.8 C17.6,19.3 18.4,19.4 18.9,18.9 C19.3,18.4 19.3,17.6 18.8,17 L18.8,17 Z M2.4,7.2 C2.4,4.6 4.5,2.4 7.2,2.4 C9.8,2.4 12,4.6 12,7.2 C12,9.8 9.9,12 7.2,12 C4.6,12 2.4,9.8 2.4,7.2 L2.4,7.2 Z" id="icon-search" fill="#333333"></path>
    </g>
</svg>