<?xml version="1.0" encoding="UTF-8" standalone="no"?>
<svg width="38px" height="31px" viewBox="0 0 38 31" version="1.1" xmlns="http://www.w3.org/2000/svg" xmlns:xlink="http://www.w3.org/1999/xlink">
    <!-- Generator: Sketch 3.6.1 (26313) - http://www.bohemiancoding.com/sketch -->
    <title>icon-twitter</title>
    <desc>Created with Sketch.</desc>
    <defs></defs>
    <g id="Page-1" stroke="none" stroke-width="1" fill="none" fill-rule="evenodd">
        <path d="M33.3,5.2 C34.9,4.3 36.1,2.8 36.7,1 C35.2,1.9 33.6,2.5 31.8,2.8 C30.4,1.3 28.4,0.4 26.2,0.4 C21.9,0.4 18.5,3.8 18.5,8 C18.5,8.6 18.6,9.2 18.7,9.7 C12.3,9.4 6.6,6.4 2.8,1.8 C2.1,2.9 1.8,4.2 1.8,5.6 C1.8,8.2 3.2,10.5 5.2,11.9 C3.9,11.9 2.7,11.5 1.7,11 L1.7,11.1 C1.7,14.8 4.4,17.8 7.9,18.5 C7.3,18.7 6.6,18.8 5.9,18.8 C5.4,18.8 4.9,18.8 4.5,18.7 C5.5,21.7 8.3,23.9 11.7,24 C9.1,26 5.7,27.2 2.1,27.2 C1.5,27.2 0.9,27.2 0.3,27.1 C3.7,29.3 7.8,30.5 12.1,30.5 C26.3,30.5 34,18.9 34,8.9 L34,7.9 C35.4,6.9 36.7,5.6 37.7,4 C36.3,4.6 34.8,5 33.3,5.2 Z" id="icon-twitter" fill="#FFFFFF"></path>
    </g>
</svg>