<?xml version="1.0" encoding="UTF-8" standalone="no"?>
<svg width="133px" height="14px" viewBox="0 0 133 14" version="1.1" xmlns="http://www.w3.org/2000/svg" xmlns:xlink="http://www.w3.org/1999/xlink" xmlns:sketch="http://www.bohemiancoding.com/sketch/ns">
    <!-- Generator: Sketch 3.5.2 (25235) - http://www.bohemiancoding.com/sketch -->
    <title>logo-ff-2015-white</title>
    <desc>Created with Sketch.</desc>
    <defs></defs>
    <g id="Page-1" stroke="none" stroke-width="1" fill="none" fill-rule="evenodd" sketch:type="MSPage">
        <g id="logo-ff-2015-white" sketch:type="MSLayerGroup">
            <g id="Layer_1" sketch:type="MSShapeGroup">
                <g id="Group">
                    <g id="Rectangle-path">
                        <rect fill="#F8130E" x="0" y="0.4" width="13.2" height="3.3"></rect>
                        <rect fill="#9AEFDF" x="0" y="3.7" width="13.2" height="3.3"></rect>
                        <rect fill="#44C1C1" x="0" y="7" width="13.2" height="3.3"></rect>
                        <rect fill="#072735" x="0" y="10.3" width="13.2" height="3.3"></rect>
                    </g>
                    <g transform="translate(23.000000, 3.000000)" id="Shape" fill="#FFFFFF">
                        <path d="M2,1.3 L2,3.5 L5,3.5 L5,4.5 L2,4.5 L2,7.7 L0.8,7.7 L0.8,0.3 L5.8,0.3 L5.8,1.3 L2,1.3 L2,1.3 Z"></path>
                        <path d="M12.5,0.3 C13.2,0.3 13.5,0.4 13.8,0.6 C14.2,1 14.5,1.5 14.5,4 C14.5,6.5 14.2,7 13.8,7.4 C13.5,7.6 13.3,7.7 12.5,7.7 L10.3,7.7 C9.6,7.7 9.3,7.6 9,7.4 C8.6,7 8.3,6.5 8.3,4 C8.3,1.5 8.6,1 9,0.6 C9.3,0.4 9.5,0.3 10.3,0.3 L12.5,0.3 L12.5,0.3 Z M9.8,6.6 C9.9,6.7 10,6.7 10.4,6.7 L12.4,6.7 C12.8,6.7 12.9,6.7 13,6.6 C13.1,6.5 13.3,6.2 13.3,4 C13.3,1.9 13.1,1.5 13,1.4 C12.9,1.3 12.8,1.3 12.4,1.3 L10.4,1.3 C10,1.3 9.9,1.3 9.8,1.4 C9.7,1.5 9.5,1.8 9.5,4 C9.6,6.1 9.7,6.5 9.8,6.6 L9.8,6.6 Z"></path>
                        <path d="M23.7,4.6 C23.7,6.5 23.5,6.8 23.1,7.2 C22.7,7.5 22.2,7.6 21.2,7.6 L20.1,7.6 C19.1,7.6 18.6,7.5 18.2,7.2 C17.8,6.8 17.6,6.4 17.6,4.6 L17.6,0.3 L18.8,0.3 L18.8,4.9 C18.8,6.2 18.9,6.4 19.1,6.5 C19.2,6.6 19.4,6.7 20.3,6.7 L21,6.7 C21.8,6.7 22,6.7 22.2,6.5 C22.4,6.3 22.4,6.3 22.4,4.9 L22.4,0.3 L23.6,0.3 L23.6,4.6 L23.7,4.6 Z"></path>
                        <path d="M33.3,7.7 L32,7.7 C31.7,7.7 31.6,7.6 31.4,7.4 L28.4,1.9 L28.2,1.9 L28.2,7.7 L27,7.7 L27,0.3 L28.4,0.3 C28.7,0.3 28.8,0.4 29,0.6 L31.9,5.8 L32.1,5.8 L32.1,0.2 L33.3,0.2 L33.3,7.7 L33.3,7.7 Z"></path>
                        <path d="M40.1,0.3 C41,0.3 41.6,0.4 42,0.8 C42.5,1.2 42.8,2.2 42.8,4 C42.8,5.8 42.6,6.7 42,7.2 C41.6,7.6 41.1,7.7 40.1,7.7 L36.7,7.7 L36.7,0.3 L40.1,0.3 L40.1,0.3 Z M41,1.5 C40.8,1.3 40.5,1.3 40.1,1.3 L38,1.3 L38,6.7 L40.1,6.7 C40.6,6.7 40.8,6.7 41,6.5 C41.3,6.2 41.4,5.7 41.4,4.1 C41.5,2.3 41.3,1.8 41,1.5 L41,1.5 Z"></path>
                        <path d="M51.1,7.7 L45.8,7.7 L45.8,0.3 L51.1,0.3 L51.1,1.3 L47,1.3 L47,3.3 L50.4,3.3 L50.4,4.3 L47,4.3 L47,6.6 L51.1,6.6 L51.1,7.7 L51.1,7.7 Z"></path>
                        <path d="M58.4,4.8 C58.3,4.7 58,4.7 57.6,4.7 L55.4,4.7 L55.4,7.8 L54.2,7.8 L54.2,0.4 L58.4,0.4 C58.9,0.4 59.3,0.5 59.5,0.7 C59.8,1 60,1.4 60,2.5 C60,3.8 59.6,4.2 58.7,4.3 L58.7,4.3 C59.5,4.4 59.8,4.6 59.9,5.7 C59.9,6.7 60,7.4 60,7.8 L58.8,7.8 C58.7,7.3 58.7,6.6 58.7,5.8 C58.6,5.1 58.5,4.9 58.4,4.8 L58.4,4.8 Z M58,3.7 C58.3,3.7 58.4,3.6 58.5,3.6 C58.6,3.5 58.7,3.3 58.7,2.5 C58.7,1.7 58.6,1.5 58.5,1.4 C58.4,1.3 58.3,1.3 58,1.3 L55.4,1.3 L55.4,3.7 L58,3.7 L58,3.7 Z"></path>
                        <path d="M68.4,7.4 C68.2,7.6 67.8,7.7 67.2,7.7 L64.6,7.7 C64,7.7 63.6,7.6 63.4,7.4 C63.1,7.1 63,6.7 63,5.4 L64.2,5.4 C64.2,6.3 64.3,6.5 64.3,6.6 C64.4,6.7 64.5,6.7 64.8,6.7 L67,6.7 C67.3,6.7 67.4,6.7 67.5,6.6 C67.6,6.5 67.6,6.2 67.6,5.6 C67.6,5.1 67.6,4.9 67.5,4.8 C67.4,4.7 67.3,4.7 67,4.7 L64.6,4.5 C64,4.4 63.7,4.3 63.5,4.1 C63.2,3.8 63.1,3.5 63.1,2.5 C63.1,1.5 63.2,1.1 63.6,0.7 C63.8,0.5 64.2,0.4 64.8,0.4 L67.2,0.4 C67.8,0.4 68.2,0.5 68.4,0.7 C68.7,1 68.8,1.3 68.8,2.7 L67.6,2.7 C67.6,1.8 67.5,1.6 67.5,1.6 C67.4,1.5 67.3,1.5 67,1.5 L65,1.5 C64.7,1.5 64.6,1.5 64.5,1.6 C64.4,1.7 64.4,2 64.4,2.6 C64.4,3.1 64.4,3.3 64.5,3.4 C64.6,3.5 64.7,3.5 65,3.5 L67.4,3.7 C67.9,3.7 68.3,3.8 68.5,4.1 C68.8,4.4 68.9,4.7 68.9,5.8 C68.9,6.6 68.8,7 68.4,7.4 L68.4,7.4 Z"></path>
                        <path d="M77.3,1.3 L77.3,3.5 L80.3,3.5 L80.3,4.5 L77.3,4.5 L77.3,7.7 L76.1,7.7 L76.1,0.3 L81.1,0.3 L81.1,1.3 L77.3,1.3 L77.3,1.3 Z"></path>
                        <path d="M90,4.6 C90,6.5 89.8,6.8 89.4,7.2 C89,7.5 88.5,7.6 87.5,7.6 L86.4,7.6 C85.4,7.6 84.9,7.5 84.5,7.2 C84.1,6.8 83.9,6.4 83.9,4.6 L83.9,0.3 L85.1,0.3 L85.1,4.9 C85.1,6.2 85.2,6.4 85.4,6.5 C85.5,6.6 85.7,6.7 86.6,6.7 L87.3,6.7 C88.1,6.7 88.3,6.7 88.5,6.5 C88.7,6.3 88.7,6.3 88.7,4.9 L88.7,0.3 L89.9,0.3 L89.9,4.6 L90,4.6 Z"></path>
                        <path d="M99.6,7.7 L98.3,7.7 C98,7.7 97.9,7.6 97.7,7.4 L94.7,1.9 L94.5,1.9 L94.5,7.7 L93.3,7.7 L93.3,0.3 L94.7,0.3 C95,0.3 95.1,0.4 95.3,0.6 L98.2,5.8 L98.4,5.8 L98.4,0.2 L99.6,0.2 L99.6,7.7 L99.6,7.7 Z"></path>
                        <path d="M106.4,0.3 C107.3,0.3 107.9,0.4 108.3,0.8 C108.8,1.2 109.1,2.2 109.1,4 C109.1,5.8 108.9,6.7 108.3,7.2 C107.9,7.6 107.4,7.7 106.4,7.7 L103,7.7 L103,0.3 L106.4,0.3 L106.4,0.3 Z M107.3,1.5 C107.1,1.3 106.8,1.3 106.4,1.3 L104.3,1.3 L104.3,6.7 L106.4,6.7 C106.9,6.7 107.1,6.7 107.3,6.5 C107.6,6.2 107.7,5.7 107.7,4.1 C107.7,2.3 107.6,1.8 107.3,1.5 L107.3,1.5 Z"></path>
                    </g>
                </g>
            </g>
        </g>
    </g>
</svg>