<svg width="512" height="512" viewBox="0 0 512 512" fill="none" xmlns="http://www.w3.org/2000/svg">
<path d="M430.068 182.036L222.026 63L196.021 77.8903V107.642L170.016 92.752L144.01 107.642V137.394L118.005 122.504L92 137.394V375.467L118.005 390.358L144.01 375.467V405.219L170.016 420.109L196.021 405.219V434.971L222.026 449.861L430.068 330.825V301.073L404.063 286.183L430.068 271.292V241.54L404.063 226.65L430.068 211.76V182.036ZM144.01 345.715L118.005 360.605V152.285L144.01 167.175V345.715V345.715ZM222.026 360.577V330.825L326.047 271.321L352.052 286.211L222.026 360.577V360.577ZM300.042 256.431L222.026 301.073V211.788L300.042 256.431V256.431ZM326.047 241.54L222.026 182.036V152.285L352.052 226.679L326.047 241.54V241.54ZM170.016 122.504L196.021 137.394V167.146L170.016 152.256V122.504ZM170.016 182.036L196.021 196.927V315.963L170.016 330.854V182.036ZM170.016 360.577L196.021 345.687V375.439L170.016 390.329V360.577V360.577ZM404.063 315.935L222.026 420.081V390.329L378.058 301.044L404.063 315.935ZM404.063 256.431L378.058 271.321L352.052 256.431L378.058 241.54L404.063 256.431ZM378.058 211.788L222.026 122.504V92.752L404.063 196.898L378.058 211.788V211.788Z" fill="#00E100"/>
</svg>
